<svg width="631" height="383" viewBox="0 0 631 383" fill="none" xmlns="http://www.w3.org/2000/svg">
<g clip-path="url(#clip0_3_9)">
<path d="M658 0H-27V383H658V0Z" fill="url(#paint0_linear_3_9)"/>
<g filter="url(#filter0_f_3_9)">
<circle cx="164" cy="195" r="50" fill="#FF5C00"/>
</g>
<path opacity="0.504" d="M65.74 78.9947C65.4014 78.9947 65.128 78.7213 65.128 78.3827C65.128 78.044 65.4014 77.7707 65.74 77.7707C66.0774 77.7707 66.352 78.044 66.352 78.3827C66.352 78.7213 66.0774 78.9947 65.74 78.9947ZM11.799 52.996C11.3766 52.996 11.0344 52.6533 11.0344 52.232C11.0344 51.8093 11.3766 51.4667 11.799 51.4667C12.2208 51.4667 12.5636 51.8093 12.5636 52.232C12.5636 52.6533 12.2208 52.996 11.799 52.996ZM23.7631 74.9067C23.3776 74.9067 23.0651 74.5947 23.0651 74.2093C23.0651 73.824 23.3776 73.5107 23.7631 73.5107C24.1484 73.5107 24.461 73.824 24.461 74.2093C24.461 74.5947 24.1484 74.9067 23.7631 74.9067ZM117.528 33.9733C116.752 33.9733 116.124 33.3453 116.124 32.5693C116.124 31.7947 116.752 31.1667 117.528 31.1667C118.303 31.1667 118.931 31.7947 118.931 32.5693C118.931 33.3453 118.303 33.9733 117.528 33.9733ZM179.345 40.8813C178.655 40.8813 178.096 40.3227 178.096 39.632C178.096 38.9427 178.655 38.3827 179.345 38.3827C180.036 38.3827 180.595 38.9427 180.595 39.632C180.595 40.3227 180.036 40.8813 179.345 40.8813ZM49.364 16.9333C48.6134 16.9333 48.0054 16.3253 48.0054 15.5747C48.0054 14.824 48.6134 14.216 49.364 14.216C50.1134 14.216 50.7214 14.824 50.7214 15.5747C50.7214 16.3253 50.1134 16.9333 49.364 16.9333ZM58.4134 21.9293C57.6827 21.9293 57.0894 21.336 57.0894 20.6053C57.0894 19.8747 57.6827 19.2827 58.4134 19.2827C59.144 19.2827 59.7374 19.8747 59.7374 20.6053C59.7374 21.336 59.144 21.9293 58.4134 21.9293ZM293.218 33.971C292.586 33.971 292.074 33.459 292.074 32.827C292.074 32.195 292.586 31.683 293.218 31.683C293.85 31.683 294.363 32.195 294.363 32.827C294.363 33.459 293.85 33.971 293.218 33.971ZM296.501 45.984C295.693 45.984 295.036 45.3267 295.036 44.5173C295.036 43.708 295.693 43.0533 296.501 43.0533C297.311 43.0533 297.967 43.708 297.967 44.5173C297.967 45.3267 297.311 45.984 296.501 45.984ZM190.292 79.917C189.615 79.917 189.065 79.367 189.065 78.689C189.065 78.011 189.615 77.462 190.292 77.462C190.971 77.462 191.52 78.011 191.52 78.689C191.52 79.367 190.971 79.917 190.292 79.917ZM132.912 72.936C132.476 72.936 132.123 72.5813 132.123 72.1453C132.123 71.7093 132.476 71.356 132.912 71.356C133.349 71.356 133.703 71.7093 133.703 72.1453C133.703 72.5813 133.349 72.936 132.912 72.936ZM50.64 77.976C50.356 77.976 50.124 77.7453 50.124 77.46C50.124 77.1747 50.356 76.9453 50.64 76.9453C50.9254 76.9453 51.156 77.1747 51.156 77.46C51.156 77.7453 50.9254 77.976 50.64 77.976ZM21.9688 33.9507C21.4719 33.9507 21.0698 33.5493 21.0698 33.052C21.0698 32.5547 21.4719 32.1533 21.9688 32.1533C22.4656 32.1533 22.8678 32.5547 22.8678 33.052C22.8678 33.5493 22.4656 33.9507 21.9688 33.9507ZM4.92922 55.9733C4.45469 55.9733 4.07029 55.588 4.07029 55.1147C4.07029 54.64 4.45469 54.2547 4.92922 54.2547C5.40362 54.2547 5.78802 54.64 5.78802 55.1147C5.78802 55.588 5.40362 55.9733 4.92922 55.9733ZM2.10309 47.9867V47.1773C2.16042 47.3013 2.19216 47.4373 2.19216 47.5827C2.19216 47.7267 2.16042 47.864 2.10309 47.9867ZM154.547 24.872C153.764 24.872 153.129 24.2373 153.129 23.4547C153.129 22.672 153.764 22.0373 154.547 22.0373C155.329 22.0373 155.964 22.672 155.964 23.4547C155.964 24.2373 155.329 24.872 154.547 24.872ZM183.163 10.913C182.528 10.913 182.014 10.399 182.014 9.764C182.014 9.13 182.528 8.616 183.163 8.616C183.797 8.616 184.311 9.13 184.311 9.764C184.311 10.399 183.797 10.913 183.163 10.913ZM112.44 45.932C111.669 45.932 111.044 45.3067 111.044 44.536C111.044 43.7653 111.669 43.14 112.44 43.14C113.211 43.14 113.836 43.7653 113.836 44.536C113.836 45.3067 113.211 45.932 112.44 45.932ZM126.184 17.959C125.558 17.959 125.052 17.452 125.052 16.827C125.052 16.202 125.558 15.695 126.184 15.695C126.809 15.695 127.316 16.202 127.316 16.827C127.316 17.452 126.809 17.959 126.184 17.959ZM18.0194 85.932C17.5271 85.932 17.1287 85.5333 17.1287 85.0413C17.1287 84.5493 17.5271 84.1507 18.0194 84.1507C18.5115 84.1507 18.9094 84.5493 18.9094 85.0413C18.9094 85.5333 18.5115 85.932 18.0194 85.932ZM76.2387 38.9507C75.5707 38.9507 75.0294 38.4093 75.0294 37.7413C75.0294 37.072 75.5707 36.5307 76.2387 36.5307C76.9067 36.5307 77.448 37.072 77.448 37.7413C77.448 38.4093 76.9067 38.9507 76.2387 38.9507ZM39.6339 62.924C39.3282 62.924 39.0807 62.676 39.0807 62.3707C39.0807 62.0653 39.3282 61.8187 39.6339 61.8187C39.9391 61.8187 40.187 62.0653 40.187 62.3707C40.187 62.676 39.9391 62.924 39.6339 62.924ZM36.7224 52.984C36.3703 52.984 36.0839 52.6987 36.0839 52.3453C36.0839 51.9933 36.3703 51.7067 36.7224 51.7067C37.0755 51.7067 37.361 51.9933 37.361 52.3453C37.361 52.6987 37.0755 52.984 36.7224 52.984ZM43.6947 54.9227C43.348 54.9227 43.0667 54.6413 43.0667 54.2947C43.0667 53.948 43.348 53.6667 43.6947 53.6667C44.0414 53.6667 44.3227 53.948 44.3227 54.2947C44.3227 54.6413 44.0414 54.9227 43.6947 54.9227ZM81.4467 28.9707C80.6734 28.9707 80.0467 28.3427 80.0467 27.5707C80.0467 26.7973 80.6734 26.1707 81.4467 26.1707C82.22 26.1707 82.8467 26.7973 82.8467 27.5707C82.8467 28.3427 82.22 28.9707 81.4467 28.9707ZM572.74 51.944C572.359 51.944 572.048 51.6347 572.048 51.2533C572.048 50.872 572.359 50.5627 572.74 50.5627C573.121 50.5627 573.429 50.872 573.429 51.2533C573.429 51.6347 573.121 51.944 572.74 51.944ZM607.561 34.976C607.32 34.976 607.125 34.7813 607.125 34.5413C607.125 34.3013 607.32 34.1067 607.561 34.1067C607.801 34.1067 607.996 34.3013 607.996 34.5413C607.996 34.7813 607.801 34.976 607.561 34.976ZM627.332 48.9867C627.161 48.9867 627.024 48.8493 627.024 48.6787C627.024 48.5093 627.161 48.3707 627.332 48.3707C627.501 48.3707 627.64 48.5093 627.64 48.6787C627.64 48.8493 627.501 48.9867 627.332 48.9867ZM574.933 35.9947C574.448 35.9947 574.055 35.604 574.055 35.1187C574.055 34.6347 574.448 34.2427 574.933 34.2427C575.417 34.2427 575.809 34.6347 575.809 35.1187C575.809 35.604 575.417 35.9947 574.933 35.9947ZM527.183 25.948C526.601 25.948 526.131 25.4773 526.131 24.896C526.131 24.3147 526.601 23.844 527.183 23.844C527.764 23.844 528.235 24.3147 528.235 24.896C528.235 25.4773 527.764 25.948 527.183 25.948ZM561.703 55.9067C561.328 55.9067 561.024 55.6027 561.024 55.228C561.024 54.852 561.328 54.548 561.703 54.548C562.079 54.548 562.383 54.852 562.383 55.228C562.383 55.6027 562.079 55.9067 561.703 55.9067ZM514.064 43.9533C513.528 43.9533 513.093 43.5187 513.093 42.9827C513.093 42.4467 513.528 42.012 514.064 42.012C514.6 42.012 515.035 42.4467 515.035 42.9827C515.035 43.5187 514.6 43.9533 514.064 43.9533ZM471.329 17.979C470.628 17.979 470.059 17.411 470.059 16.709C470.059 16.008 470.628 15.44 471.329 15.44C472.03 15.44 472.598 16.008 472.598 16.709C472.598 17.411 472.03 17.979 471.329 17.979ZM498.96 61.9787C498.491 61.9787 498.109 61.5973 498.109 61.1267C498.109 60.656 498.491 60.2747 498.96 60.2747C499.431 60.2747 499.812 60.656 499.812 61.1267C499.812 61.5973 499.431 61.9787 498.96 61.9787ZM516.865 70.932C516.453 70.932 516.121 70.5987 516.121 70.188C516.121 69.7787 516.453 69.4453 516.865 69.4453C517.276 69.4453 517.608 69.7787 517.608 70.188C517.608 70.5987 517.276 70.932 516.865 70.932ZM463.119 67.996C462.515 67.996 462.025 67.5067 462.025 66.9027C462.025 66.2987 462.515 65.8093 463.119 65.8093C463.723 65.8093 464.213 66.2987 464.213 66.9027C464.213 67.5067 463.723 67.996 463.119 67.996ZM534.916 93.92C534.48 93.92 534.127 93.5653 534.127 93.1293C534.127 92.6933 534.48 92.34 534.916 92.34C535.352 92.34 535.707 92.6933 535.707 93.1293C535.707 93.5653 535.352 93.92 534.916 93.92ZM447.132 68.984C446.524 68.984 446.032 68.4907 446.032 67.8827C446.032 67.276 446.524 66.7827 447.132 66.7827C447.739 66.7827 448.232 67.276 448.232 67.8827C448.232 68.4907 447.739 68.984 447.132 68.984ZM396.269 36.9733C395.589 36.9733 395.039 36.4227 395.039 35.7427C395.039 35.064 395.589 34.5133 396.269 34.5133C396.948 34.5133 397.499 35.064 397.499 35.7427C397.499 36.4227 396.948 36.9733 396.269 36.9733ZM437.027 75.9373C436.481 75.9373 436.04 75.496 436.04 74.952C436.04 74.408 436.481 73.9667 437.027 73.9667C437.571 73.9667 438.011 74.408 438.011 74.952C438.011 75.496 437.571 75.9373 437.027 75.9373ZM381.461 26.9773C380.691 26.9773 380.067 26.352 380.067 25.5827C380.067 24.812 380.691 24.1867 381.461 24.1867C382.232 24.1867 382.856 24.812 382.856 25.5827C382.856 26.352 382.232 26.9773 381.461 26.9773ZM466.496 46.8933C465.727 46.8933 465.104 46.2707 465.104 45.5027C465.104 44.7333 465.727 44.1107 466.496 44.1107C467.264 44.1107 467.887 44.7333 467.887 45.5027C467.887 46.2707 467.264 46.8933 466.496 46.8933ZM430.388 10.98C429.676 10.98 429.099 10.403 429.099 9.691C429.099 8.98 429.676 8.403 430.388 8.403C431.099 8.403 431.676 8.98 431.676 9.691C431.676 10.403 431.099 10.98 430.388 10.98ZM550.773 60.98C550.413 60.98 550.121 60.6893 550.121 60.3293C550.121 59.9693 550.413 59.6773 550.773 59.6773C551.133 59.6773 551.425 59.9693 551.425 60.3293C551.425 60.6893 551.133 60.98 550.773 60.98ZM556.008 33.8973C555.492 33.8973 555.073 33.4787 555.073 32.9627C555.073 32.4467 555.492 32.028 556.008 32.028C556.525 32.028 556.943 32.4467 556.943 32.9627C556.943 33.4787 556.525 33.8973 556.008 33.8973ZM584.211 19.9427C583.603 19.9427 583.109 19.4493 583.109 18.8413C583.109 18.2333 583.603 17.74 584.211 17.74C584.819 17.74 585.312 18.2333 585.312 18.8413C585.312 19.4493 584.819 19.9427 584.211 19.9427ZM620.337 43.9133C620.169 43.9133 620.035 43.7773 620.035 43.6093C620.035 43.4427 620.169 43.3067 620.337 43.3067C620.505 43.3067 620.641 43.4427 620.641 43.6093C620.641 43.7773 620.505 43.9133 620.337 43.9133ZM619.152 8.95467C618.585 8.95467 618.125 8.49467 618.125 7.928C618.125 7.36133 618.585 6.90266 619.152 6.90266C619.719 6.90266 620.176 7.36133 620.176 7.928C620.176 8.49467 619.719 8.95467 619.152 8.95467ZM630.34 42.892C630.297 42.892 630.255 42.884 630.217 42.8693C630.195 42.712 630.127 42.56 630.012 42.4347C630.059 42.2987 630.188 42.2 630.34 42.2C630.532 42.2 630.687 42.3547 630.687 42.5453C630.687 42.7373 630.532 42.892 630.34 42.892ZM490.191 2.964C489.541 2.964 489.013 2.436 489.013 1.786C489.013 1.136 489.541 0.609001 490.191 0.609001C490.84 0.609001 491.368 1.136 491.368 1.786C491.368 2.436 490.84 2.964 490.191 2.964ZM475.333 51.9253C474.639 51.9253 474.076 51.3627 474.076 50.668C474.076 49.9733 474.639 49.4093 475.333 49.4093C476.028 49.4093 476.592 49.9733 476.592 50.668C476.592 51.3627 476.028 51.9253 475.333 51.9253ZM482.955 67.9733C482.432 67.9733 482.009 67.5493 482.009 67.028C482.009 66.5067 482.432 66.0827 482.955 66.0827C483.476 66.0827 483.899 66.5067 483.899 67.028C483.899 67.5493 483.476 67.9733 482.955 67.9733ZM448.039 87.888C447.475 87.888 447.017 87.432 447.017 86.868C447.017 86.3053 447.475 85.848 448.039 85.848C448.601 85.848 449.059 86.3053 449.059 86.868C449.059 87.432 448.601 87.888 448.039 87.888ZM409.883 61.904C409.413 61.904 409.032 61.524 409.032 61.0547C409.032 60.584 409.413 60.204 409.883 60.204C410.352 60.204 410.732 60.584 410.732 61.0547C410.732 61.524 410.352 61.904 409.883 61.904ZM334.281 27.934C333.604 27.934 333.055 27.386 333.055 26.709C333.055 26.033 333.604 25.484 334.281 25.484C334.957 25.484 335.506 26.033 335.506 26.709C335.506 27.386 334.957 27.934 334.281 27.934ZM311.205 31.911C310.55 31.911 310.019 31.381 310.019 30.725C310.019 30.071 310.55 29.54 311.205 29.54C311.86 29.54 312.39 30.071 312.39 30.725C312.39 31.381 311.86 31.911 311.205 31.911ZM249.303 9.89733C248.585 9.89733 248.004 9.316 248.004 8.59866C248.004 7.88133 248.585 7.3 249.303 7.3C250.02 7.3 250.601 7.88133 250.601 8.59866C250.601 9.316 250.02 9.89733 249.303 9.89733ZM299.311 17.94C298.635 17.94 298.086 17.391 298.086 16.715C298.086 16.039 298.635 15.49 299.311 15.49C299.988 15.49 300.536 16.039 300.536 16.715C300.536 17.391 299.988 17.94 299.311 17.94ZM252.333 15.9187C251.64 15.9187 251.079 15.3573 251.079 14.664C251.079 13.9707 251.64 13.4093 252.333 13.4093C253.027 13.4093 253.588 13.9707 253.588 14.664C253.588 15.3573 253.027 15.9187 252.333 15.9187ZM242.235 26.9333C241.62 26.9333 241.12 26.4347 241.12 25.82C241.12 25.2053 241.62 24.7067 242.235 24.7067C242.849 24.7067 243.348 25.2053 243.348 25.82C243.348 26.4347 242.849 26.9333 242.235 26.9333ZM306.483 57.9893C305.716 57.9893 305.095 57.368 305.095 56.6013C305.095 55.836 305.716 55.2147 306.483 55.2147C307.248 55.2147 307.869 55.836 307.869 56.6013C307.869 57.368 307.248 57.9893 306.483 57.9893ZM215.337 75.933C214.65 75.933 214.093 75.376 214.093 74.689C214.093 74.002 214.65 73.444 215.337 73.444C216.024 73.444 216.581 74.002 216.581 74.689C216.581 75.376 216.024 75.933 215.337 75.933ZM278.968 88.9387C278.435 88.9387 278.003 88.5053 278.003 87.972C278.003 87.4387 278.435 87.0053 278.968 87.0053C279.503 87.0053 279.935 87.4387 279.935 87.972C279.935 88.5053 279.503 88.9387 278.968 88.9387ZM287.011 104.909H285.063C285.168 104.469 285.564 104.143 286.036 104.143C286.509 104.143 286.905 104.469 287.011 104.909ZM300.821 79.9733C300.373 79.9733 300.011 79.6107 300.011 79.1627C300.011 78.716 300.373 78.3533 300.821 78.3533C301.269 78.3533 301.632 78.716 301.632 79.1627C301.632 79.6107 301.269 79.9733 300.821 79.9733ZM343.793 86.9787C343.375 86.9787 343.033 86.6373 343.033 86.2173C343.033 85.7973 343.375 85.456 343.793 85.456C344.213 85.456 344.555 85.7973 344.555 86.2173C344.555 86.6373 344.213 86.9787 343.793 86.9787ZM339.149 47.971C338.533 47.971 338.032 47.471 338.032 46.854C338.032 46.237 338.533 45.737 339.149 45.737C339.766 45.737 340.266 46.237 340.266 46.854C340.266 47.471 339.766 47.971 339.149 47.971ZM383.841 89.8907C383.431 89.8907 383.097 89.5573 383.097 89.1467C383.097 88.736 383.431 88.4027 383.841 88.4027C384.252 88.4027 384.585 88.736 384.585 89.1467C384.585 89.5573 384.252 89.8907 383.841 89.8907ZM325.661 92.9747C325.32 92.9747 325.044 92.6973 325.044 92.356C325.044 92.0147 325.32 91.7387 325.661 91.7387C326.003 91.7387 326.279 92.0147 326.279 92.356C326.279 92.6973 326.003 92.9747 325.661 92.9747ZM133.872 79.9013C133.463 79.9013 133.132 79.5707 133.132 79.1613C133.132 78.7533 133.463 78.4227 133.872 78.4227C134.28 78.4227 134.611 78.7533 134.611 79.1613C134.611 79.5707 134.28 79.9013 133.872 79.9013ZM187.295 42.9947C186.616 42.9947 186.067 42.4453 186.067 41.768C186.067 41.0893 186.616 40.54 187.295 40.54C187.972 40.54 188.523 41.0893 188.523 41.768C188.523 42.4453 187.972 42.9947 187.295 42.9947ZM374.107 54.9893C373.544 54.9893 373.087 54.532 373.087 53.968C373.087 53.404 373.544 52.9467 374.107 52.9467C374.671 52.9467 375.128 53.404 375.128 53.968C375.128 54.532 374.671 54.9893 374.107 54.9893ZM488.219 20.972C487.573 20.972 487.048 20.448 487.048 19.802C487.048 19.155 487.573 18.631 488.219 18.631C488.864 18.631 489.389 19.155 489.389 19.802C489.389 20.448 488.864 20.972 488.219 20.972ZM243.276 11.872C242.591 11.872 242.036 11.3173 242.036 10.6333C242.036 9.94933 242.591 9.39467 243.276 9.39467C243.96 9.39467 244.515 9.94933 244.515 10.6333C244.515 11.3173 243.96 11.872 243.276 11.872ZM122.94 70.9507C122.448 70.9507 122.049 70.552 122.049 70.06C122.049 69.568 122.448 69.1693 122.94 69.1693C123.432 69.1693 123.831 69.568 123.831 70.06C123.831 70.552 123.432 70.9507 122.94 70.9507ZM245.199 74.976C244.588 74.976 244.091 74.3133 244.091 73.4973C244.091 72.6813 244.588 72.02 245.199 72.02C245.811 72.02 246.308 72.6813 246.308 73.4973C246.308 74.3133 245.811 74.976 245.199 74.976ZM386.148 42.8773C385.532 42.8773 385.032 42.3787 385.032 41.7627C385.032 41.1467 385.532 40.648 386.148 40.648C386.764 40.648 387.263 41.1467 387.263 41.7627C387.263 42.3787 386.764 42.8773 386.148 42.8773ZM393.848 63.9413C393.431 63.9413 393.092 63.6027 393.092 63.1853C393.092 62.768 393.431 62.4293 393.848 62.4293C394.265 62.4293 394.604 62.768 394.604 63.1853C394.604 63.6027 394.265 63.9413 393.848 63.9413ZM250.164 86.928C249.559 86.928 249.068 86.2733 249.068 85.4667C249.068 84.66 249.559 84.0053 250.164 84.0053C250.769 84.0053 251.26 84.66 251.26 85.4667C251.26 86.2733 250.769 86.928 250.164 86.928ZM172.467 77.972C171.715 77.972 171.105 77.3627 171.105 76.6107C171.105 75.8587 171.715 75.2493 172.467 75.2493C173.219 75.2493 173.828 75.8587 173.828 76.6107C173.828 77.3627 173.219 77.972 172.467 77.972ZM224.095 26.9733C223.512 26.9733 223.04 26.5027 223.04 25.92C223.04 25.3387 223.512 24.8653 224.095 24.8653C224.676 24.8653 225.149 25.3387 225.149 25.92C225.149 26.5027 224.676 26.9733 224.095 26.9733ZM207.375 47.8693C206.681 47.8693 206.12 47.308 206.12 46.616C206.12 45.9227 206.681 45.3613 207.375 45.3613C208.067 45.3613 208.629 45.9227 208.629 46.616C208.629 47.308 208.067 47.8693 207.375 47.8693ZM217.208 29.9493C216.593 29.9493 216.095 29.4507 216.095 28.836C216.095 28.2213 216.593 27.7227 217.208 27.7227C217.823 27.7227 218.321 28.2213 218.321 28.836C218.321 29.4507 217.823 29.9493 217.208 29.9493ZM385.921 55.96C385.433 55.96 385.037 55.564 385.037 55.076C385.037 54.588 385.433 54.192 385.921 54.192C386.409 54.192 386.805 54.588 386.805 55.076C386.805 55.564 386.409 55.96 385.921 55.96ZM544.763 68.892C544.393 68.892 544.095 68.5933 544.095 68.2253C544.095 67.856 544.393 67.556 544.763 67.556C545.132 67.556 545.431 67.856 545.431 68.2253C545.431 68.5933 545.132 68.892 544.763 68.892ZM226.883 94.904H226.072C225.467 94.728 225.023 94.1693 225.023 93.508C225.023 92.7053 225.675 92.0547 226.477 92.0547C227.28 92.0547 227.931 92.7053 227.931 93.508C227.931 94.1693 227.488 94.728 226.883 94.904ZM273.936 94.904H272.663C272.335 94.6933 272.117 94.3267 272.117 93.908C272.117 93.256 272.647 92.7267 273.3 92.7267C273.952 92.7267 274.48 93.256 274.48 93.908C274.48 94.3267 274.264 94.6933 273.936 94.904ZM291.217 92.9173C290.6 92.9173 290.099 92.416 290.099 91.7987C290.099 91.18 290.6 90.68 291.217 90.68C291.836 90.68 292.337 91.18 292.337 91.7987C292.337 92.416 291.836 92.9173 291.217 92.9173Z" fill="white"/>
</g>
<defs>
<filter id="filter0_f_3_9" x="94" y="125" width="140" height="140" filterUnits="userSpaceOnUse" color-interpolation-filters="sRGB">
<feFlood flood-opacity="0" result="BackgroundImageFix"/>
<feBlend mode="normal" in="SourceGraphic" in2="BackgroundImageFix" result="shape"/>
<feGaussianBlur stdDeviation="10" result="effect1_foregroundBlur_3_9"/>
</filter>
<linearGradient id="paint0_linear_3_9" x1="315.5" y1="0" x2="315.5" y2="383" gradientUnits="userSpaceOnUse">
<stop stop-color="#959FFF"/>
<stop offset="0.47592" stop-color="#BC6D24"/>
<stop offset="1" stop-color="#E48149"/>
</linearGradient>
<clipPath id="clip0_3_9">
<rect width="631" height="383" fill="white"/>
</clipPath>
</defs>
</svg>
