<svg width="631" height="383" viewBox="0 0 631 383" fill="none" xmlns="http://www.w3.org/2000/svg">
<g clip-path="url(#clip0_3_18)">
<path fill-rule="evenodd" clip-rule="evenodd" d="M255.026 334.258C252.024 334.432 249.001 334.38 246.019 334.206C246.003 334.077 245.99 333.95 245.967 333.815C245.885 333.334 245.374 333.056 244.935 333.014C245.217 332.88 245.491 332.712 245.751 332.512L245.853 332.368C249.046 333.064 252.237 333.586 255.453 333.649C255.346 333.866 255.197 334.066 255.026 334.258ZM248.476 328.645C248.067 329.241 247.995 330.054 248.193 330.799C247.206 330.747 246.219 330.679 245.232 330.582L245.245 330.567C245.404 330.341 245.082 330.009 244.856 330.178C244.483 330.457 244.077 330.613 243.632 330.685C243.517 330.593 243.401 330.498 243.284 330.404C243.414 330.412 243.545 330.421 243.674 330.429C243.984 330.45 244.12 329.969 243.836 329.832C243.42 329.634 243.011 329.426 242.599 329.226C243.092 329.162 243.592 329.048 244.103 328.88C244.538 328.736 244.489 327.991 243.989 328.041C243.247 328.114 242.486 328.08 241.731 327.985C241.692 327.554 241.668 327.131 241.641 327.066C241.5 326.721 241.333 326.413 241.156 326.119C241.387 326.097 241.616 326.073 241.844 326.046C241.936 326.035 242.006 325.999 242.066 325.954C244.269 326.724 246.364 327.746 248.476 328.645ZM726.888 327.286C691.542 323.016 656.195 318.748 620.847 314.478C623.738 314.031 626.628 313.171 629.385 312.088C630.086 311.812 629.829 310.751 629.068 310.938C624.51 312.067 620.095 311.565 615.733 310.531C619.369 309.457 622.656 307.267 625.557 304.08C626.182 303.394 625.192 302.39 624.535 303.057C624.251 303.345 623.945 303.597 623.635 303.844C622.65 303.548 621.677 303.305 620.716 303.135C621.049 302.802 621.38 302.464 621.704 302.108C622.268 301.49 621.524 300.403 620.776 300.906C619.736 301.604 618.638 302.209 617.52 302.777C617.359 302.768 617.197 302.757 617.036 302.751C617.628 302.377 618.231 302.072 618.856 301.896C619.92 301.599 619.468 300.033 618.404 300.256C617.774 300.387 617.121 300.492 616.461 300.585C616.632 300.381 616.56 300.007 616.233 300.03C612.787 300.278 609.267 300.372 605.778 300.169C605.608 299.977 605.459 299.776 605.352 299.56C608.897 299.49 612.413 298.876 615.933 298.07C616.813 297.868 616.627 296.388 615.718 296.481C614.683 296.587 613.647 296.655 612.611 296.709C612.809 295.964 612.738 295.151 612.329 294.555C615.385 293.255 618.403 291.681 621.772 291.015C622.739 290.824 622.328 289.348 621.365 289.539C618.716 290.062 616.074 290.554 613.434 291.061C615.007 289.393 616.361 287.483 617.473 285.317C617.604 285.062 617.284 284.798 617.073 285.008C615.733 286.335 614.276 287.545 612.765 288.691C614.652 286.683 616.36 284.379 618.166 282.162C618.687 281.522 617.902 280.737 617.263 281.26C615.628 282.598 613.892 283.822 612.103 284.975L612.097 284.778C612.071 283.96 611.628 283.308 611.026 282.911C611.483 282.362 611.949 281.822 612.521 281.391C613.214 280.87 612.534 279.689 611.834 280.216C609.852 281.708 606.432 281.948 604.017 282.574C603.445 282.722 602.879 282.883 602.317 283.054C602.327 282.913 602.328 282.774 602.321 282.637C603.78 282.076 605.226 281.459 606.637 280.923C607.316 280.664 607.041 279.762 606.343 279.855C604.868 280.056 603.496 280.093 602.121 280.054C602.191 279.731 602.193 279.4 602.133 279.077C603.741 279.11 605.359 279.001 606.958 278.815C607.888 278.707 607.941 277.294 606.958 277.321C606.637 277.33 606.32 277.327 606.002 277.326C606.126 277.202 606.213 277.031 606.253 276.847C606.546 276.943 606.839 277.039 607.144 277.123C609.615 277.795 611.691 277.49 614.184 277.619C614.849 277.653 615.008 276.538 614.343 276.449C614.047 276.408 613.74 276.343 613.428 276.264C614.063 276.188 614.632 275.913 615.077 275.495C616.703 275.258 618.332 274.972 619.998 274.802C621.124 274.685 621.156 272.932 619.998 273.014C618.696 273.107 617.403 273.095 616.112 273.059L616.091 272.932C616.832 272.736 617.561 272.485 618.216 272.163C619.094 271.729 619.805 271 620.744 270.656C621.58 270.35 621.53 268.861 620.517 268.985C618.489 269.231 616.077 268.479 613.977 268.456C613.476 268.451 612.978 268.47 612.479 268.497C613.767 267.131 614.737 265.498 615.137 263.689L615.014 263.528C614.194 263.608 613.421 263.991 612.685 264.469C612.187 264.24 611.665 264.056 611.117 263.924C611.483 263.409 611.831 262.878 612.136 262.319C612.435 261.774 611.684 261.381 611.328 261.846C610.813 262.52 610.234 263.106 609.631 263.657C609.334 263.623 609.032 263.603 608.729 263.585C609.433 262.87 610.088 262.106 610.63 261.246C610.904 260.809 610.465 260.28 610.015 260.355C609.938 260.012 609.507 259.739 609.119 259.919C606.422 261.173 602.792 260.439 599.917 261.422C599.481 261.57 599.054 261.748 598.633 261.943C598.786 261.529 598.943 261.115 599.079 260.7C599.257 260.152 598.395 259.786 598.145 260.306C597.659 261.32 597.096 262.259 596.493 263.157C596.367 263.243 596.249 263.338 596.125 263.428C596.194 263.151 596.265 262.879 596.318 262.584C596.424 261.986 595.642 261.594 595.307 262.157L595.124 262.407C594.898 262.073 594.66 261.764 594.426 261.448C596.617 260.801 598.743 259.804 600.883 258.917C601.783 258.545 601.386 257.063 600.476 257.44C597.969 258.478 595.372 258.761 592.778 259.166C593 258.623 593.045 258.065 592.972 257.512C594.636 256.992 596.249 256.179 597.864 255.359C598.424 255.075 598.028 254.147 597.438 254.347C596.132 254.792 594.818 255.186 593.49 255.496C593.587 255.431 593.689 255.373 593.786 255.307C595.55 254.766 597.203 253.701 598.621 252.445C602.132 251.418 605.054 249.005 607.585 246.119C608.087 245.548 607.273 244.715 606.742 245.277C605.092 247.025 603.074 248.207 600.893 249.051C600.694 248.888 600.405 248.85 600.142 249.095C600.006 249.223 599.865 249.337 599.725 249.453C599.565 249.506 599.409 249.568 599.248 249.617C601.996 246.031 603.438 241.727 601.987 236.935C601.748 236.146 600.588 236.311 600.566 237.127C600.549 237.734 600.477 238.319 600.379 238.896C600.329 238.437 600.27 237.977 600.197 237.521C600.106 236.957 599.13 236.949 599.048 237.521C599.035 237.616 599.01 237.708 598.996 237.802C598.989 237.704 598.994 237.608 598.985 237.51C598.905 236.595 597.539 236.565 597.539 237.51C597.537 238.829 597.381 240.136 597.116 241.421C596.912 241.504 596.714 241.622 596.523 241.77C596.578 240.976 596.608 240.179 596.587 239.386C596.57 238.739 595.516 238.543 595.417 239.226C595.073 241.597 594.254 243.71 593.251 245.753C593.431 244.679 593.532 243.58 593.531 242.464C593.53 241.276 591.888 241.362 591.744 242.464C591.52 244.173 591.01 245.783 590.334 247.326C589.549 247.397 589.065 247.041 588.901 246.231C589.225 245.812 589.53 245.38 589.792 244.922C590.347 243.952 590.132 242.822 589.531 241.996C589.75 241.639 589.944 241.276 590.098 240.906C591.753 240.683 593.26 240.067 594.352 238.8C594.48 238.651 594.551 238.409 594.425 238.232C593.648 237.146 592.588 236.449 591.385 236.011C591.455 235.72 591.477 235.418 591.45 235.117C592.405 234.161 593.288 233.097 594.091 231.932C594.437 231.432 593.697 230.943 593.29 231.314C592.459 232.07 591.564 232.739 590.632 233.351L590.54 233.28C591.168 232.44 591.775 231.589 592.369 230.766C592.977 229.923 591.714 229.166 591.032 229.735C590.511 230.17 589.979 230.556 589.44 230.924C589.536 230.184 588.539 229.647 587.909 230.203C587.411 230.641 586.893 231.043 586.365 231.426C586.56 230.19 586.697 228.939 587.073 227.779C587.299 227.08 586.249 226.658 585.902 227.285C585.008 228.904 583.907 230.498 582.835 232.085C582.958 231.392 583.008 230.685 582.968 229.973C582.964 229.877 582.937 229.798 582.91 229.72C583.09 229.402 583.285 229.094 583.45 228.766C583.844 227.983 582.756 227.345 582.274 228.08C581.097 229.871 579.673 231.38 578.094 232.713C578.777 231.758 579.416 230.766 579.95 229.707C580.59 228.437 581.624 226.153 579.793 225.479C581.343 223.155 582.046 220.476 583.207 217.626C583.444 217.042 582.46 216.64 582.196 217.199C581.71 218.225 581.133 219.235 580.516 220.231C580.635 219.935 580.739 219.634 580.808 219.322C581.091 218.046 581.228 216.933 581.852 215.742C582.13 215.212 581.387 214.559 580.983 215.071C580.735 215.386 580.469 215.679 580.212 215.982C580.11 215.969 580.005 215.972 579.903 216.02C578.785 216.541 577.638 216.97 576.49 217.385C576.714 216.273 576.943 215.154 577.25 214.054C577.444 213.363 576.406 213.09 576.183 213.761C576.142 213.886 576.091 214.007 576.046 214.131C576.134 213.523 576.21 212.916 576.278 212.308C576.73 210.838 577.121 209.358 577.474 207.918C577.662 207.152 576.607 206.908 576.325 207.601C575.646 209.27 574.828 210.853 573.964 212.407C573.827 210.737 573.492 209.046 573.067 207.47L573.002 207.328C572.893 205.092 572.777 202.849 572.708 200.59C572.695 200.174 572.035 200.05 571.956 200.488C571.588 202.524 571.257 204.525 570.987 206.512C570.78 206.609 570.596 206.755 570.434 206.926C570.182 206.33 569.922 205.734 569.648 205.135C569.424 204.643 568.646 205 568.793 205.495C569.155 206.728 569.487 207.97 569.805 209.219C569.443 212.205 569.075 215.19 568.701 218.174C567.635 215.537 566.665 212.863 565.862 210.139C565.799 209.923 565.505 210.019 565.534 210.23C565.889 212.789 566.422 215.257 567.145 217.655C566.263 216.2 565.409 214.725 564.689 213.163C564.448 212.637 563.54 213.024 563.757 213.556C564.563 215.543 565.219 217.52 565.929 219.458C564.108 217.306 561.799 215.527 560.324 213.108C559.956 212.504 559.118 212.924 559.235 213.567C559.457 214.776 559.685 215.953 559.993 217.095C559.698 217.56 559.55 218.117 559.655 218.658L560.172 221.309C559.462 220.598 558.789 219.856 558.2 219.044C557.662 218.302 556.497 218.94 556.95 219.774C558.103 221.892 559.315 223.81 560.712 225.557C558.752 224.021 556.933 222.364 555.544 220.389C555.171 219.86 554.303 220.344 554.662 220.905C556.601 223.946 558.623 226.637 560.978 229.021C560.883 229.157 560.794 229.3 560.73 229.461C559.908 228.549 558.515 228.031 557.533 227.27C557.398 227.165 557.257 227.094 557.114 227.047C556.549 226.251 556.021 225.425 555.559 224.552C555.252 223.971 554.45 224.482 554.699 225.054C555.041 225.843 555.416 226.607 555.829 227.341C555.474 227.652 555.288 228.122 555.5 228.584L555.378 228.676C554.45 227.062 553.611 225.397 552.894 223.674C552.655 223.099 551.719 223.319 551.933 223.939C552.837 226.557 553.949 229.027 555.303 231.349C555.355 231.521 555.406 231.688 555.457 231.861C555.226 231.873 554.997 231.878 554.765 231.892C554.406 231.915 554.101 232.049 553.853 232.245C552.552 231.166 551.289 230.045 550.084 228.857C549.683 228.463 549.14 229.044 549.479 229.462C550.382 230.574 551.331 231.621 552.302 232.636C551.592 232.129 550.88 231.625 550.199 231.091C549.62 230.635 548.939 231.316 549.394 231.895C550.199 232.92 551.015 233.879 551.859 234.779C551.792 234.881 551.75 234.994 551.698 235.103C550.639 234.979 549.56 234.933 548.459 235.012C547.933 235.051 547.835 235.751 548.336 235.922C549.425 236.293 550.498 236.72 551.549 237.191C550.456 237.278 549.385 237.487 548.36 237.867C548.02 237.993 548.077 238.472 548.445 238.497C550.621 238.638 552.751 239.076 554.83 239.72L554.89 239.876C554.413 239.697 553.934 239.518 553.444 239.362C552.789 239.154 552.302 239.423 552.052 239.858C550.866 239.96 549.701 240.291 548.626 240.811C548.172 241.031 548.569 241.706 549.021 241.487C549.95 241.037 550.929 240.92 551.932 241.011C552.017 241.286 552.185 241.541 552.454 241.723L552.438 241.75C552.859 241.969 553.269 242.197 553.677 242.427C553.367 242.754 553.169 243.188 553.14 243.636L553.08 243.581C552.642 243.187 552.064 243.536 551.994 243.972C550.713 243.629 549.394 243.362 548.049 243.174C547.239 243.06 546.934 244.101 547.71 244.405C548.429 244.685 549.132 245.006 549.826 245.343C549.497 245.4 549.213 245.689 549.107 246.013C547.573 244.56 545.953 243.167 544.239 241.821C544.07 241.688 543.847 241.895 543.998 242.061C546.967 245.334 549.632 248.909 552.16 252.574C551.949 252.836 551.854 253.196 552.038 253.527C552.118 253.673 552.192 253.82 552.272 253.967C551.927 253.695 551.378 253.866 551.147 254.237C549.525 251.82 547.844 249.418 546.317 246.859C545.783 245.965 544.407 246.768 544.922 247.675C545.81 249.243 546.595 250.843 547.339 252.453C546.774 251.695 546.202 250.941 545.61 250.192C545.119 249.571 544.159 250.373 544.54 251.016C545.374 252.426 546.217 253.82 547.061 255.216C546.705 254.963 546.348 254.709 545.986 254.464C545.319 253.458 544.659 252.446 544.033 251.411C543.451 250.449 541.994 251.277 542.467 252.246C539.864 250.725 537.143 249.385 534.324 248.236C533.501 247.901 533.166 249.121 533.766 249.558C535.975 251.169 538.125 252.833 540.253 254.516C539.968 254.473 539.684 254.429 539.4 254.386C538.236 254.209 537.704 255.943 538.902 256.191C539.122 256.236 539.341 256.281 539.559 256.326L539.338 256.504C537.781 256.605 536.298 257.015 534.973 257.888C534.491 258.207 534.791 259.075 535.384 258.864C537.388 258.152 539.453 258.429 541.463 259.001C543.133 259.841 544.772 260.733 546.407 261.636C543.587 261.433 540.733 261.507 537.89 261.845C537.799 261.855 537.798 261.977 537.89 261.986C538.688 262.062 539.477 262.158 540.265 262.257C540.072 262.664 540.273 263.311 540.877 263.379C544.717 263.806 548.492 264.805 552.256 265.882C552.846 266.455 553.444 267.014 554.054 267.55C549.527 265.641 544.647 264.382 540.192 263.33C539.172 263.09 538.781 264.557 539.762 264.889C543.547 266.167 546.983 267.949 550.343 269.848C550.061 269.931 549.803 270.096 549.583 270.304C548.065 269.527 546.532 268.767 545.007 267.916C544.627 267.704 544.233 268.208 544.543 268.517C546.052 270.034 547.407 271.732 548.744 273.45C548.675 273.769 548.583 274.074 548.486 274.376C546.49 273.077 544.298 272.023 541.969 271.255C541.736 271.178 541.602 271.525 541.806 271.643C543.569 272.67 545.19 273.875 546.679 275.221C543.37 274.168 540.013 273.025 536.638 272.931C536.293 272.922 536.154 273.35 536.368 273.586C537.277 274.585 538.35 275.482 539.528 276.304C539.467 276.429 539.429 276.565 539.407 276.702C538.03 276.373 536.654 276.044 535.273 275.73C534.838 275.632 534.477 276.081 534.696 276.48C535.362 277.697 536.368 278.52 537.517 279.155C536.983 279.336 536.621 280.023 537.141 280.542C538.163 281.56 538.94 282.663 539.614 283.819C538.345 282.739 537.054 281.663 535.808 280.506C535.248 279.986 534.416 280.81 534.966 281.348C536.623 282.97 537.987 284.816 539.305 286.701C539.193 286.672 539.078 286.649 538.965 286.62C536.758 284.843 534.597 283.018 532.721 280.864C531.963 279.993 530.42 281.181 531.117 282.101C532.035 283.312 532.954 284.498 533.905 285.635C533.181 285.534 532.445 285.465 531.709 285.393C530.229 284.637 528.761 283.851 527.302 283.047C526.329 282.511 525.556 283.897 526.443 284.516C527.409 285.191 528.374 285.854 529.341 286.504C529.314 286.637 529.311 286.774 529.312 286.911C528.19 286.666 527.065 286.522 525.96 286.576L525.923 286.639C527.29 289.124 529.605 290.981 532.294 292.386C530.866 292.168 529.438 291.944 528.011 291.694C527.367 291.581 527.115 292.46 527.74 292.679C530.562 293.668 533.356 294.579 536.159 295.38C536.397 295.568 536.64 295.743 536.881 295.926C536.15 295.982 535.42 296.052 534.685 296.126C533.325 295.543 531.983 294.924 530.671 294.243C529.748 293.763 528.931 295.159 529.855 295.638C530.393 295.918 530.909 296.203 531.435 296.486C531.2 296.65 531.212 297.03 531.535 297.153C532.818 297.639 534.021 298.134 535.235 298.568C535.425 298.675 535.621 298.783 535.811 298.888L534.645 299.33L534.419 299.441C532.657 298.683 530.911 297.883 529.197 296.988C528.517 296.635 527.916 297.663 528.595 298.017C530.236 298.873 531.879 299.732 533.525 300.579C533.463 300.893 533.495 301.221 533.614 301.518C532.97 301.835 532.317 302.202 531.644 302.611C529.225 301.696 526.891 300.652 524.973 299.189C524.075 298.504 523.193 299.916 523.839 300.66C525.1 302.112 526.253 303.492 527.422 304.796C525.345 304.854 523.272 304.969 521.205 305.173C519.935 305.299 519.4 307.389 520.877 307.596C523.364 307.945 525.858 308.127 528.357 308.213C528.343 308.475 528.416 308.745 528.551 308.986C527.987 309.133 527.424 309.281 526.858 309.424C526.663 309.349 526.465 309.283 526.27 309.206C525.3 308.822 524.741 310.345 525.582 310.84C525.702 310.91 525.822 310.97 525.942 311.041C526.1 311.246 526.335 311.387 526.623 311.42C528.163 312.291 529.7 313.103 531.252 313.818C531.019 313.727 530.788 313.647 530.555 313.55C529.292 313.02 528.746 315.08 529.99 315.601C530.565 315.843 531.133 316.097 531.697 316.361C528.77 315.875 525.891 315.225 523.123 314.3C522.117 313.963 521.455 315.546 522.401 316.011C526.255 317.9 529.979 319.505 533.783 320.609C533.689 320.954 533.714 321.337 533.874 321.671C530.967 321.06 528.128 320.269 525.431 319.18C524.828 318.936 524.391 319.273 524.229 319.748L524.13 319.629L523.915 319.713C523.848 319.566 523.699 319.462 523.482 319.515C520.498 320.254 517.608 319.926 514.754 319.248C517.133 318.545 519.285 317.112 521.184 315.026C521.592 314.577 520.945 313.92 520.514 314.356C520.328 314.545 520.129 314.71 519.925 314.871C519.281 314.678 518.644 314.519 518.015 314.407C518.233 314.189 518.449 313.968 518.661 313.735C519.031 313.33 518.544 312.619 518.053 312.948C517.373 313.405 516.655 313.801 515.923 314.173C515.817 314.168 515.712 314.159 515.605 314.155C515.993 313.911 516.388 313.711 516.798 313.596C517.493 313.402 517.198 312.377 516.502 312.522C516.089 312.609 515.662 312.677 515.229 312.738C515.341 312.604 515.295 312.359 515.081 312.375C512.824 312.538 510.521 312.598 508.237 312.466C508.126 312.34 508.028 312.209 507.958 312.067C510.278 312.021 512.58 311.619 514.884 311.092C515.46 310.96 515.339 309.991 514.744 310.052C514.066 310.121 513.387 310.166 512.71 310.201C512.84 309.714 512.793 309.181 512.525 308.792C514.526 307.94 516.501 306.91 518.706 306.474C519.34 306.349 519.07 305.383 518.439 305.508C516.706 305.849 514.976 306.172 513.249 306.504C514.277 305.413 515.165 304.162 515.892 302.744C515.978 302.577 515.768 302.404 515.631 302.542C514.754 303.411 513.799 304.203 512.811 304.953C514.046 303.638 515.163 302.13 516.345 300.679C516.687 300.261 516.173 299.746 515.755 300.088C514.684 300.965 513.548 301.765 512.378 302.52L512.373 302.391C512.356 301.855 512.066 301.429 511.673 301.17C511.97 300.81 512.276 300.457 512.65 300.175C513.103 299.834 512.659 299.06 512.201 299.405C510.904 300.382 508.666 300.539 507.085 300.948C506.71 301.046 506.34 301.15 505.971 301.262C505.978 301.17 505.978 301.08 505.974 300.99C506.929 300.623 507.876 300.219 508.799 299.868C509.244 299.699 509.063 299.107 508.607 299.17C507.641 299.301 506.743 299.325 505.842 299.299C505.888 299.088 505.89 298.871 505.85 298.66C506.903 298.681 507.963 298.61 509.009 298.488C509.618 298.418 509.653 297.492 509.009 297.511C508.799 297.516 508.591 297.514 508.383 297.513C508.465 297.432 508.521 297.321 508.548 297.2C508.74 297.262 508.931 297.326 509.132 297.381C510.748 297.82 512.107 297.621 513.74 297.705C514.174 297.727 514.278 296.998 513.843 296.939C513.649 296.913 513.448 296.87 513.245 296.818C513.66 296.768 514.032 296.589 514.323 296.315C515.387 296.159 516.454 295.973 517.545 295.861C518.282 295.785 518.302 294.637 517.545 294.691C516.693 294.752 515.846 294.745 515.002 294.72L514.987 294.637C515.472 294.509 515.95 294.345 516.378 294.134C516.953 293.85 517.419 293.373 518.033 293.148C518.58 292.947 518.548 291.972 517.884 292.054C516.557 292.216 514.978 291.722 513.604 291.708C513.276 291.704 512.95 291.717 512.624 291.734C513.466 290.84 514.101 289.771 514.363 288.588L514.283 288.482C513.746 288.534 513.239 288.785 512.758 289.097C512.432 288.948 512.091 288.828 511.731 288.741C511.971 288.404 512.199 288.056 512.399 287.69C512.594 287.334 512.103 287.076 511.87 287.381C511.533 287.822 511.154 288.206 510.758 288.566C510.564 288.545 510.367 288.531 510.169 288.519C510.63 288.051 511.057 287.551 511.412 286.988C511.592 286.703 511.304 286.356 511.01 286.405C510.96 286.179 510.677 286.002 510.424 286.12C508.659 286.94 506.283 286.46 504.4 287.103C504.115 287.201 503.836 287.317 503.56 287.444C503.66 287.174 503.763 286.902 503.851 286.631C503.968 286.272 503.404 286.033 503.241 286.373C502.923 287.037 502.554 287.651 502.159 288.239L501.919 288.416C501.964 288.235 502.01 288.056 502.045 287.864C502.114 287.472 501.602 287.216 501.383 287.585L501.263 287.748C501.115 287.529 500.96 287.328 500.806 287.12C502.24 286.696 503.632 286.044 505.033 285.464C505.622 285.22 505.362 284.251 504.766 284.497C503.126 285.177 501.425 285.361 499.727 285.627C499.873 285.27 499.902 284.906 499.855 284.544C500.944 284.204 502 283.671 503.057 283.135C503.424 282.949 503.164 282.342 502.778 282.472C501.923 282.763 501.062 283.021 500.193 283.224L500.387 283.101C501.542 282.747 502.624 282.05 503.552 281.227C505.85 280.554 507.763 278.975 509.42 277.087C509.748 276.713 509.216 276.168 508.868 276.536C507.789 277.679 506.467 278.453 505.039 279.006C504.909 278.899 504.719 278.875 504.548 279.035C504.459 279.119 504.366 279.192 504.275 279.268C504.17 279.304 504.068 279.345 503.963 279.377C505.761 277.029 506.705 274.212 505.756 271.075C505.599 270.558 504.84 270.667 504.826 271.201C504.815 271.597 504.767 271.981 504.703 272.358C504.671 272.058 504.632 271.758 504.584 271.459C504.524 271.09 503.885 271.084 503.832 271.459L503.798 271.642L503.791 271.451C503.738 270.853 502.844 270.833 502.843 271.451C502.842 272.314 502.74 273.17 502.567 274.012C502.433 274.065 502.303 274.143 502.178 274.24C502.215 273.72 502.234 273.198 502.22 272.679C502.21 272.256 501.52 272.128 501.455 272.575C501.23 274.127 500.693 275.51 500.038 276.847C500.155 276.143 500.221 275.425 500.22 274.694C500.22 273.917 499.145 273.972 499.05 274.694C498.904 275.812 498.57 276.866 498.128 277.877C497.614 277.924 497.298 277.69 497.19 277.16C497.402 276.886 497.601 276.602 497.773 276.303C498.136 275.668 497.996 274.929 497.602 274.387C497.746 274.154 497.873 273.917 497.974 273.675C499.056 273.528 500.044 273.125 500.758 272.296C500.841 272.199 500.888 272.04 500.806 271.924C500.297 271.214 499.603 270.757 498.816 270.47C498.861 270.279 498.877 270.082 498.858 269.886C499.483 269.26 500.061 268.563 500.588 267.801C500.814 267.473 500.329 267.153 500.062 267.395C499.518 267.891 498.933 268.328 498.322 268.729L498.262 268.682C498.674 268.134 499.071 267.576 499.46 267.037C499.858 266.485 499.031 265.989 498.585 266.362C498.244 266.647 497.895 266.9 497.543 267.14C497.605 266.656 496.953 266.304 496.54 266.669C496.215 266.956 495.876 267.219 495.53 267.469C495.657 266.66 495.747 265.842 495.993 265.082C496.141 264.625 495.454 264.348 495.226 264.759C494.641 265.818 493.921 266.862 493.219 267.9C493.299 267.447 493.332 266.984 493.307 266.518L493.268 266.352C493.385 266.144 493.513 265.942 493.622 265.728C493.881 265.216 493.168 264.798 492.852 265.278C492.082 266.451 491.149 267.439 490.116 268.311C490.563 267.686 490.981 267.038 491.331 266.344C491.75 265.513 492.426 264.017 491.227 263.576C492.243 262.054 492.703 260.302 493.463 258.435C493.618 258.054 492.974 257.791 492.8 258.157C492.483 258.828 492.104 259.489 491.702 260.141C491.779 259.947 491.847 259.75 491.892 259.546C492.078 258.711 492.168 257.983 492.576 257.203C492.758 256.855 492.272 256.429 492.008 256.763C491.844 256.97 491.671 257.161 491.503 257.36L491.299 257.385C490.568 257.725 489.818 258.007 489.066 258.278C489.213 257.551 489.363 256.818 489.563 256.098C489.69 255.645 489.011 255.467 488.866 255.906L488.775 256.148C488.833 255.751 488.883 255.353 488.927 254.956C489.223 253.993 489.479 253.024 489.71 252.081C489.833 251.58 489.142 251.421 488.958 251.874C488.513 252.967 487.978 254.003 487.413 255.02C487.323 253.928 487.103 252.82 486.825 251.789L486.783 251.696C486.712 250.232 486.635 248.764 486.591 247.285C486.582 247.012 486.15 246.931 486.098 247.219C485.857 248.551 485.64 249.86 485.465 251.161C485.329 251.224 485.208 251.32 485.102 251.432C484.937 251.043 484.766 250.652 484.588 250.26C484.441 249.938 483.932 250.172 484.027 250.496C484.264 251.303 484.482 252.116 484.69 252.933C484.453 254.887 484.213 256.842 483.967 258.795C483.27 257.069 482.635 255.318 482.109 253.536C482.068 253.393 481.876 253.457 481.894 253.595C482.128 255.27 482.476 256.885 482.949 258.455C482.372 257.503 481.813 256.537 481.341 255.514C481.183 255.171 480.59 255.425 480.731 255.772C481.259 257.073 481.689 258.367 482.154 259.636C480.962 258.227 479.45 257.062 478.484 255.479C478.243 255.084 477.695 255.358 477.772 255.779C477.917 256.571 478.066 257.341 478.267 258.089C478.075 258.393 477.978 258.758 478.047 259.111L478.384 260.847C477.921 260.382 477.479 259.896 477.093 259.364C476.742 258.879 475.979 259.297 476.276 259.842C477.031 261.228 477.824 262.484 478.738 263.628C477.455 262.622 476.265 261.538 475.355 260.245C475.111 259.898 474.544 260.215 474.778 260.582C476.047 262.573 477.371 264.334 478.913 265.895C478.85 265.984 478.792 266.077 478.751 266.182C478.212 265.586 477.3 265.247 476.658 264.749C476.569 264.68 476.476 264.634 476.383 264.603C476.013 264.081 475.668 263.541 475.365 262.97C475.164 262.59 474.639 262.924 474.802 263.299C475.026 263.814 475.271 264.314 475.542 264.795C475.31 264.999 475.188 265.306 475.327 265.609L475.247 265.669C474.639 264.612 474.09 263.523 473.621 262.395C473.464 262.018 472.852 262.163 472.992 262.568C473.584 264.282 474.311 265.899 475.198 267.419C475.231 267.531 475.265 267.641 475.298 267.754C475.147 267.762 474.997 267.765 474.845 267.774C474.611 267.789 474.411 267.877 474.249 268.005C473.397 267.299 472.57 266.565 471.781 265.788C471.519 265.529 471.164 265.909 471.386 266.183C471.976 266.912 472.597 267.596 473.234 268.261C472.769 267.929 472.302 267.599 471.857 267.25C471.477 266.951 471.032 267.397 471.33 267.776C471.857 268.447 472.391 269.075 472.943 269.664L472.839 269.877C472.145 269.795 471.439 269.764 470.717 269.817C470.374 269.842 470.309 270.3 470.637 270.412C471.35 270.655 472.052 270.933 472.741 271.243C472.025 271.3 471.325 271.436 470.653 271.685C470.43 271.768 470.468 272.082 470.709 272.097C472.132 272.19 473.527 272.476 474.888 272.898L474.927 273C474.615 272.883 474.301 272.765 473.981 272.664C473.552 272.527 473.234 272.704 473.07 272.988C472.294 273.055 471.531 273.271 470.827 273.612C470.53 273.757 470.79 274.198 471.086 274.054C471.694 273.761 472.336 273.683 472.992 273.743C473.047 273.923 473.157 274.09 473.333 274.21L473.322 274.227C473.598 274.37 473.866 274.519 474.133 274.67C473.93 274.884 473.8 275.169 473.782 275.461L473.743 275.425C473.457 275.167 473.078 275.395 473.032 275.681C472.193 275.457 471.331 275.282 470.45 275.159C469.92 275.085 469.72 275.765 470.227 275.965C470.699 276.148 471.158 276.357 471.612 276.578C471.397 276.616 471.211 276.805 471.142 277.017C470.137 276.066 469.077 275.154 467.956 274.273C467.845 274.186 467.699 274.322 467.798 274.43C469.742 276.572 471.485 278.913 473.14 281.312C473.003 281.483 472.94 281.719 473.06 281.935C473.113 282.031 473.162 282.128 473.214 282.223C472.988 282.046 472.629 282.158 472.477 282.4C471.416 280.818 470.316 279.246 469.316 277.571C468.966 276.986 468.065 277.512 468.402 278.105C468.984 279.132 469.498 280.179 469.985 281.233C469.615 280.737 469.24 280.243 468.853 279.753C468.532 279.346 467.904 279.871 468.153 280.293C468.699 281.215 469.251 282.128 469.803 283.041C469.57 282.875 469.337 282.709 469.099 282.549C468.663 281.89 468.231 281.228 467.821 280.55C467.44 279.921 466.486 280.463 466.796 281.097C465.091 280.101 463.311 279.224 461.465 278.472C460.926 278.253 460.708 279.052 461.101 279.338C462.547 280.391 463.953 281.481 465.346 282.583C465.161 282.555 464.974 282.526 464.789 282.498C464.026 282.382 463.678 283.516 464.463 283.679C464.606 283.709 464.75 283.738 464.892 283.768L464.748 283.884C463.728 283.951 462.757 284.22 461.891 284.79C461.575 284.999 461.771 285.567 462.16 285.429C463.471 284.963 464.823 285.144 466.138 285.518C467.231 286.068 468.304 286.653 469.375 287.243C467.529 287.111 465.661 287.159 463.799 287.38V287.473C464.322 287.522 464.839 287.585 465.354 287.65C465.228 287.916 465.36 288.34 465.755 288.385C468.268 288.664 470.739 289.318 473.203 290.022C473.589 290.397 473.981 290.763 474.38 291.114C471.417 289.865 468.222 289.04 465.306 288.352C464.639 288.195 464.382 289.156 465.025 289.373C467.503 290.209 469.752 291.376 471.952 292.619C471.766 292.674 471.597 292.782 471.454 292.917C470.461 292.409 469.457 291.911 468.458 291.354C468.209 291.216 467.952 291.545 468.154 291.748C469.143 292.74 470.03 293.852 470.905 294.976C470.86 295.185 470.799 295.385 470.736 295.583C469.429 294.732 467.994 294.043 466.47 293.54C466.317 293.489 466.23 293.717 466.363 293.794C467.517 294.466 468.579 295.255 469.552 296.136C467.387 295.446 465.189 294.699 462.981 294.637C462.755 294.631 462.664 294.911 462.803 295.065C463.398 295.719 464.101 296.306 464.872 296.844L464.793 297.105C463.891 296.889 462.991 296.674 462.087 296.469C461.801 296.404 461.566 296.698 461.71 296.96C462.145 297.757 462.803 298.296 463.555 298.711C463.207 298.829 462.969 299.279 463.31 299.619C463.978 300.285 464.488 301.008 464.928 301.763C464.098 301.056 463.253 300.352 462.437 299.595C462.07 299.255 461.525 299.794 461.885 300.146C462.97 301.208 463.863 302.416 464.726 303.65L464.504 303.597C463.059 302.433 461.644 301.239 460.417 299.829C459.921 299.259 458.91 300.037 459.367 300.638C459.967 301.431 460.569 302.208 461.191 302.952C460.717 302.887 460.236 302.841 459.754 302.795C458.786 302.299 457.825 301.785 456.87 301.259C456.232 300.907 455.726 301.814 456.307 302.22C456.939 302.661 457.571 303.095 458.205 303.52L458.185 303.788C457.451 303.627 456.714 303.533 455.991 303.568L455.966 303.61C456.861 305.236 458.378 306.452 460.137 307.371C459.203 307.228 458.268 307.082 457.334 306.918C456.912 306.845 456.747 307.419 457.156 307.562C459.004 308.211 460.832 308.806 462.667 309.331C462.823 309.454 462.982 309.568 463.139 309.688C462.661 309.725 462.183 309.77 461.702 309.819C460.812 309.437 459.933 309.032 459.075 308.587C458.47 308.273 457.935 309.186 458.541 309.501C458.893 309.683 459.23 309.87 459.575 310.055C459.421 310.163 459.428 310.411 459.64 310.492C460.48 310.81 461.267 311.134 462.062 311.418C462.187 311.487 462.315 311.558 462.439 311.628L461.676 311.917L461.528 311.989C460.375 311.494 459.231 310.969 458.11 310.384C457.665 310.152 457.271 310.825 457.716 311.057C458.79 311.617 459.865 312.179 460.943 312.734C460.902 312.94 460.922 313.154 461.001 313.349C460.58 313.556 460.152 313.797 459.712 314.064C458.128 313.466 456.6 312.782 455.345 311.825C454.756 311.376 454.179 312.3 454.602 312.787C455.428 313.737 456.182 314.64 456.948 315.494C455.589 315.533 454.232 315.607 452.879 315.741C452.047 315.823 451.697 317.192 452.664 317.328C454.292 317.555 455.924 317.675 457.56 317.73C457.55 317.902 457.598 318.079 457.687 318.237C457.318 318.333 456.949 318.429 456.579 318.523C456.451 318.474 456.321 318.431 456.194 318.381C455.559 318.13 455.193 319.127 455.743 319.45L455.979 319.582C456.083 319.716 456.236 319.808 456.425 319.83C457.432 320.4 458.439 320.932 459.455 321.4C459.302 321.341 459.151 321.288 458.999 321.224C458.172 320.878 457.814 322.225 458.629 322.567C459.005 322.724 459.378 322.891 459.747 323.065C457.831 322.746 455.946 322.321 454.133 321.715C453.475 321.495 453.042 322.531 453.662 322.835C456.183 324.072 458.622 325.122 461.111 325.845C461.05 326.07 461.066 326.321 461.172 326.54C459.268 326.14 457.41 325.622 455.645 324.91C454.813 324.573 454.454 325.921 455.275 326.253C456.602 326.789 457.887 327.302 459.156 327.776C458.136 328.056 457.119 328.425 456.095 328.905C455.109 329.369 455.155 330.976 456.095 331.454C456.311 331.564 456.527 331.672 456.743 331.781C453.396 332.2 450.049 332.618 446.704 333.037C446.75 332.86 446.799 332.687 446.842 332.505C447.136 331.274 445.879 330.323 445.218 331.247L445.003 331.55C445.067 331.313 445.141 331.086 445.204 330.846C445.463 329.858 444.734 329.201 444.092 329.324C444.218 328.892 444.337 328.446 444.45 327.97C444.738 326.762 443.548 325.956 442.905 326.773C442.381 327.438 441.858 328.104 441.334 328.769C441.656 327.929 441.978 327.09 442.301 326.25C442.476 325.793 442.399 325.247 442.176 324.879C442.319 324.783 442.465 324.696 442.608 324.598C443.222 324.18 442.68 322.949 442.067 323.367C441.611 323.678 441.149 323.968 440.688 324.263C440.605 324.115 440.502 323.988 440.38 323.901C440.874 323.115 441.367 322.328 441.86 321.542C442.039 321.259 441.985 320.916 441.838 320.705C442.467 319.833 443.057 318.905 443.599 317.929C443.855 317.467 443.277 316.87 442.998 317.311C442.191 318.584 441.301 319.695 440.351 320.703C440.401 320.557 440.467 320.428 440.513 320.279C440.9 319.817 441.295 319.37 441.67 318.891C441.955 318.528 441.518 317.947 441.236 318.315C441.134 318.449 441.025 318.57 440.922 318.703C441.125 317.762 441.267 316.779 441.332 315.751C441.883 315.043 442.011 314.01 441.137 313.65C441.174 313.287 441.011 312.969 440.619 312.827C439.737 312.509 438.896 312.082 438.089 311.565C438.321 311.387 438.493 311.192 438.552 311.009C438.788 311.044 439.028 311.063 439.278 311.044C439.606 311.017 439.714 310.349 439.359 310.243L439.252 310.208C439.389 310.006 439.416 309.81 439.266 309.66C439.062 309.454 438.889 309.216 438.698 308.996C438.789 309.006 438.873 309.022 438.969 309.025C439.428 309.042 439.453 308.22 439.072 308.025C438.432 307.697 437.791 307.358 437.195 306.92C437.12 306.793 437.03 306.679 436.958 306.55C437.278 306.736 437.609 306.869 437.952 306.893C438.136 306.907 438.193 306.686 438.149 306.504C438.383 306.624 438.624 306.728 438.873 306.81C439.315 306.958 439.455 306.146 439.055 305.927C437.984 305.338 436.937 304.714 435.977 303.875C435.865 303.536 435.74 303.204 435.58 302.901C435.841 302.566 435.932 302.05 435.574 301.633C435.202 301.199 434.789 300.862 434.371 300.542C434.647 300.423 434.839 299.985 434.556 299.661C434.194 299.246 433.842 298.839 433.487 298.436C433.526 298.301 433.526 298.146 433.451 297.995C432.908 296.907 432.315 295.874 431.744 294.816C431.988 295.143 432.25 295.445 432.546 295.688C432.851 295.94 433.296 295.415 433.064 294.999C432.715 294.371 432.353 293.783 431.999 293.192C432.312 293.051 432.516 292.413 432.237 292.018C431.722 291.294 431.221 290.589 430.75 289.857C431.05 289.664 431.241 289.222 431.003 288.753C430.488 287.739 429.742 286.874 429.141 285.943C428.985 285.702 428.303 284.048 427.915 284.537L427.9 284.565C427.725 284.378 427.446 285.333 427.064 286.909C426.951 286.964 426.852 287.083 426.806 287.296C426.23 289.945 424.712 291.85 423.536 294.04C423.385 294.321 423.413 294.606 423.53 294.822C423.271 295.147 423.017 295.475 422.736 295.774C422.633 295.882 422.66 296.033 422.733 296.134C422.359 296.656 421.972 297.162 421.56 297.634C421.347 297.877 421.42 298.22 421.592 298.414C421.404 298.579 421.223 298.758 421.027 298.909C420.63 299.217 420.89 300.112 421.345 299.915C421.783 299.726 422.211 299.502 422.63 299.253C421.875 300.113 421.069 300.887 420.192 301.478C419.805 301.739 420.075 302.554 420.484 302.4L420.501 302.393C420.584 302.486 420.706 302.52 420.841 302.429C421.075 302.271 421.305 302.098 421.537 301.931C421.958 301.72 422.371 301.482 422.77 301.205C422.558 301.585 422.341 301.928 422.119 302.215C421.047 302.925 419.99 303.672 418.848 304.181C418.638 304.274 418.614 304.58 418.711 304.762L418.525 304.908C418.102 305.265 417.81 305.821 417.375 306.161C417.131 306.35 417.248 306.789 417.498 306.836C417.563 306.966 417.668 307.069 417.82 307.094C418.041 307.129 418.262 307.16 418.486 307.187C418.314 307.566 418.153 307.964 418.016 308.409C417.991 308.492 417.967 309.036 417.929 309.593C417.197 309.715 416.461 309.759 415.742 309.665C415.257 309.6 415.21 310.56 415.631 310.745C416.126 310.962 416.61 311.109 417.089 311.192C416.689 311.449 416.293 311.717 415.89 311.972C415.615 312.148 415.746 312.768 416.047 312.742C416.172 312.73 416.298 312.72 416.424 312.709C416.312 312.831 416.199 312.953 416.088 313.072C415.656 312.979 415.263 312.777 414.902 312.418C414.682 312.2 414.37 312.629 414.525 312.92C414.75 313.343 415.033 313.676 415.343 313.967C415.244 314.13 415.175 314.309 415.135 314.503C414.829 314.542 414.522 314.583 414.209 314.571C413.832 314.556 413.787 315.172 414.035 315.426C414.286 315.683 414.551 315.899 414.825 316.073C414.399 316.128 413.905 316.484 413.825 317.106C413.673 318.292 413.673 319.307 413.811 320.257L413.6 320.051C413.081 319.458 412.706 318.659 412.255 317.979C411.995 317.586 411.513 318.094 411.714 318.535C412.138 319.472 412.544 320.463 413.064 321.23C412.869 321.095 412.673 320.965 412.485 320.8C412.329 320.663 412.164 320.692 412.033 320.804C411.618 320.28 411.222 319.729 410.872 319.122C410.721 318.861 410.443 319.075 410.541 319.379C410.921 320.549 411.396 321.638 411.984 322.645C412.247 323.095 412.622 323.578 413.031 323.981C413.076 324.122 413.131 324.255 413.211 324.362C413.983 325.413 414.405 325.752 414.321 326.307C414.123 326.299 413.926 326.293 413.722 326.268C412.982 326.181 412.255 325.953 411.533 325.732C411.047 325.583 410.872 326.488 411.329 326.715C412.029 327.061 412.827 327.5 413.627 327.72C413.548 327.866 413.497 328.017 413.463 328.173C412.844 327.931 412.069 327.518 411.412 327.54C411.179 327.435 410.901 327.796 410.956 328.138C411.086 328.944 411.624 329.617 412.193 330.091C411.66 330.012 411.13 329.903 410.63 329.621L410.58 329.733C410.774 329.868 410.959 330.023 411.143 330.178C410.556 330.137 409.967 330.103 409.379 330.039C408.902 329.987 408.809 330.993 409.266 331.14C409.706 331.282 410.146 331.425 410.589 331.561C410.594 331.733 410.626 331.909 410.696 332.078C409.74 329.756 407.267 335.121 407.214 335.959C407.078 338.134 408.009 339.762 409.154 341.114C407.464 342.11 406.509 344.035 406.249 346.97C406.238 347.09 406.266 347.199 406.289 347.31C404.629 347.329 402.968 347.308 401.308 347.261C401.432 346.938 401.549 346.608 401.662 346.254C401.959 345.316 400.731 344.691 400.067 345.326C399.527 345.843 398.986 346.358 398.445 346.875C398.778 346.223 399.111 345.571 399.443 344.92C399.625 344.565 399.545 344.141 399.314 343.855C399.463 343.781 399.613 343.714 399.76 343.638C400.395 343.313 399.836 342.358 399.202 342.682C398.732 342.924 398.255 343.148 397.779 343.379C397.693 343.263 397.586 343.165 397.462 343.096C397.97 342.486 398.479 341.877 398.989 341.266C399.172 341.047 399.117 340.78 398.965 340.617C399.616 339.94 400.224 339.22 400.783 338.463C401.047 338.103 400.451 337.64 400.162 337.983C399.331 338.97 398.412 339.834 397.431 340.615C397.482 340.503 397.55 340.401 397.598 340.286C397.997 339.929 398.404 339.581 398.792 339.21C399.087 338.928 398.635 338.476 398.344 338.762C398.239 338.866 398.127 338.961 398.02 339.063C398.229 338.333 398.376 337.57 398.444 336.772C399.012 336.222 399.144 335.422 398.242 335.142C398.281 334.86 398.112 334.613 397.708 334.503C396.797 334.257 395.929 333.926 395.095 333.524C395.336 333.386 395.512 333.235 395.574 333.092C395.817 333.12 396.065 333.135 396.323 333.119C396.663 333.099 396.773 332.581 396.407 332.498L396.296 332.471C396.438 332.314 396.465 332.162 396.311 332.046C396.101 331.886 395.922 331.701 395.725 331.53C395.818 331.538 395.905 331.551 396.005 331.554C396.479 331.565 396.505 330.929 396.11 330.776C395.45 330.522 394.789 330.26 394.173 329.919C394.095 329.82 394.004 329.733 393.928 329.633C394.259 329.776 394.601 329.88 394.955 329.898C395.145 329.909 395.204 329.738 395.158 329.596C395.4 329.69 395.648 329.77 395.905 329.835C396.362 329.949 396.506 329.319 396.094 329.148C394.988 328.691 393.907 328.207 392.917 327.556C392.8 327.294 392.672 327.036 392.506 326.801C392.776 326.541 392.87 326.14 392.5 325.816C392.116 325.48 391.689 325.219 391.258 324.97C391.544 324.878 391.741 324.538 391.45 324.287C391.076 323.965 390.713 323.648 390.345 323.336C390.386 323.23 390.387 323.111 390.309 322.994C389.749 322.149 389.136 321.347 388.547 320.526C388.799 320.781 389.069 321.014 389.375 321.204C389.69 321.399 390.149 320.991 389.91 320.668C389.549 320.181 389.176 319.724 388.809 319.266C389.133 319.157 389.344 318.662 389.055 318.355C388.525 317.793 388.008 317.246 387.521 316.679C387.831 316.529 388.028 316.185 387.782 315.822C387.251 315.035 386.481 314.363 385.86 313.64C385.7 313.454 384.997 312.17 384.595 312.55L384.58 312.572C384.399 312.426 384.111 313.167 383.717 314.39C383.6 314.433 383.499 314.525 383.451 314.69C382.856 316.747 381.289 318.224 380.076 319.925C379.92 320.142 379.948 320.364 380.069 320.531C379.802 320.783 379.54 321.039 379.25 321.269C379.144 321.353 379.171 321.471 379.247 321.55C378.861 321.955 378.462 322.346 378.037 322.713C377.817 322.902 377.891 323.169 378.069 323.318C377.875 323.446 377.688 323.585 377.485 323.703C377.076 323.941 377.345 324.637 377.815 324.483C378.266 324.337 378.708 324.163 379.14 323.97C378.361 324.637 377.529 325.237 376.624 325.696C376.225 325.899 376.504 326.531 376.925 326.412L376.942 326.406C377.028 326.479 377.155 326.505 377.295 326.433C377.536 326.311 377.773 326.178 378.012 326.049C378.447 325.884 378.873 325.699 379.285 325.484C379.067 325.779 378.842 326.045 378.612 326.268C377.506 326.819 376.416 327.398 375.237 327.794C375.02 327.866 374.996 328.103 375.095 328.245L374.904 328.357C374.466 328.636 374.166 329.066 373.716 329.33C373.465 329.477 373.586 329.818 373.843 329.854C373.911 329.955 374.018 330.035 374.175 330.054C374.404 330.081 374.632 330.105 374.863 330.127C374.686 330.421 374.52 330.729 374.379 331.075C374.352 331.139 374.328 331.561 374.289 331.993C373.533 332.088 372.773 332.123 372.031 332.05C371.531 332 371.482 332.744 371.917 332.887C372.427 333.056 372.927 333.17 373.421 333.234C373.008 333.434 372.599 333.641 372.183 333.841C371.9 333.976 372.035 334.458 372.345 334.437C372.474 334.429 372.605 334.421 372.736 334.412C372.619 334.507 372.503 334.6 372.387 334.694C371.942 334.622 371.537 334.465 371.164 334.185C370.937 334.016 370.615 334.349 370.775 334.575C371.006 334.903 371.299 335.162 371.62 335.388C371.517 335.513 371.446 335.654 371.405 335.804C371.089 335.834 370.772 335.866 370.448 335.856C370.059 335.845 370.013 336.323 370.268 336.519C370.529 336.72 370.802 336.887 371.085 337.022C370.645 337.064 370.134 337.342 370.052 337.824C369.895 338.744 369.897 339.532 370.039 340.269L369.82 340.109C369.284 339.649 368.897 339.029 368.432 338.502C368.163 338.196 367.667 338.59 367.874 338.932C368.312 339.66 368.729 340.429 369.267 341.024C369.066 340.92 368.864 340.818 368.67 340.69C368.508 340.584 368.339 340.607 368.203 340.693C367.774 340.287 367.366 339.86 367.005 339.388C366.849 339.185 366.561 339.351 366.663 339.588C366.985 340.335 367.393 341.028 367.859 341.689C367.347 341.53 366.833 341.378 366.323 341.212C365.023 342.71 363.724 344.209 362.425 345.707C361.011 342.083 359.599 338.46 358.186 334.837C356.776 337.4 355.366 339.963 353.956 342.526C352.345 337.447 350.734 332.368 349.124 327.289C347.371 332.055 345.618 336.821 343.865 341.588C341.291 337.409 338.715 333.231 336.141 329.053C336.194 330.574 335.968 332.054 335.54 333.476C333.676 334.831 331.464 335.83 329.161 336.701C328.487 336.292 327.835 335.925 327.191 335.608C327.31 335.31 327.342 334.983 327.279 334.668C328.926 333.821 330.569 332.963 332.21 332.107C332.889 331.752 332.288 330.723 331.608 331.078C329.894 331.971 328.148 332.773 326.385 333.531L326.16 333.42L324.994 332.977C325.184 332.872 325.38 332.764 325.57 332.658C326.784 332.222 327.987 331.729 329.27 331.243C329.593 331.12 329.605 330.74 329.37 330.575C329.896 330.293 330.412 330.008 330.95 329.728C331.874 329.249 331.057 327.853 330.134 328.332C328.822 329.013 327.48 329.633 326.12 330.215C325.385 330.14 324.654 330.071 323.924 330.014C324.165 329.833 324.408 329.658 324.645 329.47C327.449 328.669 330.242 327.758 333.065 326.768C333.69 326.549 333.438 325.671 332.794 325.783C331.366 326.033 329.938 326.258 328.51 326.474C331.2 325.071 333.515 323.213 334.882 320.729L334.845 320.665C333.74 320.612 332.614 320.756 331.493 321.001C331.494 320.863 331.491 320.725 331.463 320.593C332.431 319.943 333.396 319.28 334.361 318.606C335.249 317.986 334.476 316.599 333.503 317.137C332.044 317.941 330.575 318.725 329.096 319.483C328.36 319.554 327.624 319.624 326.9 319.724C327.851 318.588 328.77 317.401 329.688 316.19C330.385 315.27 328.842 314.082 328.084 314.953C326.208 317.108 324.047 318.932 321.84 320.71C321.727 320.738 321.612 320.762 321.5 320.791C322.818 318.905 324.182 317.059 325.839 315.438C326.389 314.899 325.557 314.075 324.997 314.595C323.751 315.753 322.46 316.829 321.191 317.908C321.864 316.753 322.642 315.649 323.663 314.632C324.184 314.112 323.821 313.425 323.288 313.245C324.437 312.61 325.443 311.786 326.109 310.57C326.328 310.17 325.967 309.721 325.532 309.82C324.151 310.133 322.775 310.463 321.398 310.791C321.375 310.654 321.338 310.518 321.277 310.392C322.455 309.571 323.528 308.674 324.437 307.675C324.651 307.439 324.512 307.012 324.166 307.021C320.792 307.115 317.435 308.258 314.126 309.31C315.614 307.965 317.236 306.76 318.999 305.733C319.203 305.614 319.069 305.267 318.836 305.345C316.507 306.112 314.315 307.167 312.319 308.466C312.222 308.163 312.129 307.858 312.061 307.539C313.398 305.822 314.752 304.123 316.262 302.607C316.572 302.297 316.179 301.794 315.798 302.006C314.274 302.856 312.739 303.617 311.222 304.392C311.002 304.186 310.744 304.021 310.462 303.937C313.822 302.039 317.258 300.257 321.043 298.978C322.024 298.647 321.633 297.179 320.613 297.42C316.158 298.47 311.278 299.73 306.75 301.639C307.361 301.103 307.958 300.544 308.549 299.971C312.313 298.894 316.088 297.896 319.927 297.468C320.532 297.4 320.733 296.753 320.54 296.346C321.328 296.248 322.117 296.151 322.915 296.076C323.007 296.067 323.005 295.944 322.915 295.933C320.072 295.596 317.218 295.523 314.398 295.724C316.033 294.823 317.672 293.929 319.342 293.09C321.352 292.517 323.417 292.241 325.42 292.953C326.014 293.165 326.314 292.296 325.831 291.977C324.507 291.105 323.024 290.695 321.467 290.593L321.246 290.416C321.464 290.371 321.683 290.326 321.902 290.28C323.101 290.032 322.569 288.298 321.405 288.475C321.121 288.518 320.837 288.562 320.552 288.605C322.68 286.922 324.83 285.258 327.039 283.648C327.639 283.21 327.304 281.991 326.481 282.326C323.662 283.474 320.941 284.815 318.338 286.336C318.811 285.366 317.354 284.538 316.772 285.5C316.146 286.536 315.486 287.548 314.818 288.553C314.457 288.798 314.1 289.053 313.743 289.304C314.588 287.91 315.431 286.514 316.265 285.106C316.645 284.462 315.686 283.661 315.195 284.281C314.603 285.031 314.03 285.785 313.466 286.543C314.21 284.932 314.994 283.332 315.884 281.764C316.398 280.858 315.022 280.054 314.488 280.948C312.961 283.508 311.279 285.91 309.658 288.327C309.427 287.956 308.877 287.785 308.533 288.055C308.612 287.91 308.687 287.762 308.768 287.617C308.951 287.285 308.856 286.926 308.646 286.664C311.173 282.999 313.837 279.423 316.806 276.151C316.958 275.985 316.735 275.778 316.566 275.91C314.853 277.257 313.233 278.65 311.697 280.102C311.592 279.778 311.308 279.49 310.98 279.431C311.673 279.095 312.375 278.775 313.095 278.494C313.87 278.191 313.566 277.15 312.755 277.263C311.41 277.451 310.092 277.719 308.811 278.062C308.741 277.625 308.163 277.276 307.725 277.67L307.665 277.724C307.637 277.278 307.438 276.844 307.127 276.515C307.536 276.286 307.945 276.057 308.367 275.84L308.352 275.812C308.62 275.631 308.788 275.376 308.873 275.1C309.875 275.01 310.856 275.127 311.784 275.577C312.235 275.796 312.633 275.121 312.179 274.901C311.104 274.38 309.939 274.05 308.752 273.947C308.503 273.512 308.016 273.244 307.36 273.452C306.871 273.607 306.393 273.786 305.915 273.966L305.975 273.809C308.054 273.165 310.184 272.728 312.36 272.586C312.728 272.561 312.785 272.083 312.445 271.957C311.419 271.577 310.349 271.367 309.256 271.281C310.307 270.808 311.38 270.383 312.469 270.011C312.97 269.84 312.871 269.14 312.346 269.102C311.244 269.022 310.165 269.069 309.107 269.193C309.055 269.084 309.013 268.97 308.946 268.868C309.79 267.969 310.606 267.01 311.411 265.985C311.865 265.405 311.185 264.723 310.606 265.179C309.925 265.715 309.212 266.219 308.502 266.724C309.474 265.711 310.423 264.664 311.325 263.551C311.664 263.133 311.122 262.553 310.721 262.947C309.516 264.135 308.252 265.256 306.952 266.334C306.704 266.137 306.399 266.005 306.04 265.982C305.808 265.968 305.579 265.963 305.348 265.951C305.399 265.778 305.45 265.61 305.501 265.438C306.856 263.117 307.968 260.647 308.872 258.028C309.085 257.409 308.15 257.188 307.911 257.763C307.194 259.487 306.356 261.151 305.428 262.765L305.305 262.674C305.517 262.212 305.331 261.742 304.976 261.429C305.389 260.696 305.764 259.932 306.107 259.144C306.355 258.572 305.553 258.061 305.246 258.641C304.784 259.514 304.256 260.34 303.691 261.137C303.548 261.182 303.407 261.255 303.272 261.359C302.29 262.12 300.897 262.638 300.074 263.551C300.01 263.389 299.922 263.247 299.826 263.111C302.183 260.725 304.204 258.036 306.143 254.994C306.502 254.433 305.634 253.949 305.261 254.478C303.871 256.454 302.054 258.11 300.093 259.647C301.49 257.9 302.702 255.981 303.855 253.863C304.308 253.03 303.144 252.391 302.605 253.134C302.016 253.946 301.343 254.688 300.633 255.398L301.15 252.748C301.255 252.207 301.107 251.649 300.812 251.184C301.12 250.043 301.348 248.866 301.569 247.656C301.687 247.013 300.849 246.594 300.481 247.197C299.005 249.617 296.696 251.396 294.875 253.548C295.585 251.61 296.242 249.633 297.049 247.645C297.265 247.114 296.357 246.727 296.115 247.252C295.396 248.814 294.542 250.289 293.66 251.744C294.383 249.345 294.916 246.879 295.271 244.319C295.3 244.109 295.006 244.012 294.943 244.228C294.14 246.953 293.169 249.627 292.104 252.263C291.73 249.279 291.362 246.294 291 243.308C291.318 242.06 291.65 240.817 292.012 239.585C292.158 239.09 291.381 238.732 291.157 239.224C290.883 239.823 290.623 240.42 290.37 241.015C290.209 240.845 290.025 240.699 289.818 240.601C289.548 238.614 289.217 236.614 288.849 234.577C288.77 234.139 288.109 234.263 288.097 234.679C288.028 236.939 287.912 239.181 287.803 241.418L287.738 241.559C287.313 243.136 286.978 244.827 286.841 246.497C285.977 244.942 285.159 243.359 284.48 241.69C284.198 240.998 283.143 241.241 283.331 242.007C283.684 243.448 284.075 244.927 284.527 246.398C284.595 247.005 284.671 247.613 284.759 248.22C284.714 248.095 284.663 247.975 284.621 247.85C284.399 247.179 283.361 247.452 283.555 248.144C283.862 249.243 284.091 250.362 284.315 251.474C283.166 251.058 282.021 250.63 280.902 250.109C280.8 250.062 280.695 250.057 280.593 250.071C280.336 249.768 280.07 249.475 279.821 249.161C279.417 248.649 278.675 249.301 278.953 249.831C279.577 251.022 279.713 252.136 279.997 253.411C280.066 253.722 280.17 254.024 280.288 254.32C279.672 253.324 279.095 252.315 278.609 251.289C278.345 250.729 277.361 251.132 277.598 251.715C278.759 254.566 279.462 257.244 281.012 259.568C279.181 260.242 280.215 262.527 280.855 263.797C281.389 264.856 282.027 265.846 282.711 266.803C281.132 265.47 279.707 263.961 278.531 262.169C278.049 261.434 276.96 262.072 277.355 262.856C277.52 263.183 277.715 263.491 277.895 263.809C277.867 263.887 277.841 263.966 277.836 264.063C277.798 264.774 277.847 265.481 277.97 266.175C276.898 264.588 275.797 262.994 274.903 261.375C274.556 260.748 273.506 261.17 273.732 261.868C274.108 263.028 274.245 264.28 274.44 265.515C273.911 265.133 273.394 264.731 272.896 264.293C272.266 263.737 271.269 264.273 271.364 265.012C270.826 264.645 270.294 264.26 269.773 263.824C269.091 263.255 267.828 264.012 268.436 264.855C269.03 265.679 269.637 266.53 270.266 267.369L270.173 267.44C269.241 266.828 268.346 266.16 267.515 265.403C267.108 265.033 266.367 265.522 266.713 266.022C267.518 267.186 268.4 268.251 269.356 269.207C269.327 269.507 269.35 269.809 269.42 270.1C268.217 270.539 267.157 271.236 266.379 272.321C266.253 272.498 266.325 272.741 266.453 272.888C267.545 274.156 269.052 274.772 270.706 274.995C270.861 275.366 271.055 275.729 271.274 276.085C270.673 276.912 270.457 278.041 271.013 279.011C271.275 279.469 271.58 279.902 271.903 280.321C271.739 281.13 271.256 281.487 270.471 281.415C269.795 279.872 269.285 278.262 269.061 276.554C268.917 275.451 267.275 275.366 267.274 276.554C267.273 277.67 267.374 278.767 267.554 279.843C266.551 277.8 265.732 275.687 265.388 273.316C265.289 272.632 264.234 272.829 264.218 273.474C264.197 274.268 264.227 275.065 264.282 275.86C264.091 275.712 263.893 275.593 263.689 275.51C263.425 274.224 263.268 272.919 263.267 271.599C263.266 270.655 261.9 270.685 261.82 271.599C261.812 271.698 261.816 271.793 261.809 271.891C261.794 271.797 261.77 271.706 261.757 271.611C261.675 271.038 260.698 271.046 260.608 271.611C260.535 272.067 260.476 272.526 260.426 272.985C260.328 272.409 260.255 271.823 260.239 271.217C260.217 270.4 259.057 270.235 258.818 271.024C257.367 275.817 258.809 280.121 261.558 283.707C261.396 283.657 261.24 283.595 261.08 283.542C260.941 283.426 260.799 283.312 260.662 283.185C260.4 282.94 260.11 282.978 259.912 283.139C257.731 282.296 255.712 281.114 254.063 279.366C253.532 278.804 252.719 279.637 253.221 280.209C255.751 283.095 258.673 285.507 262.184 286.535C263.603 287.79 265.255 288.855 267.019 289.397C267.116 289.462 267.218 289.52 267.315 289.585C265.987 289.275 264.674 288.882 263.367 288.437C262.777 288.237 262.38 289.164 262.941 289.448C264.556 290.267 266.168 291.081 267.832 291.6C267.76 292.155 267.805 292.712 268.027 293.256C265.434 292.849 262.836 292.567 260.329 291.53C259.419 291.153 259.022 292.635 259.922 293.007C262.062 293.893 264.188 294.89 266.379 295.538C266.145 295.854 265.907 296.163 265.681 296.496L265.498 296.247C265.162 295.682 264.38 296.076 264.487 296.674C264.54 296.968 264.611 297.241 264.68 297.516C264.556 297.428 264.438 297.332 264.312 297.247C263.708 296.347 263.146 295.41 262.66 294.396C262.41 293.876 261.548 294.241 261.727 294.79C261.862 295.205 262.019 295.618 262.172 296.032C261.751 295.838 261.323 295.66 260.888 295.512C258.013 294.529 254.383 295.262 251.686 294.009C251.298 293.829 250.866 294.1 250.79 294.444C250.341 294.37 249.901 294.899 250.175 295.336C250.717 296.195 251.372 296.959 252.076 297.675C251.773 297.692 251.472 297.713 251.174 297.747C250.57 297.195 249.991 296.61 249.477 295.935C249.121 295.47 248.37 295.863 248.668 296.408C248.974 296.968 249.321 297.499 249.689 298.012C249.14 298.145 248.618 298.33 248.12 298.558C247.384 298.081 246.611 297.697 245.791 297.617L245.668 297.779C246.068 299.588 247.038 301.22 248.325 302.586C247.827 302.559 247.328 302.54 246.828 302.546C244.728 302.569 242.316 303.321 240.288 303.074C239.275 302.951 239.225 304.439 240.062 304.746C241 305.09 241.711 305.819 242.59 306.252C243.244 306.574 243.973 306.825 244.714 307.021L244.693 307.148C243.402 307.185 242.109 307.197 240.807 307.104C239.649 307.021 239.681 308.775 240.807 308.891C242.473 309.062 244.102 309.346 245.728 309.585C246.173 310.002 246.741 310.277 247.376 310.353C247.065 310.431 246.758 310.498 246.462 310.538C245.797 310.628 245.955 311.742 246.62 311.708C249.113 311.579 251.19 311.885 253.66 311.212C253.966 311.129 254.259 311.032 254.552 310.936C254.592 311.121 254.679 311.292 254.803 311.415C254.485 311.417 254.167 311.42 253.847 311.41C252.864 311.383 252.917 312.797 253.847 312.905C255.446 313.091 257.064 313.199 258.672 313.166C258.611 313.489 258.614 313.82 258.684 314.143C257.309 314.182 255.937 314.145 254.462 313.945C253.764 313.85 253.488 314.754 254.168 315.012C255.579 315.549 257.025 316.166 258.484 316.727C258.477 316.863 258.478 317.002 258.487 317.142C257.926 316.971 257.36 316.811 256.787 316.663C254.372 316.037 250.953 315.797 248.971 314.305C248.271 313.778 247.592 314.96 248.284 315.481C248.856 315.912 249.322 316.452 249.778 317.001C249.177 317.398 248.734 318.049 248.708 318.867L248.701 319.065C246.913 317.912 245.177 316.687 243.541 315.348C242.902 314.826 242.117 315.612 242.639 316.252C244.445 318.468 246.153 320.772 248.039 322.781C246.528 321.635 245.071 320.425 243.732 319.096C243.521 318.887 243.2 319.152 243.331 319.406C244.443 321.573 245.798 323.483 247.37 325.151C245.229 324.738 243.083 324.332 240.935 323.915L240.782 323.786C239.604 323.39 238.513 322.811 237.407 322.26C237.177 322.037 236.953 321.771 236.734 321.476C237.147 321.691 237.573 321.875 238.007 322.04C238.247 322.17 238.484 322.304 238.725 322.426C238.865 322.497 238.991 322.47 239.077 322.398L239.094 322.404C239.516 322.522 239.795 321.891 239.396 321.688C238.49 321.228 237.658 320.629 236.88 319.962C237.312 320.155 237.754 320.329 238.205 320.475C238.674 320.628 238.943 319.933 238.534 319.695C238.331 319.577 238.145 319.438 237.95 319.31C238.129 319.16 238.203 318.893 237.983 318.705C237.558 318.339 237.159 317.946 236.773 317.541C236.849 317.463 236.875 317.345 236.77 317.262C236.48 317.03 236.217 316.775 235.95 316.523C236.071 316.355 236.1 316.135 235.944 315.916C234.731 314.217 233.164 312.739 232.568 310.681C232.521 310.516 232.419 310.425 232.302 310.383C231.909 309.159 231.62 308.418 231.44 308.563L231.424 308.541C231.023 308.162 230.32 309.445 230.159 309.633C229.539 310.354 228.769 311.027 228.238 311.813C227.992 312.178 228.189 312.52 228.499 312.67C228.011 313.238 227.495 313.785 226.964 314.347C226.675 314.653 226.886 315.148 227.21 315.259C226.843 315.717 226.47 316.173 226.109 316.66C225.871 316.983 226.33 317.391 226.645 317.196C226.95 317.007 227.22 316.772 227.472 316.518C226.883 317.339 226.271 318.141 225.71 318.985C225.632 319.103 225.633 319.222 225.674 319.328C225.307 319.639 224.943 319.956 224.57 320.278C224.278 320.53 224.476 320.87 224.761 320.962C224.33 321.211 223.903 321.471 223.52 321.807C223.15 322.132 223.243 322.533 223.513 322.793C223.348 323.028 223.219 323.286 223.103 323.549C222.112 324.199 221.031 324.683 219.926 325.14C219.513 325.31 219.658 325.94 220.115 325.826C220.371 325.762 220.62 325.681 220.861 325.589C220.816 325.73 220.874 325.901 221.065 325.89C221.419 325.871 221.76 325.768 222.091 325.624C222.016 325.724 221.924 325.812 221.846 325.911C221.232 326.252 220.569 326.514 219.909 326.768C219.516 326.921 219.541 327.557 220.015 327.545C220.115 327.543 220.202 327.53 220.295 327.522C220.098 327.693 219.919 327.878 219.708 328.037C219.554 328.154 219.582 328.305 219.724 328.463L219.612 328.49C219.247 328.572 219.358 329.091 219.696 329.111C219.955 329.127 220.202 329.111 220.445 329.084C220.507 329.226 220.684 329.377 220.924 329.515C220.09 329.917 219.222 330.248 218.312 330.495C217.907 330.604 217.739 330.852 217.777 331.135C216.876 331.413 217.007 332.215 217.576 332.764C217.644 333.562 217.791 334.325 217.999 335.054C217.893 334.952 217.78 334.857 217.675 334.754C217.384 334.469 216.933 334.92 217.228 335.201C217.615 335.572 218.023 335.92 218.421 336.278C218.469 336.393 218.537 336.494 218.589 336.607C217.608 335.825 216.689 334.963 215.858 333.975C215.569 333.633 214.972 334.095 215.236 334.454C215.795 335.212 216.404 335.931 217.054 336.609C216.902 336.772 216.847 337.038 217.031 337.259C217.54 337.869 218.049 338.478 218.558 339.089C218.434 339.157 218.327 339.255 218.24 339.37C217.765 339.14 217.288 338.915 216.818 338.675C216.184 338.35 215.625 339.305 216.259 339.631C216.406 339.706 216.557 339.773 216.705 339.847C216.475 340.134 216.395 340.556 216.576 340.912C216.909 341.563 217.241 342.215 217.574 342.867C217.034 342.35 216.493 341.834 215.952 341.317C215.289 340.683 214.061 341.308 214.358 342.246C214.47 342.599 214.588 342.93 214.711 343.252C213.051 343.3 211.391 343.32 209.731 343.303C209.754 343.191 209.781 343.081 209.771 342.962C209.51 340.027 208.556 338.102 206.866 337.106C208.011 335.755 208.942 334.126 208.805 331.951C208.753 331.112 206.28 325.748 205.324 328.07C205.394 327.9 205.425 327.725 205.431 327.553C205.873 327.417 206.314 327.273 206.754 327.132C207.211 326.984 207.117 325.979 206.641 326.031C206.052 326.095 205.464 326.129 204.877 326.169C205.062 326.015 205.246 325.86 205.44 325.725L205.39 325.612C204.89 325.895 204.36 326.005 203.826 326.083C204.396 325.609 204.934 324.936 205.064 324.13C205.119 323.788 204.84 323.428 204.608 323.532C203.951 323.51 203.175 323.924 202.557 324.165C202.524 324.01 202.471 323.857 202.393 323.713C203.193 323.492 203.99 323.053 204.691 322.707C205.149 322.48 204.974 321.575 204.487 321.723C203.764 321.945 203.038 322.174 202.298 322.261C202.093 322.284 201.897 322.29 201.698 322.3C201.614 321.744 202.036 321.405 202.809 320.354C202.888 320.247 202.944 320.113 202.988 319.972C203.398 319.57 203.773 319.088 204.035 318.637C204.624 317.631 205.099 316.541 205.479 315.371C205.577 315.067 205.298 314.852 205.148 315.113C204.798 315.721 204.402 316.272 203.986 316.796C203.856 316.684 203.691 316.655 203.534 316.792C203.346 316.956 203.151 317.088 202.956 317.222C203.476 316.455 203.881 315.464 204.306 314.526C204.506 314.085 204.026 313.577 203.765 313.97C203.314 314.651 202.939 315.449 202.42 316.043L202.208 316.249C202.346 315.3 202.346 314.284 202.194 313.097C202.115 312.476 201.62 312.12 201.195 312.064C201.468 311.891 201.734 311.676 201.985 311.417C202.233 311.164 202.188 310.548 201.811 310.562C201.498 310.575 201.191 310.534 200.884 310.494C200.844 310.302 200.776 310.121 200.676 309.959C200.987 309.668 201.27 309.335 201.495 308.912C201.65 308.621 201.337 308.191 201.118 308.41C200.757 308.769 200.363 308.971 199.933 309.064C199.821 308.944 199.708 308.823 199.595 308.701C199.721 308.712 199.848 308.722 199.973 308.733C200.274 308.761 200.405 308.139 200.13 307.965C199.727 307.709 199.33 307.441 198.932 307.183C199.409 307.101 199.894 306.954 200.388 306.737C200.81 306.553 200.762 305.593 200.278 305.656C199.559 305.751 198.822 305.706 198.09 305.584C198.052 305.028 198.029 304.484 198.003 304.4C197.866 303.956 197.705 303.558 197.534 303.179C197.757 303.151 197.979 303.12 198.2 303.085C198.352 303.061 198.456 302.958 198.522 302.828C198.772 302.781 198.888 302.343 198.645 302.152C198.209 301.812 197.918 301.258 197.495 300.899L197.309 300.754C197.405 300.572 197.382 300.266 197.172 300.173C196.03 299.663 194.973 298.917 193.901 298.207C193.678 297.92 193.461 297.577 193.249 297.197C193.649 297.474 194.062 297.711 194.483 297.924C194.714 298.091 194.944 298.263 195.178 298.421C195.314 298.512 195.436 298.478 195.519 298.385L195.535 298.392C195.944 298.545 196.215 297.731 195.828 297.47C194.95 296.878 194.145 296.105 193.39 295.245C193.809 295.494 194.236 295.718 194.674 295.907C195.129 296.103 195.39 295.209 194.993 294.901C194.797 294.749 194.616 294.571 194.427 294.406C194.6 294.213 194.672 293.869 194.459 293.625C194.048 293.153 193.661 292.648 193.287 292.126C193.36 292.025 193.386 291.874 193.284 291.765C193.003 291.468 192.748 291.138 192.489 290.814C192.607 290.598 192.634 290.312 192.484 290.032C191.308 287.842 189.79 285.937 189.214 283.287C189.167 283.074 189.068 282.956 188.956 282.901C188.574 281.324 188.295 280.369 188.12 280.557L188.105 280.528C187.716 280.039 187.035 281.694 186.879 281.934C186.277 282.865 185.532 283.731 185.017 284.745C184.779 285.214 184.969 285.656 185.27 285.848C184.798 286.581 184.298 287.285 183.783 288.011C183.504 288.405 183.707 289.043 184.022 289.184C183.667 289.775 183.304 290.363 182.955 290.991C182.724 291.406 183.169 291.932 183.474 291.68C183.77 291.437 184.032 291.136 184.276 290.807C183.705 291.865 183.111 292.899 182.568 293.987C182.493 294.138 182.494 294.293 182.533 294.428C182.177 294.83 181.826 295.238 181.464 295.653C181.181 295.977 181.373 296.415 181.649 296.534C181.231 296.854 180.818 297.191 180.446 297.624C180.088 298.042 180.178 298.558 180.44 298.892C180.28 299.196 180.155 299.528 180.043 299.867C179.083 300.705 178.035 301.329 176.964 301.919C176.565 302.137 176.704 302.95 177.147 302.803C177.396 302.72 177.636 302.616 177.871 302.496C177.826 302.679 177.883 302.898 178.068 302.886C178.41 302.86 178.741 302.728 179.062 302.542C178.989 302.672 178.9 302.784 178.824 302.911C178.229 303.35 177.588 303.689 176.948 304.016C176.567 304.213 176.591 305.033 177.05 305.017C177.148 305.014 177.232 304.998 177.321 304.987C177.131 305.208 176.957 305.446 176.753 305.651C176.604 305.802 176.631 305.997 176.768 306.2L176.66 306.235C176.306 306.342 176.413 307.01 176.742 307.035C176.992 307.055 177.232 307.036 177.467 307C177.527 307.184 177.698 307.378 177.931 307.556C177.123 308.074 176.282 308.501 175.401 308.818C175.008 308.96 174.845 309.279 174.882 309.642C174.008 310.002 174.136 311.035 174.688 311.743C174.753 312.771 174.896 313.755 175.097 314.694C174.995 314.562 174.885 314.44 174.783 314.306C174.502 313.938 174.065 314.52 174.35 314.884C174.726 315.361 175.12 315.809 175.506 316.271C175.552 316.419 175.618 316.55 175.668 316.694C174.718 315.687 173.828 314.576 173.022 313.304C172.742 312.861 172.164 313.459 172.421 313.921C172.962 314.897 173.552 315.824 174.182 316.697C174.035 316.908 173.981 317.25 174.159 317.534C174.652 318.32 175.146 319.106 175.639 319.892C175.518 319.98 175.415 320.107 175.331 320.256C174.871 319.959 174.408 319.669 173.953 319.359C173.339 318.941 172.797 320.173 173.411 320.591C173.554 320.688 173.7 320.774 173.843 320.87C173.621 321.239 173.543 321.785 173.718 322.241C174.041 323.082 174.363 323.922 174.686 324.762C174.162 324.096 173.638 323.43 173.114 322.764C172.471 321.948 171.282 322.753 171.569 323.961C171.683 324.438 171.801 324.885 171.927 325.316C171.285 325.192 170.557 325.85 170.816 326.839C170.878 327.078 170.953 327.304 171.017 327.542L170.801 327.239C170.141 326.315 168.883 327.265 169.177 328.497C169.22 328.679 169.27 328.851 169.316 329.028C165.97 328.61 162.623 328.191 159.277 327.773C159.492 327.664 159.709 327.555 159.924 327.446C160.865 326.969 160.911 325.361 159.924 324.897C158.901 324.417 157.883 324.048 156.863 323.767C158.132 323.294 159.417 322.78 160.745 322.244C161.566 321.913 161.207 320.565 160.375 320.901C158.61 321.614 156.751 322.133 154.848 322.531C154.953 322.313 154.969 322.062 154.908 321.837C157.398 321.114 159.836 320.063 162.358 318.827C162.978 318.522 162.545 317.487 161.886 317.707C160.073 318.312 158.189 318.738 156.273 319.056C156.642 318.884 157.014 318.717 157.391 318.558C158.205 318.218 157.848 316.87 157.021 317.216C156.868 317.28 156.717 317.332 156.565 317.391C157.58 316.924 158.587 316.392 159.594 315.822C159.783 315.8 159.937 315.708 160.04 315.574L160.277 315.442C160.826 315.118 160.46 314.122 159.826 314.373C159.698 314.423 159.568 314.467 159.441 314.515C159.071 314.422 158.702 314.325 158.333 314.229C158.421 314.071 158.469 313.894 158.46 313.722C160.095 313.666 161.728 313.548 163.356 313.319C164.323 313.184 163.972 311.815 163.141 311.733C161.788 311.599 160.431 311.524 159.072 311.486C159.838 310.633 160.591 309.729 161.417 308.779C161.84 308.292 161.263 307.368 160.674 307.816C159.419 308.773 157.892 309.458 156.308 310.056C155.867 309.788 155.44 309.548 155.019 309.341C155.097 309.146 155.118 308.931 155.076 308.725C156.155 308.172 157.23 307.609 158.303 307.05C158.749 306.817 158.355 306.143 157.91 306.376C156.788 306.961 155.646 307.485 154.492 307.981L154.343 307.908L153.58 307.619C153.705 307.55 153.833 307.479 153.958 307.41C154.752 307.125 155.54 306.802 156.38 306.483C156.591 306.403 156.599 306.154 156.445 306.047C156.789 305.861 157.127 305.676 157.479 305.492C158.084 305.179 157.549 304.264 156.945 304.578C156.086 305.024 155.208 305.429 154.318 305.81C153.837 305.762 153.359 305.717 152.881 305.679C153.038 305.56 153.197 305.446 153.353 305.323C155.188 304.799 157.016 304.202 158.863 303.554C159.273 303.411 159.108 302.836 158.686 302.91C157.752 303.073 156.817 303.22 155.882 303.363C157.642 302.443 159.158 301.227 160.053 299.601L160.029 299.559C159.305 299.525 158.568 299.619 157.835 299.779L157.815 299.512C158.449 299.088 159.08 298.653 159.712 298.212C160.293 297.806 159.787 296.898 159.15 297.25C158.195 297.777 157.234 298.29 156.266 298.786C155.784 298.833 155.302 298.878 154.828 298.944C155.451 298.2 156.052 297.424 156.653 296.631C157.11 296.029 156.1 295.251 155.603 295.821C154.375 297.231 152.961 298.426 151.516 299.589L151.293 299.642C152.156 298.408 153.049 297.2 154.134 296.138C154.494 295.786 153.949 295.246 153.582 295.587C152.767 296.345 151.922 297.049 151.091 297.755C151.532 296.999 152.041 296.276 152.71 295.61C153.05 295.27 152.813 294.821 152.464 294.703C153.216 294.287 153.874 293.748 154.31 292.952C154.454 292.69 154.218 292.396 153.933 292.461C153.028 292.666 152.128 292.882 151.227 293.096L151.148 292.836C151.919 292.299 152.621 291.711 153.216 291.056C153.356 290.903 153.265 290.623 153.039 290.629C150.83 290.69 148.632 291.438 146.467 292.128C147.441 291.247 148.503 290.458 149.656 289.786C149.79 289.708 149.702 289.481 149.549 289.531C148.026 290.034 146.59 290.724 145.284 291.574C145.22 291.377 145.16 291.178 145.115 290.968C145.99 289.844 146.877 288.732 147.865 287.74C148.068 287.537 147.811 287.207 147.562 287.345C146.564 287.903 145.559 288.4 144.566 288.908C144.422 288.773 144.253 288.665 144.068 288.61C146.268 287.368 148.517 286.201 150.994 285.365C151.637 285.148 151.381 284.186 150.713 284.345C147.797 285.032 144.603 285.857 141.639 287.106C142.039 286.756 142.43 286.389 142.817 286.014C145.28 285.309 147.751 284.656 150.264 284.376C150.66 284.332 150.792 283.908 150.665 283.641C151.181 283.577 151.697 283.514 152.22 283.465V283.372C150.359 283.15 148.491 283.102 146.645 283.235C147.715 282.644 148.788 282.06 149.881 281.511C151.197 281.136 152.548 280.955 153.86 281.421C154.249 281.559 154.444 280.99 154.129 280.782C153.262 280.211 152.291 279.942 151.272 279.876L151.127 279.76C151.27 279.73 151.414 279.701 151.557 279.671C152.341 279.509 151.993 278.374 151.231 278.489C151.045 278.517 150.86 278.547 150.673 278.575C152.067 277.472 153.473 276.384 154.919 275.33C155.312 275.043 155.093 274.245 154.554 274.465C152.708 275.216 150.928 276.094 149.224 277.089C149.533 276.454 148.58 275.913 148.199 276.542C147.789 277.22 147.357 277.882 146.921 278.54C146.683 278.701 146.45 278.867 146.216 279.032C146.769 278.119 147.321 277.206 147.867 276.284C148.116 275.863 147.488 275.338 147.167 275.744C146.779 276.235 146.404 276.728 146.035 277.224C146.522 276.171 147.035 275.123 147.617 274.096C147.954 273.504 147.053 272.977 146.704 273.562C145.704 275.238 144.604 276.81 143.542 278.392C143.391 278.149 143.031 278.038 142.806 278.215C142.858 278.119 142.907 278.022 142.96 277.928C143.079 277.711 143.017 277.475 142.88 277.304C144.534 274.905 146.277 272.564 148.222 270.423C148.32 270.313 148.174 270.179 148.064 270.265C146.943 271.146 145.882 272.058 144.877 273.01C144.809 272.797 144.623 272.608 144.407 272.57C144.861 272.349 145.321 272.14 145.792 271.956C146.299 271.758 146.1 271.076 145.57 271.15C144.689 271.273 143.826 271.448 142.988 271.674C142.942 271.387 142.564 271.159 142.277 271.417L142.237 271.453C142.219 271.16 142.089 270.876 141.886 270.661C142.153 270.512 142.422 270.361 142.697 270.219L142.687 270.201C142.862 270.082 142.973 269.915 143.028 269.735C143.684 269.676 144.326 269.752 144.934 270.047C145.23 270.19 145.489 269.748 145.193 269.604C144.489 269.263 143.726 269.047 142.949 268.98C142.786 268.695 142.467 268.519 142.038 268.656C141.718 268.758 141.405 268.875 141.092 268.992L141.131 268.889C142.492 268.469 143.887 268.182 145.311 268.089C145.552 268.073 145.589 267.76 145.366 267.678C144.695 267.429 143.995 267.291 143.279 267.235C143.967 266.926 144.669 266.647 145.382 266.403C145.711 266.292 145.646 265.834 145.302 265.808C144.581 265.757 143.874 265.787 143.181 265.868L143.076 265.655C143.629 265.066 144.163 264.439 144.69 263.768C144.987 263.388 144.542 262.943 144.163 263.241C143.717 263.592 143.25 263.921 142.786 264.253C143.422 263.589 144.043 262.903 144.633 262.175C144.856 261.901 144.5 261.521 144.238 261.78C143.449 262.556 142.622 263.291 141.771 263.997C141.609 263.868 141.409 263.781 141.174 263.766C141.023 263.757 140.872 263.754 140.721 263.746C140.755 263.633 140.788 263.523 140.821 263.411C141.708 261.891 142.436 260.274 143.027 258.56C143.167 258.155 142.555 258.011 142.399 258.387C141.929 259.514 141.381 260.604 140.773 261.661L140.693 261.6C140.832 261.298 140.71 260.991 140.478 260.787C140.748 260.306 140.993 259.806 141.217 259.291C141.38 258.916 140.856 258.582 140.654 258.962C140.352 259.533 140.006 260.073 139.637 260.595C139.543 260.625 139.45 260.672 139.362 260.741C138.719 261.238 137.808 261.578 137.269 262.175C137.228 262.069 137.17 261.976 137.107 261.887C138.649 260.326 139.972 258.565 141.242 256.574C141.476 256.207 140.908 255.89 140.665 256.237C139.755 257.529 138.565 258.614 137.282 259.62C138.196 258.476 138.989 257.22 139.744 255.834C140.041 255.288 139.278 254.87 138.926 255.356C138.54 255.888 138.1 256.374 137.635 256.839L137.973 255.103C138.042 254.75 137.945 254.385 137.752 254.08C137.953 253.333 138.103 252.562 138.248 251.771C138.325 251.349 137.777 251.075 137.535 251.47C136.569 253.054 135.058 254.219 133.866 255.627C134.331 254.359 134.76 253.064 135.289 251.764C135.43 251.416 134.836 251.163 134.678 251.507C134.207 252.529 133.648 253.494 133.07 254.447C133.544 252.877 133.892 251.262 134.125 249.587C134.144 249.449 133.952 249.386 133.91 249.527C133.385 251.31 132.749 253.06 132.052 254.787C131.807 252.834 131.567 250.88 131.329 248.925C131.538 248.108 131.755 247.295 131.992 246.488C132.088 246.163 131.579 245.929 131.432 246.252C131.253 246.643 131.083 247.034 130.917 247.424C130.812 247.312 130.691 247.217 130.556 247.153C130.379 245.852 130.163 244.543 129.922 243.21C129.87 242.924 129.438 243.005 129.429 243.276C129.384 244.756 129.308 246.223 129.237 247.687L129.194 247.78C128.916 248.811 128.697 249.919 128.607 251.012C128.042 249.995 127.506 248.959 127.062 247.866C126.877 247.413 126.187 247.572 126.31 248.073C126.541 249.016 126.797 249.984 127.092 250.947C127.137 251.345 127.187 251.743 127.244 252.14L127.154 251.897C127.008 251.459 126.329 251.637 126.456 252.091C126.657 252.809 126.807 253.542 126.954 254.27C126.202 253.998 125.452 253.718 124.72 253.377L124.517 253.351C124.349 253.153 124.175 252.962 124.012 252.756C123.748 252.421 123.262 252.847 123.444 253.194C123.852 253.974 123.942 254.703 124.127 255.538C124.173 255.742 124.24 255.939 124.318 256.134C123.915 255.481 123.537 254.82 123.219 254.148C123.046 253.783 122.402 254.046 122.557 254.428C123.317 256.294 123.777 258.047 124.792 259.568C123.593 260.01 124.27 261.505 124.689 262.336C125.039 263.029 125.456 263.678 125.903 264.304C124.87 263.43 123.938 262.443 123.168 261.27C122.852 260.79 122.139 261.207 122.398 261.72C122.506 261.934 122.634 262.137 122.752 262.345L122.713 262.511C122.688 262.975 122.72 263.438 122.8 263.892C122.099 262.853 121.379 261.81 120.793 260.751C120.566 260.34 119.879 260.616 120.027 261.073C120.273 261.833 120.362 262.652 120.49 263.461C120.144 263.21 119.805 262.947 119.48 262.66C119.067 262.297 118.414 262.648 118.477 263.132C118.124 262.891 117.776 262.638 117.435 262.354C116.989 261.981 116.162 262.477 116.56 263.029C116.948 263.567 117.346 264.125 117.757 264.675L117.697 264.721C117.087 264.32 116.501 263.883 115.957 263.387C115.691 263.145 115.206 263.465 115.432 263.793C115.959 264.554 116.536 265.251 117.162 265.877C117.143 266.073 117.158 266.271 117.204 266.462C116.417 266.749 115.723 267.205 115.214 267.916C115.131 268.031 115.178 268.19 115.262 268.287C115.976 269.117 116.963 269.52 118.046 269.666C118.147 269.908 118.274 270.146 118.418 270.38C118.024 270.921 117.883 271.66 118.247 272.295C118.419 272.595 118.618 272.878 118.83 273.152C118.722 273.681 118.406 273.915 117.892 273.868C117.449 272.858 117.115 271.804 116.969 270.686C116.874 269.965 115.799 269.908 115.799 270.686C115.798 271.417 115.864 272.136 115.983 272.839C115.326 271.502 114.79 270.119 114.565 268.567C114.5 268.119 113.81 268.248 113.799 268.671C113.785 269.19 113.805 269.712 113.841 270.232C113.716 270.135 113.587 270.057 113.452 270.003C113.28 269.162 113.177 268.306 113.176 267.443C113.175 266.825 112.281 266.845 112.23 267.443L112.222 267.635L112.188 267.451C112.134 267.076 111.495 267.081 111.436 267.451C111.388 267.75 111.35 268.05 111.317 268.35C111.253 267.973 111.205 267.59 111.194 267.193C111.18 266.658 110.421 266.551 110.264 267.066C109.315 270.204 110.258 273.021 112.057 275.368C111.952 275.336 111.85 275.295 111.745 275.261C111.653 275.184 111.561 275.11 111.472 275.027C111.3 274.866 111.11 274.891 110.981 274.997C109.552 274.445 108.231 273.671 107.152 272.527C106.804 272.159 106.272 272.704 106.6 273.079C108.256 274.967 110.17 276.547 112.467 277.22C113.396 278.041 114.478 278.738 115.632 279.093L115.826 279.216C114.957 279.013 114.097 278.756 113.242 278.465C112.856 278.334 112.596 278.94 112.963 279.127C114.02 279.663 115.075 280.195 116.165 280.535C116.117 280.898 116.147 281.262 116.292 281.619C114.595 281.352 112.894 281.169 111.253 280.489C110.658 280.242 110.398 281.212 110.986 281.456C112.388 282.036 113.779 282.688 115.213 283.112C115.06 283.319 114.904 283.521 114.756 283.74L114.637 283.577C114.417 283.207 113.905 283.465 113.975 283.856C114.009 284.049 114.056 284.227 114.101 284.407L113.86 284.231C113.465 283.642 113.097 283.028 112.779 282.365C112.615 282.024 112.051 282.263 112.168 282.623C112.256 282.894 112.36 283.166 112.46 283.436C112.184 283.308 111.904 283.192 111.619 283.095C109.737 282.452 107.361 282.931 105.596 282.111C105.342 281.994 105.06 282.172 105.009 282.397C104.715 282.347 104.427 282.694 104.608 282.98C104.962 283.543 105.39 284.043 105.851 284.512C105.653 284.522 105.456 284.536 105.261 284.558C104.866 284.198 104.487 283.814 104.15 283.373C103.917 283.068 103.425 283.325 103.621 283.682C103.821 284.048 104.048 284.395 104.288 284.732C103.929 284.819 103.588 284.94 103.262 285.09C102.78 284.777 102.274 284.526 101.737 284.473L101.656 284.579C101.918 285.763 102.553 286.832 103.396 287.726C103.07 287.709 102.743 287.696 102.416 287.7C101.042 287.715 99.463 288.207 98.135 288.046C97.472 287.965 97.44 288.939 97.987 289.139C98.601 289.365 99.067 289.843 99.642 290.126C100.07 290.337 100.548 290.501 101.032 290.63L101.018 290.713C100.173 290.736 99.327 290.744 98.475 290.683C97.717 290.63 97.738 291.777 98.475 291.853C99.566 291.965 100.632 292.151 101.696 292.306C101.987 292.58 102.36 292.761 102.775 292.81C102.571 292.861 102.371 292.905 102.176 292.93C101.742 292.99 101.845 293.72 102.28 293.697C103.912 293.612 105.272 293.812 106.888 293.372C107.089 293.317 107.28 293.255 107.472 293.192C107.498 293.312 107.555 293.425 107.636 293.506C107.428 293.506 107.22 293.508 107.01 293.502C106.367 293.484 106.402 294.409 107.01 294.48C108.057 294.601 109.116 294.674 110.169 294.651C110.129 294.863 110.131 295.08 110.177 295.291C109.277 295.316 108.379 295.292 107.413 295.161C106.956 295.099 106.776 295.69 107.22 295.859C108.144 296.211 109.09 296.615 110.046 296.982C110.041 297.071 110.042 297.162 110.048 297.254C109.68 297.142 109.31 297.038 108.935 296.94C107.354 296.53 105.116 296.374 103.819 295.397C103.36 295.052 102.916 295.825 103.369 296.167C103.744 296.448 104.049 296.802 104.347 297.161C103.954 297.421 103.664 297.847 103.647 298.383L103.642 298.512C102.472 297.758 101.336 296.956 100.265 296.08C99.847 295.738 99.333 296.253 99.674 296.671C100.857 298.122 101.974 299.63 103.209 300.945C102.22 300.194 101.266 299.402 100.389 298.533C100.252 298.396 100.042 298.569 100.127 298.736C100.855 300.154 101.742 301.405 102.771 302.496C101.044 302.164 99.314 301.842 97.581 301.499C96.95 301.375 96.681 302.341 97.314 302.466C99.519 302.902 101.494 303.931 103.495 304.783C103.227 305.174 103.18 305.705 103.31 306.192C102.632 306.157 101.954 306.113 101.276 306.044C100.681 305.983 100.56 306.952 101.135 307.084C103.44 307.611 105.741 308.012 108.062 308.058C107.992 308.2 107.894 308.332 107.782 308.457C105.499 308.59 103.195 308.529 100.939 308.367C100.725 308.351 100.678 308.596 100.79 308.729C100.358 308.669 99.931 308.6 99.518 308.514C98.822 308.368 98.527 309.394 99.222 309.589C99.631 309.703 100.027 309.902 100.414 310.147C100.308 310.151 100.202 310.159 100.097 310.165C99.365 309.793 98.647 309.397 97.966 308.939C97.476 308.61 96.989 309.322 97.359 309.727C97.57 309.96 97.787 310.18 98.005 310.398C97.376 310.511 96.739 310.67 96.094 310.862C95.891 310.702 95.692 310.537 95.506 310.348C95.075 309.911 94.427 310.568 94.836 311.017C96.735 313.103 98.886 314.537 101.266 315.24C98.411 315.918 95.522 316.245 92.538 315.507C92.321 315.453 92.172 315.558 92.105 315.705L91.89 315.621L91.791 315.739C91.628 315.265 91.192 314.929 90.588 315.172C87.892 316.261 85.052 317.053 82.146 317.663C82.306 317.328 82.331 316.945 82.237 316.6C86.04 315.497 89.765 313.891 93.618 312.002C94.566 311.538 93.903 309.955 92.897 310.291C90.128 311.217 87.249 311.866 84.322 312.353C84.886 312.089 85.455 311.834 86.03 311.593C87.274 311.071 86.728 309.012 85.464 309.542C85.232 309.639 85.001 309.72 84.768 309.809C86.319 309.095 87.857 308.283 89.397 307.412C89.685 307.378 89.919 307.237 90.077 307.032C90.198 306.963 90.318 306.902 90.438 306.831C91.278 306.337 90.719 304.814 89.75 305.198C89.555 305.274 89.357 305.342 89.162 305.416C88.596 305.272 88.033 305.125 87.468 304.978C87.604 304.737 87.676 304.467 87.663 304.204C90.161 304.118 92.656 303.937 95.143 303.589C96.62 303.382 96.084 301.291 94.815 301.165C92.747 300.961 90.674 300.846 88.598 300.787C89.767 299.484 90.919 298.103 92.181 296.651C92.827 295.907 91.945 294.496 91.047 295.181C89.128 296.644 86.795 297.688 84.376 298.603C83.702 298.194 83.049 297.827 82.405 297.511C82.525 297.213 82.557 296.886 82.494 296.571C84.141 295.723 85.783 294.865 87.424 294.01C88.104 293.655 87.503 292.626 86.823 292.98C85.109 293.875 83.363 294.676 81.601 295.433L81.374 295.322L80.208 294.881C80.399 294.774 80.594 294.667 80.785 294.56C81.998 294.125 83.202 293.632 84.485 293.145C84.808 293.022 84.82 292.642 84.585 292.478C85.11 292.195 85.626 291.91 86.165 291.631C87.089 291.151 86.272 289.756 85.349 290.234C84.036 290.916 82.694 291.535 81.335 292.117C80.6 292.043 79.869 291.973 79.139 291.918C79.379 291.735 79.623 291.56 79.86 291.372C82.664 290.571 85.457 289.66 88.279 288.671C88.905 288.451 88.653 287.573 88.008 287.685C86.581 287.935 85.153 288.16 83.726 288.377C86.414 286.973 88.73 285.116 90.097 282.632L90.06 282.567C88.954 282.514 87.829 282.658 86.708 282.903C86.709 282.765 86.706 282.629 86.678 282.495C87.646 281.845 88.61 281.182 89.576 280.509C90.464 279.888 89.691 278.502 88.717 279.039C87.258 279.844 85.79 280.628 84.311 281.386C83.575 281.456 82.839 281.526 82.115 281.627C83.066 280.49 83.985 279.304 84.902 278.093C85.6 277.173 84.057 275.984 83.298 276.855C81.423 279.011 79.262 280.835 77.055 282.612C76.942 282.64 76.827 282.664 76.714 282.693C78.032 280.807 79.397 278.962 81.054 277.341C81.604 276.802 80.772 275.977 80.211 276.498C78.965 277.655 77.674 278.731 76.405 279.81C77.079 278.655 77.857 277.552 78.878 276.534C79.399 276.014 79.036 275.328 78.503 275.147C79.652 274.512 80.657 273.688 81.323 272.472C81.543 272.072 81.182 271.623 80.747 271.722C79.365 272.035 77.989 272.365 76.613 272.694C76.59 272.556 76.552 272.421 76.492 272.295C77.669 271.473 78.743 270.576 79.652 269.577C79.866 269.342 79.727 268.914 79.381 268.924C76.006 269.017 72.65 270.16 69.34 271.213C70.829 269.867 72.451 268.662 74.214 267.636C74.417 267.516 74.283 267.17 74.05 267.247C71.722 268.015 69.529 269.069 67.534 270.368C67.437 270.065 67.344 269.761 67.276 269.441C68.612 267.724 69.967 266.025 71.477 264.51C71.786 264.199 71.393 263.696 71.013 263.908C69.488 264.76 67.954 265.519 66.437 266.295C66.216 266.089 65.959 265.924 65.676 265.84C69.037 263.941 72.473 262.159 76.257 260.881C77.239 260.55 76.848 259.082 75.828 259.322C71.373 260.373 66.493 261.633 61.965 263.542C62.576 263.007 63.173 262.446 63.764 261.873C67.528 260.797 71.302 259.799 75.143 259.371C75.746 259.303 75.948 258.656 75.755 258.249C76.543 258.15 77.332 258.054 78.13 257.978C78.222 257.97 78.22 257.846 78.13 257.836C75.286 257.499 72.433 257.426 69.612 257.628C71.248 256.725 72.887 255.833 74.557 254.993C76.567 254.421 78.631 254.143 80.635 254.855C81.229 255.067 81.528 254.198 81.046 253.88C79.722 253.008 78.238 252.597 76.682 252.496L76.46 252.318C76.679 252.272 76.898 252.228 77.117 252.182C78.316 251.934 77.784 250.2 76.619 250.378C76.335 250.421 76.051 250.465 75.767 250.509C77.896 248.824 80.045 247.16 82.253 245.551C82.854 245.112 82.519 243.893 81.696 244.228C78.876 245.377 76.156 246.718 73.552 248.238C74.026 247.268 72.568 246.44 71.987 247.402C71.36 248.438 70.701 249.449 70.033 250.455C69.671 250.7 69.315 250.954 68.958 251.208C69.802 249.812 70.646 248.417 71.48 247.009C71.86 246.364 70.901 245.562 70.41 246.183C69.818 246.932 69.245 247.687 68.681 248.445C69.424 246.835 70.209 245.234 71.098 243.667C71.613 242.761 70.236 241.957 69.703 242.851C68.175 245.41 66.494 247.812 64.873 250.229C64.642 249.858 64.092 249.687 63.748 249.958C63.827 249.812 63.902 249.665 63.983 249.519C64.166 249.187 64.07 248.828 63.86 248.566C66.388 244.901 69.052 241.325 72.022 238.054C72.173 237.887 71.95 237.68 71.781 237.813C70.067 239.159 68.447 240.553 66.912 242.005C66.807 241.68 66.523 241.392 66.194 241.334C66.888 240.998 67.59 240.678 68.31 240.396C69.085 240.094 68.781 239.053 67.97 239.166C66.625 239.353 65.307 239.62 64.026 239.965C63.956 239.528 63.377 239.179 62.94 239.572L62.88 239.627C62.852 239.18 62.653 238.746 62.342 238.418C62.751 238.188 63.16 237.96 63.582 237.742L63.567 237.716C63.835 237.533 64.003 237.278 64.088 237.003C65.09 236.912 66.07 237.029 66.999 237.479C67.45 237.698 67.848 237.023 67.394 236.804C66.319 236.282 65.154 235.952 63.967 235.849C63.717 235.415 63.231 235.145 62.575 235.354C62.086 235.51 61.607 235.688 61.13 235.868L61.19 235.712C63.269 235.067 65.399 234.631 67.575 234.488C67.943 234.465 68 233.985 67.66 233.859C66.634 233.479 65.564 233.269 64.471 233.183C65.522 232.711 66.594 232.285 67.684 231.913C68.185 231.742 68.086 231.043 67.561 231.005C66.459 230.926 65.38 230.971 64.321 231.095C64.27 230.986 64.228 230.873 64.161 230.77C65.005 229.871 65.82 228.912 66.626 227.887C67.08 227.307 66.4 226.627 65.82 227.082C65.14 227.617 64.427 228.121 63.717 228.627C64.689 227.613 65.638 226.566 66.54 225.453C66.879 225.035 66.337 224.455 65.936 224.849C64.731 226.037 63.467 227.158 62.167 228.236C61.918 228.041 61.614 227.906 61.255 227.885C61.023 227.87 60.794 227.865 60.563 227.853C60.614 227.68 60.665 227.512 60.716 227.342C62.07 225.019 63.183 222.55 64.087 219.93C64.3 219.311 63.365 219.091 63.126 219.666C62.409 221.389 61.57 223.054 60.642 224.668L60.52 224.576C60.732 224.114 60.545 223.644 60.191 223.332C60.604 222.598 60.979 221.835 61.321 221.047C61.57 220.474 60.768 219.964 60.461 220.544C59.999 221.417 59.471 222.242 58.906 223.039C58.763 223.085 58.622 223.157 58.486 223.262C57.505 224.022 56.112 224.541 55.289 225.453C55.226 225.292 55.136 225.149 55.041 225.013C57.398 222.629 59.419 219.938 61.358 216.896C61.716 216.336 60.849 215.851 60.476 216.381C59.086 218.355 57.268 220.012 55.308 221.55C56.705 219.803 57.917 217.885 59.069 215.765C59.523 214.932 58.358 214.294 57.82 215.036C57.231 215.848 56.558 216.591 55.848 217.302L56.364 214.65C56.469 214.109 56.321 213.552 56.027 213.087C56.335 211.945 56.563 210.768 56.784 209.559C56.902 208.916 56.064 208.496 55.696 209.1C54.22 211.519 51.911 213.299 50.09 215.45C50.8 213.512 51.457 211.535 52.263 209.548C52.48 209.016 51.572 208.63 51.33 209.154C50.61 210.717 49.756 212.191 48.874 213.647C49.598 211.248 50.131 208.781 50.486 206.221C50.515 206.012 50.221 205.914 50.157 206.131C49.355 208.855 48.384 211.529 47.318 214.166C46.944 211.181 46.577 208.196 46.214 205.211C46.533 203.963 46.864 202.72 47.227 201.487C47.373 200.991 46.596 200.635 46.372 201.127C46.098 201.725 45.838 202.322 45.585 202.918C45.424 202.747 45.239 202.601 45.032 202.504C44.763 200.516 44.432 198.516 44.064 196.48C43.985 196.042 43.324 196.166 43.312 196.582C43.243 198.842 43.127 201.084 43.018 203.32L42.953 203.462C42.528 205.038 42.193 206.729 42.056 208.399C41.192 206.845 40.373 205.262 39.694 203.593C39.413 202.9 38.358 203.143 38.546 203.909C38.899 205.35 39.29 206.83 39.742 208.301C39.81 208.907 39.885 209.515 39.974 210.123C39.929 209.998 39.878 209.878 39.836 209.753C39.613 209.082 38.576 209.354 38.77 210.047C39.077 211.145 39.306 212.264 39.53 213.377C38.381 212.961 37.235 212.533 36.117 212.012C36.015 211.965 35.91 211.96 35.808 211.973C35.55 211.671 35.285 211.378 35.036 211.063C34.632 210.552 33.89 211.203 34.168 211.733C34.792 212.926 34.928 214.038 35.212 215.313C35.281 215.625 35.384 215.927 35.503 216.223C34.887 215.226 34.31 214.217 33.824 213.191C33.56 212.633 32.575 213.034 32.813 213.617C33.974 216.469 34.676 219.146 36.227 221.47C34.396 222.144 35.43 224.429 36.07 225.699C36.604 226.759 37.242 227.749 37.925 228.705C36.347 227.372 34.922 225.863 33.746 224.071C33.264 223.337 32.175 223.975 32.57 224.759C32.735 225.086 32.93 225.394 33.11 225.713C33.082 225.79 33.056 225.868 33.051 225.966C33.012 226.677 33.062 227.384 33.185 228.077C32.112 226.49 31.012 224.896 30.118 223.277C29.771 222.65 28.721 223.072 28.947 223.77C29.323 224.931 29.46 226.182 29.654 227.418C29.126 227.035 28.608 226.634 28.111 226.195C27.481 225.639 26.484 226.176 26.579 226.915C26.041 226.548 25.508 226.162 24.988 225.726C24.306 225.157 23.043 225.915 23.651 226.759C24.245 227.581 24.852 228.432 25.48 229.271L25.388 229.344C24.456 228.73 23.561 228.062 22.73 227.305C22.323 226.935 21.582 227.425 21.928 227.925C22.733 229.089 23.615 230.153 24.57 231.109C24.542 231.409 24.565 231.712 24.634 232.003C23.432 232.441 22.372 233.138 21.594 234.224C21.468 234.4 21.54 234.643 21.668 234.791C22.759 236.058 24.267 236.675 25.921 236.897C26.076 237.268 26.27 237.632 26.489 237.987C25.888 238.814 25.672 239.944 26.228 240.913C26.49 241.371 26.795 241.804 27.118 242.223C26.954 243.033 26.471 243.389 25.686 243.317C25.009 241.774 24.499 240.165 24.275 238.456C24.131 237.353 22.489 237.268 22.489 238.456C22.488 239.572 22.589 240.671 22.769 241.745C21.766 239.702 20.946 237.59 20.603 235.219C20.504 234.534 19.449 234.731 19.433 235.377C19.412 236.171 19.441 236.968 19.497 237.762C19.306 237.614 19.108 237.495 18.904 237.412C18.64 236.127 18.483 234.82 18.482 233.502C18.481 232.557 17.115 232.588 17.035 233.502C17.026 233.6 17.031 233.695 17.024 233.794C17.009 233.699 16.985 233.608 16.972 233.513C16.89 232.94 15.913 232.949 15.823 233.513C15.75 233.97 15.691 234.429 15.641 234.887C15.543 234.311 15.47 233.725 15.453 233.119C15.432 232.303 14.272 232.138 14.033 232.927C12.582 237.719 14.024 242.023 16.772 245.609C16.611 245.559 16.455 245.497 16.295 245.445C16.155 245.328 16.014 245.216 15.877 245.088C15.615 244.843 15.325 244.881 15.127 245.042C12.945 244.198 10.927 243.016 9.27702 241.269C8.74702 240.707 7.93401 241.539 8.43501 242.111C10.965 244.996 13.888 247.41 17.399 248.437C18.817 249.692 20.469 250.758 22.234 251.3C22.33 251.365 22.433 251.423 22.53 251.487C21.202 251.178 19.888 250.784 18.581 250.34C17.992 250.139 17.595 251.066 18.155 251.35C19.771 252.17 21.383 252.983 23.047 253.503C22.975 254.057 23.02 254.614 23.242 255.158C20.649 254.752 18.05 254.47 15.544 253.432C14.633 253.055 14.237 254.537 15.136 254.909C17.277 255.796 19.402 256.793 21.593 257.44C21.359 257.757 21.122 258.065 20.896 258.398L20.712 258.149C20.377 257.586 19.596 257.977 19.702 258.576C19.754 258.87 19.826 259.143 19.895 259.419C19.771 259.33 19.653 259.234 19.527 259.149C18.923 258.251 18.361 257.312 17.875 256.299C17.625 255.778 16.763 256.143 16.941 256.692C17.077 257.107 17.234 257.521 17.387 257.935C16.966 257.74 16.538 257.562 16.103 257.414C13.228 256.431 9.59801 257.165 6.90001 255.911C6.51301 255.731 6.08101 256.003 6.00401 256.347C5.55501 256.272 5.11601 256.802 5.39001 257.238C5.93201 258.097 6.58702 258.862 7.29102 259.577C6.98702 259.595 6.68602 259.615 6.38902 259.649C5.78502 259.097 5.20601 258.512 4.69101 257.838C4.33601 257.372 3.58501 257.765 3.88301 258.31C4.18901 258.87 4.53602 259.401 4.90302 259.916C4.35502 260.048 3.83301 260.232 3.33501 260.461C2.59901 259.983 1.82601 259.599 1.00501 259.519L0.882011 259.681C1.28201 261.49 2.25202 263.122 3.54002 264.488C3.04202 264.462 2.54302 264.442 2.04202 264.448C-0.0579848 264.471 -2.46999 265.223 -4.49699 264.976C-5.50999 264.853 -5.55998 266.342 -4.72398 266.648C-3.78598 266.992 -3.07498 267.721 -2.19498 268.155C-1.54098 268.476 -0.811984 268.727 -0.0709839 268.924L-0.0929871 269.051C-1.38299 269.088 -2.67699 269.099 -3.97799 269.007C-5.13599 268.924 -5.10399 270.678 -3.97799 270.794C-2.31199 270.965 -0.682984 271.249 0.943016 271.487C1.38802 271.904 1.95601 272.179 2.59101 272.257C2.28001 272.335 1.97301 272.4 1.67601 272.44C1.01201 272.53 1.17001 273.644 1.83501 273.61C4.32801 273.482 6.40502 273.787 8.87502 273.114C9.18102 273.031 9.47401 272.934 9.76701 272.839C9.80701 273.023 9.89401 273.194 10.018 273.318C9.70001 273.319 9.38201 273.322 9.06201 273.313C8.07901 273.285 8.13101 274.699 9.06201 274.807C10.661 274.993 12.279 275.102 13.887 275.068C13.826 275.391 13.829 275.723 13.899 276.045C12.524 276.085 11.152 276.048 9.67601 275.847C8.97901 275.753 8.70301 276.656 9.38201 276.915C10.794 277.451 12.239 278.068 13.698 278.629C13.692 278.766 13.692 278.904 13.702 279.045C13.141 278.874 12.575 278.715 12.002 278.565C9.58701 277.939 6.16801 277.699 4.18601 276.208C3.48601 275.68 2.80702 276.862 3.49902 277.384C4.07102 277.814 4.53701 278.354 4.99301 278.903C4.39201 279.301 3.94901 279.951 3.92201 280.77L3.91602 280.968C2.12802 279.814 0.392012 278.591 -1.24399 277.251C-1.88299 276.728 -2.66799 277.514 -2.14599 278.154C-0.339988 280.37 1.36801 282.675 3.25401 284.683C1.74301 283.537 0.286014 282.327 -1.05299 280.999C-1.26499 280.79 -1.58499 281.054 -1.45399 281.308C-0.341987 283.475 1.01301 285.386 2.58501 287.054C-0.0539856 286.545 -2.69699 286.054 -5.34499 285.53C-6.30799 285.34 -6.71998 286.816 -5.75198 287.008C-2.38298 287.674 0.63401 289.247 3.69101 290.548C3.28201 291.143 3.21001 291.956 3.40801 292.7C2.37201 292.647 1.33701 292.579 0.30101 292.473C-0.60699 292.381 -0.792986 293.86 0.0860138 294.061C3.60701 294.867 7.12301 295.481 10.668 295.552C10.561 295.768 10.412 295.969 10.241 296.161C6.75301 296.363 3.23301 296.27 -0.213989 296.022C-0.540989 295.999 -0.611987 296.373 -0.440987 296.577C-1.10099 296.483 -1.75399 296.38 -2.38399 296.248C-3.44899 296.024 -3.89999 297.592 -2.83599 297.888C-2.21099 298.063 -1.60698 298.368 -1.01598 298.743C-1.17698 298.748 -1.33898 298.761 -1.50098 298.769C-2.61798 298.201 -3.71599 297.596 -4.75599 296.897C-5.50499 296.394 -6.24799 297.481 -5.68399 298.1C-5.35999 298.456 -5.02999 298.794 -4.69699 299.126C-5.65799 299.298 -6.62999 299.54 -7.61599 299.835C-7.92499 299.59 -8.23098 299.338 -8.51498 299.049C-9.17298 298.382 -10.163 299.386 -9.53799 300.072C-6.63699 303.259 -3.34999 305.448 0.286011 306.522C-4.07599 307.557 -8.49099 308.058 -13.049 306.93C-13.809 306.742 -14.066 307.804 -13.366 308.08C-10.607 309.163 -7.71899 310.022 -4.82799 310.47C-40.175 314.739 -75.522 319.009 -110.869 323.278C-111.133 350.029 -111.662 403.533 -111.662 403.533H727.681C727.681 403.533 727.153 354.038 726.888 327.286Z" fill="#E48149"/>
</g>
<defs>
<clipPath id="clip0_3_18">
<rect width="631" height="383" fill="white"/>
</clipPath>
</defs>
</svg>
