<svg width="631" height="383" viewBox="0 0 631 383" fill="none" xmlns="http://www.w3.org/2000/svg">
<g clip-path="url(#clip0_3_7)">
<path fill-rule="evenodd" clip-rule="evenodd" d="M634.097 388.783V136.14C631.774 137.874 629.231 139.636 626.127 140.706C625.633 140.876 625.156 140.95 624.692 140.95C622.268 140.95 620.168 138.934 617.603 138.031C617.28 137.917 616.915 137.761 616.518 137.573C616.543 137.801 616.467 138.039 616.29 138.214C616.134 138.368 615.931 138.445 615.728 138.445C615.525 138.445 615.321 138.368 615.166 138.214C614.855 137.908 614.855 137.41 615.166 137.103C615.22 137.05 615.28 137.004 615.344 136.97C611.649 134.96 606.28 131.151 603.846 129.807C603.679 129.715 603.505 129.671 603.326 129.671C602.179 129.671 600.794 131.42 599.382 133.169C597.969 134.917 596.529 136.666 595.272 136.666C595.255 136.666 595.239 136.665 595.223 136.665C590.154 136.478 588.647 135.12 584.466 135.12C583.88 135.12 583.242 135.146 582.533 135.207C576.659 135.707 566.705 143.984 560.844 144.602C560.499 144.639 560.163 144.657 559.837 144.657C556.526 144.657 554.142 142.875 552.19 141.094C550.239 139.313 548.721 137.531 547.146 137.531C545.446 137.531 543.678 139.607 541.224 146C539.427 145.946 538.429 141.899 538.349 141.063C538.318 140.73 537.898 140.472 537.51 140.472C537.281 140.472 537.061 140.563 536.944 140.784C535.313 143.824 533.737 146.871 532.224 149.947C531.928 149.832 531.597 149.78 531.261 149.78C530.25 149.78 529.177 150.259 528.784 151.001C527.441 150.456 526.037 150.134 524.507 150.134C524.209 150.134 523.907 150.146 523.598 150.172C522.507 150.261 521.006 150.789 520.26 150.796C520.235 150.796 520.21 150.796 520.185 150.796C519.867 150.796 519.547 150.777 519.233 150.759C518.919 150.74 518.614 150.721 518.326 150.721C517.756 150.721 517.254 150.794 516.897 151.087L514.471 149.113C514.307 148.979 514.102 148.92 513.897 148.92C513.516 148.92 513.135 149.126 513.02 149.442C511.922 149.637 510.824 149.831 509.726 150.025C509.538 149.836 509.21 149.723 508.902 149.723C508.551 149.723 508.227 149.868 508.158 150.215C507.363 154.191 505.36 157.013 502.745 160.288L500.854 158.431C500.718 158.298 500.53 158.24 500.336 158.24C499.962 158.24 499.567 158.453 499.479 158.743L498.668 161.448C498.312 161.782 497.931 161.949 497.523 161.949C497.144 161.949 496.743 161.806 496.319 161.52C494.411 161.307 492.274 160.385 490.453 159.875C490.377 159.853 490.302 159.842 490.231 159.842C489.866 159.842 489.569 160.093 489.441 160.35C488.761 161.713 488.362 162.985 488.182 164.33C487.211 163.563 486.092 163.143 484.893 163.143C483.835 163.143 482.714 163.468 481.572 164.17C476.45 167.313 471.006 170.445 464.6 171.618C457.821 172.86 447.809 171.52 444.043 177.21C443.453 177.096 442.881 177.04 442.325 177.04C441.353 177.04 440.432 177.211 439.558 177.543C432.406 175.119 426.634 166.504 419.709 166.504C419.01 166.504 418.299 166.592 417.573 166.783C416.065 167.179 414.704 167.361 413.465 167.361C403.458 167.361 401.287 155.499 392.354 148.949C392.311 149.352 392.249 149.757 392.157 150.162C392.041 149.657 391.974 149.153 391.933 148.648C391.923 148.641 391.914 148.635 391.905 148.628C391.753 148.522 391.498 148.476 391.181 148.476C389.658 148.476 386.672 149.539 386.392 150.292C386.389 150.296 386.383 150.298 386.375 150.298C385.861 150.298 376.792 141.471 370.722 139.085C370.212 138.886 369.801 138.792 369.45 138.792C368.65 138.792 368.161 139.276 367.525 140.078C364.346 137.836 360.089 134.174 357.671 131.463C355.806 129.371 354.895 128.848 354.171 128.848C353.555 128.848 353.076 129.23 352.259 129.342C350.838 129.539 348.924 129.716 346.631 129.716C343.489 129.716 339.638 129.383 335.379 128.314C334.764 128.161 334.114 128.134 333.458 128.134C333.28 128.134 333.101 128.136 332.922 128.138C332.745 128.14 332.568 128.142 332.392 128.142C331.957 128.142 331.527 128.13 331.113 128.075C328.383 127.722 329.613 126.642 328.024 125.285C327.045 124.448 325.516 124.449 324.258 123.865C315.092 119.613 312.312 114.016 309.901 114.016C309.38 114.016 308.878 114.276 308.332 114.865C305.662 117.748 299.22 120.605 294.856 123.943C294.494 124.22 294.018 124.325 293.472 124.325C292.587 124.325 291.516 124.048 290.439 123.771C289.364 123.494 288.283 123.216 287.378 123.216C286.993 123.216 286.64 123.266 286.333 123.387C283.884 124.356 281.444 128.728 279.219 129.992C277.082 131.206 275.048 132.558 273.185 134.03C272.319 134.715 271.504 135.633 270.582 136.259C269.896 136.724 269.397 136.912 268.936 136.912C268.153 136.912 267.481 136.371 266.187 135.732C266.051 135.663 265.894 135.633 265.735 135.633C265.3 135.633 264.85 135.866 264.763 136.218C263.039 143.132 252.061 146.064 245.076 148.915C240.954 150.596 236.833 152.281 232.715 153.968C230.398 154.919 228.081 155.867 225.765 156.817C224.131 157.486 221.558 159.001 219.374 159.001C218.258 159.001 217.244 158.607 216.509 157.505C216.336 157.246 216.045 157.134 215.744 157.134C215.31 157.134 214.856 157.366 214.709 157.721C212.192 163.821 195.338 173.598 190.56 178.855C189.882 178.209 189.205 177.565 188.527 176.922C188.352 176.755 188.109 176.683 187.859 176.683C187.469 176.683 187.062 176.858 186.869 177.118C186.059 178.213 185.25 179.306 184.44 180.4C184.132 179.978 183.822 179.557 183.513 179.135C183.367 178.729 182.979 178.549 182.573 178.549C182.117 178.549 181.639 178.777 181.457 179.169C181.152 179.959 180.677 180.666 180.052 181.298C179.555 180.983 178.939 180.832 178.319 180.832C177.451 180.832 176.574 181.127 175.997 181.673C174.857 181.07 173.639 180.759 172.342 180.759C171.696 180.759 171.032 180.835 170.346 180.992C166.392 175.428 159.917 174.353 156.161 169.13C152.394 163.893 148.088 162.91 144.063 162.91C142.854 162.91 141.67 162.999 140.534 163.088C139.397 163.176 138.308 163.266 137.289 163.266C135.822 163.266 134.5 163.082 133.388 162.449C131.094 161.143 130.496 153.539 129.023 153.539C128.898 153.539 128.767 153.594 128.629 153.71C128.403 152.372 127.962 151.113 127.238 149.774C127.104 149.528 126.809 149.292 126.457 149.292C126.377 149.292 126.294 149.304 126.21 149.331C124.408 149.902 122.303 150.893 120.401 151.168C119.97 151.482 119.557 151.638 119.164 151.638C118.775 151.638 118.404 151.484 118.053 151.173L117.15 148.497C117.056 148.218 116.675 148.022 116.31 148.022C116.105 148.022 115.906 148.085 115.768 148.23L113.938 150.149C111.215 146.961 109.118 144.206 108.191 140.258C108.113 139.928 107.806 139.79 107.472 139.79C107.151 139.79 106.806 139.916 106.617 140.12C105.514 139.962 104.41 139.803 103.305 139.645C103.183 139.342 102.816 139.152 102.446 139.152C102.23 139.152 102.013 139.217 101.844 139.363L99.4858 141.417C99.16 141.167 98.7246 141.094 98.2324 141.094C97.5879 141.094 96.844 141.219 96.1153 141.236C96.1021 141.236 96.089 141.237 96.0748 141.237C95.3167 141.237 93.8308 140.774 92.7581 140.722C92.5724 140.713 92.3886 140.709 92.207 140.709C90.5355 140.709 89.0284 141.086 87.6025 141.72C87.1996 141.018 86.1726 140.579 85.1922 140.579C84.8187 140.579 84.4513 140.642 84.1286 140.78C82.5139 137.755 80.8363 134.762 79.1049 131.776C78.9841 131.569 78.7761 131.483 78.5558 131.483C78.1611 131.483 77.7307 131.759 77.7094 132.101C77.6577 132.94 76.7961 137.017 75.0008 137.13C72.3702 130.906 70.5474 128.859 68.8668 128.859C67.2531 128.859 65.7714 130.746 63.831 132.631C61.8905 134.517 59.4924 136.402 56.0479 136.402C55.8185 136.402 55.584 136.394 55.3455 136.377C49.4673 135.951 39.2414 128.005 33.3531 127.698C32.9045 127.675 32.4833 127.664 32.0865 127.664C27.3805 127.664 26.0409 129.201 20.7199 129.571C20.6884 129.574 20.657 129.575 20.6255 129.575C19.3772 129.575 17.8975 127.893 16.4432 126.211C14.9899 124.53 13.564 122.847 12.4243 122.847C12.2314 122.847 12.0467 122.896 11.8712 123C8.92597 124.756 1.63816 130.409 -1.60236 131.671C-2.41121 131.985 -3.16836 132.412 -3.90314 132.85V388.783L634.097 388.783Z" fill="url(#paint0_linear_3_7)"/>
</g>
<defs>
<linearGradient id="paint0_linear_3_7" x1="315.097" y1="388.783" x2="315.097" y2="114.016" gradientUnits="userSpaceOnUse">
<stop stop-color="#959FFF"/>
<stop offset="0.63988" stop-color="#959FFF"/>
<stop offset="1" stop-color="#E48149"/>
</linearGradient>
<clipPath id="clip0_3_7">
<rect width="631" height="383" fill="white"/>
</clipPath>
</defs>
</svg>
