<svg width="28" height="28" viewBox="0 0 28 28" fill="none" xmlns="http://www.w3.org/2000/svg">
<g filter="url(#filter0_d_9_63)">
<path d="M14 4C8.486 4 4.00012 8.48604 4.00012 14.0006C4.00012 19.5143 8.486 24 14 24C19.5141 24 23.9998 19.5143 23.9998 14.0006C23.9998 8.48604 19.5141 4 14 4ZM18.6346 12.9317L14.1704 17.3959C14.1301 17.4361 14.0761 17.4531 14.0179 17.4531L14.0128 17.6048L14.015 17.4383H14.0145H14.0081C13.9498 17.4383 13.8958 17.426 13.8554 17.3858L9.38431 12.9199C9.3 12.8357 9.3 12.701 9.38431 12.6162L9.74794 12.2536C9.82917 12.173 9.97313 12.1735 10.0544 12.2542L13.9021 16.1028C13.9606 16.1615 14.0649 16.1615 14.1234 16.1028L17.9644 12.2615C18.0459 12.18 18.1897 12.18 18.2714 12.2615L18.6346 12.6255C18.719 12.7098 18.719 12.8471 18.6346 12.9317Z" fill="white"/>
</g>
<defs>
<filter id="filter0_d_9_63" x="0" y="0" width="28" height="28" filterUnits="userSpaceOnUse" color-interpolation-filters="sRGB">
<feFlood flood-opacity="0" result="BackgroundImageFix"/>
<feColorMatrix in="SourceAlpha" type="matrix" values="0 0 0 0 0 0 0 0 0 0 0 0 0 0 0 0 0 0 127 0" result="hardAlpha"/>
<feOffset/>
<feGaussianBlur stdDeviation="2"/>
<feColorMatrix type="matrix" values="0 0 0 0 0.895833 0 0 0 0 0.506444 0 0 0 0 0.287413 0 0 0 1 0"/>
<feBlend mode="normal" in2="BackgroundImageFix" result="effect1_dropShadow_9_63"/>
<feBlend mode="normal" in="SourceGraphic" in2="effect1_dropShadow_9_63" result="shape"/>
</filter>
</defs>
</svg>
