<svg width="32" height="32" viewBox="0 0 32 32" fill="none" xmlns="http://www.w3.org/2000/svg">
<path d="M22.1543 1.00002C22.1135 1.0016 22.0818 1.01297 22.0605 1.03322L18.3457 5.44533L17.5879 8.0508C17.0729 8.0338 16.5411 8.02736 15.9961 8.02736C12.1351 8.02736 9 8.43638 9 8.94338C9 10.1534 22.9902 10.1534 22.9902 8.94338C22.9902 8.56838 21.3154 8.25158 18.9004 8.10158L19.5 5.95705L22.9746 1.77736L22.9805 1.7715C23.0585 1.6905 22.9062 1.44739 22.6582 1.23439C22.4722 1.07389 22.2766 0.995284 22.1543 1.00002ZM17.3027 9.07619L17.2891 9.11721C17.2831 9.12221 17.2832 9.12878 17.2832 9.13478C17.2832 9.20978 17.5861 9.2715 17.9551 9.2715C18.3241 9.2715 18.6289 9.20978 18.6289 9.13478L18.6406 9.08791C18.7376 9.12291 18.791 9.163 18.791 9.209C18.791 9.33 18.4162 9.42885 17.9492 9.42385C17.4952 9.42385 17.1191 9.33196 17.1191 9.21096C17.1191 9.15896 17.1937 9.11119 17.3027 9.07619ZM22.9121 9.41994C21.0611 10.4069 10.9498 10.4136 9.0918 9.43361L9.91406 16.666C10.2711 15.513 11.1739 13.9564 12.3359 13.4844C12.7169 13.3284 13.1038 13.3291 13.4668 13.5371C13.7818 13.7101 14.0481 14.0728 14.0781 14.2168C14.1511 14.5918 13.9576 14.7403 13.8066 14.7403C13.6246 14.7403 13.4855 14.4763 13.3945 14.3203C13.1465 13.8993 12.7711 13.8812 12.3711 14.1582C11.9531 14.4462 11.5899 14.9306 11.3359 15.3516C11.0269 15.8586 10.7664 16.4176 10.6094 16.9766C10.5184 17.2996 10.4352 17.8171 10.5742 18.1231C10.6352 18.2501 10.7251 18.3301 10.8711 18.3301C11.1741 18.3301 11.6142 17.9501 11.8262 17.7481C12.0982 17.4891 12.449 17.0852 12.582 16.8262L12.8984 15.9336C13.0554 15.5416 13.4961 15.6106 13.4961 15.9336C13.4961 16.5216 13.2736 16.7176 12.8926 17.9336C12.5416 19.0576 12.4316 19.4219 12.4316 19.4219C12.3896 19.5829 12.2258 19.8535 12.0508 19.8535C11.9778 19.8535 11.9245 19.8292 11.8945 19.7832C11.8335 19.7022 11.8397 19.4799 11.8457 19.4219C11.8577 19.2379 12.2261 18.1418 12.2871 17.9688C12.1661 18.0958 12.0394 18.2236 11.9004 18.3496C11.5734 18.6436 11.0476 19.0293 10.5996 19.0293C10.3936 19.0293 10.2618 18.9766 10.1348 18.8906L10.5938 23.4785C10.7147 23.7665 12.9666 24.4649 15.9316 24.4649C18.9026 24.4649 21.1526 23.7615 21.2676 23.4785L21.9277 18.0274C21.5827 18.3274 21.1842 18.6969 20.7422 18.8809C20.4152 19.0139 19.6895 19.0988 19.6895 18.5508C19.6895 18.2508 20.2405 17.6985 20.5605 17.3125C20.6455 17.2145 20.8438 16.9727 20.8438 16.8457C20.8438 16.6787 20.4817 16.7173 20.1367 16.9883C19.9427 17.1443 19.7604 17.3528 19.6094 17.5488C19.3494 17.8948 19.2107 18.1934 19.0957 18.4414C18.7207 19.2594 18.8479 18.937 18.5449 19.709C18.2419 20.476 18.2915 20.3886 18.2305 20.5156C18.1765 20.6256 18.0973 20.7184 17.9883 20.7754C17.8733 20.8334 17.7161 20.8268 17.6191 20.7578C17.5651 20.7228 17.5391 20.6479 17.5391 20.5449C17.5391 20.4929 17.5466 20.4407 17.5586 20.3887C17.6496 20.0367 18.0308 19.3461 18.4668 18.4121C18.5638 18.1991 18.5267 18.2623 18.5137 18.2793C18.1387 18.6253 17.8536 18.7928 17.6426 18.8848C17.2916 19.0348 16.8556 19.0345 16.7656 18.6485C16.7596 18.6255 16.7599 18.6011 16.7539 18.5781C16.0399 19.1081 15.2839 19.2523 15.5449 18.1113C15.2669 18.5843 14.7815 18.9707 14.1875 18.9707C13.9395 18.9707 13.758 18.8908 13.668 18.6778C13.529 18.3608 13.7463 17.8177 13.9453 17.3047C14.0483 17.0457 14.189 16.7341 14.377 16.3711C14.474 16.1751 14.6299 16.0593 14.8359 16.1113C14.8719 16.1233 14.9036 16.1354 14.9336 16.1524C15.0906 16.2564 15.0302 16.4104 14.9512 16.5664C14.7212 16.9984 14.5217 17.3156 14.3887 17.7656C14.3347 17.9556 14.2665 18.2852 14.4785 18.2852C14.6235 18.2852 14.7625 18.2385 14.8965 18.1465C15.1745 17.9505 15.3984 17.6572 15.5684 17.3692C15.6894 17.1622 15.8352 16.8912 15.9082 16.6602C15.9382 16.5622 15.9756 16.4698 16.0176 16.3828C16.0846 16.2388 16.174 16.0899 16.332 16.0899C16.411 16.0899 16.4764 16.1188 16.5254 16.1758C16.6284 16.3028 16.6058 16.4333 16.5508 16.5723C16.4298 16.8953 16.2668 17.1842 16.1328 17.5352C16.0538 17.7372 15.9688 17.996 15.9688 18.209C15.9688 18.405 16.1929 18.3584 16.3809 18.2774C16.5259 18.2144 16.671 18.1176 16.793 18.0196C16.866 17.7376 16.8466 17.7999 18.3906 14.0879C18.4696 13.8979 18.6148 13.8164 18.7598 13.8164C18.8328 13.8164 18.8921 13.8409 18.9531 13.8809C19.0561 13.9559 19.0576 14.1153 19.0156 14.2363C18.9736 14.3463 18.9782 14.3118 18.7422 14.8418C18.4272 15.5388 18.2224 16.0417 17.9434 16.6817C17.8284 16.9467 17.478 17.7708 17.418 17.9668C17.382 18.0938 17.3385 18.3008 17.4785 18.3008C17.8055 18.3008 18.647 17.5453 18.877 17.3203C18.889 17.3033 18.9076 17.2972 18.9316 17.2852C18.9676 17.1752 19.0032 17.0728 19.0332 16.9688C19.1182 16.7498 19.1975 16.4944 19.3555 16.3164C19.4035 16.2584 19.4576 16.2246 19.5176 16.2246C19.6866 16.2246 19.7715 16.2931 19.7715 16.4551C19.7715 16.5181 19.7301 16.7495 19.7051 16.8125C19.7901 16.7265 19.8796 16.6407 19.9766 16.5547C20.8846 15.7537 21.5312 16.1624 21.5312 16.5664C21.5312 16.9924 20.9933 17.5851 20.6973 17.9141C20.6003 18.0241 20.4005 18.2252 20.3945 18.2832C20.3945 18.3582 20.4483 18.3887 20.5273 18.3887C20.6483 18.3887 20.9147 18.1862 21.0117 18.1172C21.3147 17.8922 21.7246 17.5467 22.0156 17.3047L22.9121 9.41994ZM10.9297 24.0313L11.832 25.4961L12.1836 30.0723C12.1836 30.5853 13.896 31 16.002 31C18.108 31 19.8203 30.5853 19.8203 30.0723L20.0996 25.4492L20.9512 24.0313C18.5542 24.9943 13.4237 25.0283 10.9297 24.0313Z" fill="#E48149"/>
</svg>
