<svg width="512" height="310" viewBox="0 0 512 310" fill="none" xmlns="http://www.w3.org/2000/svg">
<path d="M120.81 81.0613H217.378V88.7367H129.662V146.504H212.148V154.179H129.662V217.602H218.384V225.277H120.81V81.0613ZM226.029 81.0613H236.29L281.757 144.484L328.23 81.0613L391.441 0.5L287.591 151.149L341.106 225.277H330.443L281.757 157.815L232.869 225.277H222.408L276.325 151.149L226.029 81.0613ZM344.928 88.7367V81.0613H454.976V88.7367H404.277V225.277H395.425V88.7367H344.928ZM0 81.0613H11.0651L163.646 309.384L100.592 225.277L9.25442 91.9684L8.85206 225.277H0V81.0613ZM454.084 215.285C452.275 215.285 450.919 213.884 450.919 212.073C450.919 210.262 452.275 208.861 454.084 208.861C455.914 208.861 457.249 210.262 457.249 212.073C457.249 213.884 455.914 215.285 454.084 215.285ZM462.782 206.835H467.519C467.583 209.4 469.456 211.125 472.212 211.125C475.291 211.125 477.035 209.271 477.035 205.8V183.81H481.858V205.821C481.858 212.073 478.241 215.674 472.255 215.674C466.636 215.674 462.782 212.181 462.782 206.835ZM488.166 206.554H492.946C493.355 209.508 496.24 211.383 500.395 211.383C504.271 211.383 507.113 209.378 507.113 206.619C507.113 204.248 505.304 202.825 501.192 201.855L497.187 200.885C491.568 199.569 489.006 196.853 489.006 192.283C489.006 186.742 493.527 183.056 500.309 183.056C506.617 183.056 511.225 186.742 511.505 191.981H506.811C506.359 189.114 503.862 187.324 500.245 187.324C496.434 187.324 493.893 189.157 493.893 191.959C493.893 194.18 495.529 195.452 499.577 196.4L503 197.241C509.373 198.729 512 201.316 512 205.994C512 211.944 507.393 215.674 500.029 215.674C493.14 215.674 488.511 212.116 488.166 206.554Z" fill="#E48149"/>
</svg>
