<svg width="230" height="369" viewBox="0 0 230 369" fill="none" xmlns="http://www.w3.org/2000/svg">
<path d="M110.485 0.787502C110.221 1.25417 109.519 2.91668 108.861 4.52086C108.247 6.12504 107.15 8.13755 106.448 9.01255C104.869 10.9959 104.781 11.7834 106.185 11.5209C106.711 11.4042 107.545 11.0542 107.984 10.7042C108.773 10.0917 108.817 10.0917 108.51 10.6459C108.335 10.9667 107.457 12.0459 106.58 13.0376C105.395 14.3501 104.605 14.9043 103.64 15.0793C102.587 15.2834 102.324 15.5168 102.28 16.1876C102.236 16.6834 102.061 17.2959 101.885 17.5584C101.446 18.3168 101.929 18.5793 103.421 18.4334L104.781 18.3168L102.982 20.7085C101.973 22.021 101.271 23.1585 101.402 23.246C101.534 23.3335 102.236 23.2751 102.938 23.1001C104.21 22.8085 104.298 22.8376 104.298 23.4793C104.298 24.5585 105.22 24.6752 106.36 23.7418C107.194 23.0418 107.457 22.9835 107.808 23.3335C108.247 23.8293 107.326 24.6752 105.965 24.9668C105.176 25.1127 105.176 25.171 105.878 25.521C106.316 25.7252 107.018 25.8127 107.457 25.7252C108.642 25.521 108.554 27.0085 107.369 27.271C106.887 27.3877 106.624 27.5918 106.755 27.7668C106.931 27.9127 106.799 28.3793 106.448 28.7585C105.746 29.6627 106.141 29.896 107.72 29.5169C109.87 29.021 110.265 29.5169 108.817 30.946C107.72 32.0544 106.887 32.4335 101.359 34.1835C97.9363 35.2627 94.6896 36.1669 94.1192 36.1961C93.3295 36.1961 93.4611 36.3127 94.8651 36.7211C95.8303 37.0127 97.366 37.3336 98.2873 37.4502L99.9107 37.6544L98.77 39.0252C98.1118 39.7836 97.0588 40.7461 96.3568 41.1544C94.7335 42.0878 94.7773 42.4378 96.4007 43.0503L97.717 43.5753L96.7956 44.2461C96.2252 44.6253 95.962 45.0628 96.1375 45.3836C96.3568 45.7628 96.2252 45.8211 95.5232 45.7045C94.9967 45.617 93.7243 45.7336 92.6275 45.9961C90.8725 46.4045 90.5215 46.3753 88.942 45.967C86.6605 45.3545 86.7482 45.3545 86.7482 46.3753C86.7482 46.9586 86.5288 47.2503 86.0901 47.2503C85.7391 47.2503 85.432 47.367 85.432 47.542C85.432 47.6878 85.9146 47.8336 86.4411 47.8336C87.0115 47.8336 87.8012 48.067 88.1961 48.3586C88.8542 48.8253 88.8542 48.9128 88.1522 49.2045C87.7573 49.3795 87.0553 49.9336 86.6166 50.4295C85.8268 51.3337 85.8268 51.3337 86.7482 51.3337C87.2747 51.3337 87.538 51.4503 87.4063 51.6253C87.2747 51.7712 87.6696 52.4128 88.3277 53.0837C89.293 54.0462 89.4246 54.4545 89.2052 55.417L88.942 56.5837L90.9163 56.9045L92.8468 57.2254L92.1887 58.1004C91.0918 59.4712 91.5745 59.792 94.8212 59.792C97.6292 59.792 97.717 59.8212 98.419 60.7254C99.3842 62.0087 99.7791 62.1254 101.973 61.9212C103.772 61.7754 103.859 61.7754 103.859 62.5337C103.859 63.4087 105.044 63.5546 106.624 62.8546C107.545 62.4754 107.72 62.5046 108.861 63.3212L110.134 64.1962L109.826 69.0671C109.695 71.7505 109.432 75.3671 109.256 77.088L108.993 80.238L107.501 80.6463C105 81.3463 98.6383 82.0172 94.8651 82.0172C91.0918 81.988 86.3095 81.4338 81.8781 80.4713C78.4997 79.7422 70.5145 77.2922 70.5145 77.0005C70.5145 76.8838 70.0319 76.7088 69.5054 76.5921C68.1891 76.388 61.3007 73.0046 58.5805 71.2546L56.5184 69.9129L55.9919 70.6713C55.5092 71.4004 55.7286 72.1296 57.2642 74.4338C57.352 74.5796 57.001 74.6671 56.5184 74.6671C55.9919 74.6671 55.597 74.7838 55.597 74.9296C55.597 75.0755 55.1582 75.2505 54.6317 75.3088C53.6665 75.3963 53.6665 75.4255 55.0705 76.3588C55.8164 76.913 56.4745 77.4088 56.4745 77.4963C56.4745 77.5547 56.9132 77.8755 57.3959 78.138C58.3172 78.6338 58.3172 78.663 55.246 79.6547C53.5349 80.2088 52.087 80.7338 52.087 80.8213C52.087 80.938 52.8767 81.0838 53.842 81.1713C54.8511 81.2588 56.299 81.6672 57.1326 82.0755C57.9224 82.4839 58.9315 82.8339 59.2825 82.8339C59.6774 82.8339 59.9845 82.9505 59.9845 83.1255C59.9845 83.5922 61.3007 83.4755 61.564 82.9797C61.7834 82.6297 61.9589 82.6005 62.4415 82.863C62.968 83.1547 62.968 83.3005 62.1782 83.7672C60.9936 84.5255 61.0814 84.9339 62.6609 85.7214C63.8016 86.2755 63.9332 86.5089 63.7139 87.238C63.4506 87.9964 63.5384 88.0839 64.5036 88.0839C65.074 88.0839 65.8199 87.8797 66.127 87.6464C66.4341 87.3839 66.9167 87.238 67.18 87.2964C67.4432 87.3547 68.1014 87.2964 68.6717 87.1797C69.5492 86.9464 69.637 87.0047 69.637 88.0839C69.637 89.1922 69.7247 89.2506 70.9971 89.2506C71.743 89.2506 72.2256 89.3672 72.0501 89.5422C71.9185 89.6881 71.392 89.8339 70.9094 89.8339C70.4706 89.8339 70.0757 89.9506 70.0757 90.1256C70.0757 90.5922 72.5766 90.4464 73.3664 89.9506C74.4194 89.2506 75.9989 89.6589 76.8764 90.8547C77.5345 91.8464 77.5345 91.9631 76.8764 92.6631L76.1305 93.4214L77.359 93.2173C78.061 93.1006 78.9823 92.7214 79.4211 92.4006C80.0792 91.8756 80.2986 91.8464 80.6057 92.1672C80.8251 92.4006 80.7812 92.8089 80.518 93.1298C80.2108 93.5381 80.2108 93.6256 80.5618 93.4798C81.3516 93.1589 83.677 93.6256 83.677 94.0923C83.677 94.4423 85.2126 96.7173 85.6513 97.0673C85.9585 97.3006 87.2747 96.6006 88.0645 95.8423C88.942 94.9089 93.3295 93.7131 93.3295 94.3548C93.3295 94.5589 92.8468 94.9381 92.2326 95.2006C90.8725 95.7839 90.697 97.1256 91.9255 97.1256C92.4081 97.1256 93.1101 96.8631 93.505 96.5714C94.207 96.0756 94.3825 96.0464 95.5671 96.4548C96.664 96.8048 96.8395 97.0381 96.8395 98.0006C96.8395 99.109 96.9272 99.1673 98.7261 99.4881C99.7352 99.6631 100.832 99.8673 101.139 99.9256C101.49 99.984 101.666 100.742 101.666 102.376V104.709H102.894C103.552 104.709 104.912 104.446 105.965 104.126L107.808 103.571V106.634C107.808 108.326 107.633 109.959 107.369 110.251C106.36 111.505 104.342 111.913 97.4976 112.234C83.326 112.934 81.8781 112.963 78.6313 112.438C72.2695 111.476 69.286 110.601 58.1417 106.547C53.6226 104.884 49.8055 103.542 49.6739 103.542C49.3229 103.542 50.7269 105.292 51.9992 106.43L53.0961 107.422L51.9554 107.217C50.9901 107.072 50.8585 107.13 51.0779 107.538C51.6044 108.472 50.2442 107.567 49.63 106.576C49.0596 105.671 46.3832 104.359 46.3832 104.971C46.3832 105.117 47.2607 106.109 48.3576 107.159L50.2881 109.055L48.6647 109.142L47.0414 109.23L48.7086 109.93C49.63 110.309 50.2881 110.747 50.2004 110.951C50.0687 111.126 50.2881 111.505 50.683 111.767C51.2972 112.263 51.2534 112.292 49.981 112.292C48.4892 112.292 48.1821 112.497 48.0505 113.576C47.9627 114.159 47.6117 114.392 46.3832 114.655C45.5496 114.83 44.6721 115.092 44.4966 115.209C44.014 115.501 45.9006 116.376 47.0414 116.376C47.524 116.376 48.1821 116.492 48.4892 116.638C48.9719 116.842 48.8841 117.017 48.1382 117.484C46.9975 118.184 47.2169 118.913 48.7086 119.147C50.1126 119.38 50.9901 120.372 50.2881 120.926C49.5422 121.538 50.1126 122.122 51.736 122.355C53.7981 122.647 53.9736 122.792 53.14 123.405C52.2186 124.105 52.438 124.251 54.6756 124.455C56.2112 124.601 56.7816 124.863 58.2734 126.117C60.1161 127.663 63.319 129.297 64.1087 129.122C64.372 129.063 64.6352 128.713 64.723 128.363C64.8107 127.926 65.1179 127.751 65.6005 127.809C66.2147 127.897 66.3025 128.188 66.2147 129.238L66.0831 130.58L67.4871 130.434C68.7156 130.317 69.1105 130.434 70.1635 131.28C71.041 131.98 71.392 132.097 71.392 131.747C71.392 131.484 72.094 130.726 72.9715 130.084C74.2 129.209 74.7265 128.976 75.1214 129.209C75.5601 129.442 76.1744 129.413 77.359 129.063C78.2365 128.83 79.0701 128.684 79.2017 128.772C79.3333 128.859 79.2456 129.501 78.9823 130.23C78.6313 131.309 78.6313 131.542 79.1578 131.542C79.7721 131.542 79.9037 131.367 80.3863 129.967C80.6496 129.18 80.7373 129.151 82.4046 129.297C84.4228 129.472 85.8707 130.201 85.8707 131.047C85.8707 131.601 85.9146 131.601 86.7043 131.134C87.187 130.842 87.6696 130.259 87.8451 129.851L88.1522 129.063L88.8103 129.909C89.293 130.492 89.4246 131.192 89.2491 132.184C88.9858 133.497 89.0297 133.584 89.8195 133.293C90.9602 132.884 91.5745 132.067 91.5745 130.988C91.5745 129.938 92.2326 129.851 94.2508 130.551C96.2252 131.222 96.664 130.93 96.9711 128.976C97.1027 127.984 97.3221 127.08 97.4537 126.905C97.9363 126.38 98.9016 126.876 99.6913 128.072C100.13 128.684 100.657 129.209 100.832 129.209C101.885 129.209 102.543 126.817 101.666 126.438C101.008 126.176 101.973 125.417 102.938 125.417C103.333 125.417 104.123 125.651 104.693 125.913L105.746 126.38L105.483 125.067C105.22 123.813 105.527 123.376 106.711 123.376C106.799 123.376 106.799 123.988 106.667 124.747C106.536 125.534 106.624 129.034 106.887 132.563C107.194 136.093 107.501 140.643 107.677 142.655L107.94 146.33L103.816 147.234C97.1905 148.663 90.697 149.684 89.5123 149.48C88.8981 149.393 88.1522 149.451 87.8012 149.655C87.3186 149.918 85.6075 149.947 81.5271 149.801C66.2147 149.276 50.683 146.593 41.908 143.005C40.1969 142.305 38.749 141.78 38.6613 141.838C38.5735 141.868 39.4071 142.684 40.504 143.647C41.557 144.609 42.4345 145.513 42.4345 145.659C42.4345 145.805 42.8732 146.505 43.3559 147.205C44.365 148.605 44.1895 149.072 42.8294 148.518C42.259 148.284 41.3815 148.197 40.5479 148.343C39.2316 148.518 39.1878 148.547 40.153 148.78C41.557 149.13 41.3376 149.538 39.802 149.393C38.8806 149.305 38.4858 149.393 38.4858 149.655C38.4858 150.443 40.2407 151.959 41.2937 152.134C41.908 152.222 42.6977 152.63 43.0926 153.009C43.4436 153.388 44.0579 153.709 44.4089 153.709C45.2425 153.709 45.2425 154.001 44.365 154.818C44.014 155.168 43.9262 155.459 44.1456 155.459C44.4089 155.459 44.6282 155.576 44.6282 155.722C44.6282 155.868 41.3815 156.043 37.4328 156.101C33.484 156.13 30.0618 156.276 29.8863 156.422C28.9649 157.034 32.5626 159.689 35.0196 160.155C36.3798 160.447 36.643 160.593 36.2481 160.914C35.9849 161.118 35.3706 161.293 34.888 161.293C34.3615 161.293 34.0983 161.439 34.2738 161.643C34.3615 161.847 34.7125 162.518 35.0196 163.101C35.5023 164.122 35.6778 164.209 37.2573 164.209C38.8368 164.209 38.8806 164.239 38.398 164.793C37.9593 165.259 38.0031 165.522 38.6174 166.251C39.1 166.776 39.3194 167.389 39.1439 167.709C38.8806 168.205 39.0561 168.293 40.4601 168.293C41.3376 168.293 43.4436 168.497 45.1109 168.759C48.0505 169.197 48.7525 169.197 50.3759 168.759C50.8146 168.614 51.2095 168.789 51.5605 169.314C52.2186 170.247 52.6135 170.247 54.9389 169.168C55.9919 168.672 57.001 168.293 57.1765 168.293C57.3081 168.293 58.2295 168.759 59.1509 169.314C60.1161 169.868 61.2569 170.334 61.7395 170.334C62.7486 170.334 64.1087 169.43 64.8107 168.264C65.3811 167.359 65.9515 167.184 66.2147 167.768C66.4341 168.147 68.584 167.68 71.5675 166.601C72.4011 166.339 72.9276 166.28 73.0154 166.455C73.1031 166.63 73.4541 166.98 73.7612 167.272C74.2877 167.768 74.4632 167.768 76.8325 167.039C79.816 166.134 80.2547 166.397 79.114 168.439C78.3681 169.693 78.2803 169.722 75.4285 170.159C67.0922 171.414 61.9589 171.764 60.3355 171.18C59.5457 170.889 59.5019 170.947 59.7651 171.53L60.0722 172.172L54.1052 171.997C50.8146 171.909 48.0505 171.968 47.9189 172.084C47.7872 172.23 48.5331 172.726 49.5422 173.193C50.5952 173.689 52.1309 174.534 52.9206 175.118C53.7542 175.701 54.8072 176.168 55.246 176.168C56.2551 176.168 56.2551 176.547 55.1582 177.189C54.193 177.772 54.3685 178.151 55.7725 178.501C56.6061 178.705 56.5184 178.764 54.8072 179.23C53.3155 179.639 53.0522 179.814 53.4471 180.134C54.0614 180.63 57.9224 181.418 59.809 181.418C61.6517 181.418 62.4415 182.03 61.3885 182.643C60.9936 182.905 60.2039 183.197 59.6335 183.284C59.107 183.401 58.4489 183.751 58.2295 184.072C57.703 184.684 57.5275 184.626 63.2751 185.968C69.5054 187.426 72.1817 187.426 74.8581 185.91C76.3937 185.064 76.9202 185.151 77.3151 186.347L77.5784 187.193L79.1578 186.785C79.9915 186.551 81.571 186.376 82.6678 186.435L84.6861 186.522L82.6678 188.155C80.167 190.197 78.4558 190.751 71.392 191.918C60.2916 193.697 57.2642 193.814 48.4892 192.793C46.8659 192.589 45.2864 192.501 45.0231 192.56C44.6721 192.647 45.1986 193.172 46.2955 193.901C47.9189 194.98 48.0066 195.126 47.2169 195.272C46.5149 195.418 44.1895 197.11 44.1895 197.489C44.1895 197.547 45.2864 197.547 46.6026 197.518C48.4892 197.43 49.0157 197.489 49.0157 197.839C49.0157 198.305 47.4801 199.705 46.1639 200.405C45.4619 200.814 45.3741 201.047 45.769 201.718C46.2077 202.622 47.1291 202.739 49.5422 202.33C50.5514 202.155 50.683 202.214 50.4636 202.593C50.2004 203.03 50.5952 203.06 54.4124 202.855L58.6682 202.651V203.555C58.6682 204.255 58.9315 204.547 59.7212 204.751C60.2916 204.897 61.1252 204.955 61.564 204.897C65.2495 204.401 65.2495 204.401 65.2495 205.393V206.297L68.7595 206.122C71.6552 205.976 72.2695 206.005 72.2695 206.355C72.2695 206.91 72.4889 206.91 76.2621 206.326L79.2895 205.86L81.22 206.618C82.4923 207.114 83.8525 207.376 85.081 207.376C87.3625 207.376 87.8451 207.58 88.24 208.601C88.4593 209.243 88.7665 209.418 89.7317 209.418C90.9602 209.418 95.4793 208.951 96.9272 208.66C97.4976 208.543 97.6292 208.63 97.4537 208.951C97.3221 209.214 97.3221 209.418 97.4976 209.418C97.9802 209.418 100.437 208.251 102.017 207.26L103.421 206.385V209.768V213.122L101.008 212.772C98.068 212.306 96.9272 212.481 96.5762 213.414C96.313 214.085 96.1813 214.114 93.5927 213.939C92.1448 213.851 86.7921 213.647 81.7465 213.501C76.7009 213.326 72.445 213.151 72.2695 213.064C72.094 213.006 69.1105 212.801 65.6005 212.656C62.0466 212.481 58.1417 212.189 56.8255 212.014C49.981 211.11 40.855 209.622 40.6356 209.389C40.2846 208.98 32.2116 207.172 28.3945 206.647C26.5956 206.385 23.6121 206.064 21.8133 205.947C20.0144 205.83 18.1716 205.626 17.7768 205.48C17.1625 205.335 16.987 205.422 16.987 205.889C16.987 206.297 16.7676 206.443 16.3289 206.326C15.9779 206.21 15.6708 206.297 15.6708 206.472C15.6708 206.647 15.9779 206.793 16.3289 206.793C16.7676 206.793 16.987 206.997 16.8993 207.289C16.7676 207.726 17.2503 207.843 19.9705 207.989C24.0948 208.193 24.8406 208.601 23.6999 210.089C23.0418 210.964 22.6469 211.168 21.5939 211.168C20.8919 211.168 19.9705 211.285 19.6634 211.431C19.1369 211.664 19.2246 211.781 20.1021 211.985C20.6725 212.16 22.0326 212.393 23.1295 212.539L25.1039 212.801L23.2611 213.618L21.3745 214.435L22.2959 215.222L23.2173 215.981L20.5848 216.068C18.6543 216.126 17.7768 216.301 17.2064 216.71C16.4605 217.264 16.4605 217.293 17.9961 217.731C18.8736 217.964 20.6286 218.168 21.901 218.168L24.2264 218.197L22.954 218.926C21.4184 219.831 21.901 220.21 24.5774 220.21C26.2885 220.21 26.5518 220.443 25.6743 221.026C24.9723 221.493 25.411 221.464 29.2281 220.793C32.6065 220.181 33.5718 220.21 31.8606 220.793C30.1934 221.406 23.656 224.906 23.3928 225.343C23.0856 225.897 24.6213 225.897 25.2794 225.343C26.3324 224.497 31.8606 222.193 32.6065 222.31C34.2299 222.514 33.6156 223.156 30.6321 224.439C27.7803 225.664 25.762 226.947 25.762 227.531C25.762 227.676 26.3763 227.793 27.0783 227.793C28.7455 227.793 28.7455 228.085 27.0783 228.901C25.1039 229.893 25.4988 230.243 27.6486 229.397C28.7016 228.989 30.0618 228.668 30.6321 228.668C31.9923 228.668 35.5023 229.368 35.1951 229.572C35.0635 229.66 35.239 230.243 35.5461 230.856L36.1165 231.964L37.5205 230.826C38.7929 229.806 41.557 225.956 41.557 225.197C41.557 224.701 42.6539 224.818 43.8824 225.489C45.5057 226.306 46.2077 227.997 45.5057 229.368C45.1986 229.981 45.067 230.506 45.1547 230.564C45.6374 230.885 49.1912 229.339 51.2095 227.91C53.4032 226.364 53.491 226.335 55.948 226.335C57.3081 226.335 58.756 226.481 59.107 226.626C59.6774 226.86 59.6774 226.918 59.0631 226.918C58.6682 226.918 58.0101 227.181 57.5714 227.501C57.0887 227.851 56.2112 228.085 55.3776 228.085C53.7542 228.085 53.2277 228.318 53.842 228.814C54.193 229.106 53.6226 229.281 51.4289 229.543C49.8494 229.747 48.4454 230.039 48.3137 230.185C48.1821 230.331 47.524 230.593 46.9097 230.768C45.8129 231.06 45.769 231.089 46.6026 231.293C47.0852 231.439 48.7086 231.556 50.2004 231.556C51.6921 231.585 53.0522 231.731 53.1839 231.876C53.3594 232.081 54.193 231.76 55.246 231.147C56.5622 230.331 57.1326 230.156 57.5714 230.418C57.8785 230.593 58.054 231.001 57.9224 231.293C57.7907 231.672 57.9224 231.876 58.2734 231.876C58.6244 231.876 58.0101 232.431 56.9132 233.072L54.9389 234.239L57.1326 234.064C60.7304 233.772 61.4324 233.685 63.0557 233.364C63.8894 233.189 65.074 233.043 65.6882 233.043C67.1361 233.043 69.8564 232.081 71.9624 230.797C73.5857 229.835 73.6735 229.806 74.2877 230.331C74.8581 230.826 74.9459 230.826 76.0427 230.01C76.8764 229.368 77.2712 229.251 77.5345 229.543C77.71 229.747 78.061 229.835 78.2803 229.747C78.5436 229.631 79.3333 229.951 80.0353 230.418C80.7812 230.914 81.8781 231.468 82.5362 231.701L83.677 232.081L82.3607 232.46C81.6587 232.664 81.0445 233.014 81.0445 233.218C81.0445 233.976 81.922 233.626 84.4667 231.876C85.9146 230.914 87.3625 230.126 87.7573 230.126C88.1961 230.126 88.5032 229.922 88.5032 229.689C88.5032 229.456 88.8103 229.251 89.1613 229.251C89.5562 229.251 89.8195 229.514 89.8195 229.981V230.739L91.4867 229.893C92.7152 229.251 93.7682 228.989 95.7426 228.843C97.1905 228.756 98.8138 228.581 99.3403 228.493C100.218 228.318 100.262 228.406 100.042 229.514C99.823 230.593 99.9107 230.71 100.7 230.71C101.227 230.71 101.929 230.418 102.28 230.068C102.894 229.514 102.982 229.485 103.245 229.951C103.421 230.214 103.333 232.197 103.026 234.297C102.763 236.426 102.543 238.818 102.543 239.664C102.543 240.831 102.412 241.152 101.929 241.035C101.49 240.918 101.271 241.297 101.051 242.435C100.393 246.372 100.657 246.081 96.664 246.927C85.1687 249.347 74.551 250.31 59.3264 250.31C51.4727 250.31 48.0066 250.164 40.8989 249.552C36.0726 249.114 30.4566 248.531 28.4384 248.239C26.3763 247.918 24.5774 247.714 24.4458 247.772C24.1825 247.889 21.7694 247.51 15.232 246.314C10.2303 245.439 0.270655 244.068 0.00740538 244.243C-0.0803446 244.302 0.621655 244.652 1.5869 245.002C2.50828 245.381 3.21028 245.818 3.12253 245.993C2.9909 246.197 3.42965 246.518 4.00003 246.752C4.87753 247.043 5.05303 247.277 4.87753 247.831C4.65815 248.414 4.83365 248.589 6.41315 249.027C7.3784 249.289 8.21202 249.61 8.21202 249.697C8.21202 249.872 5.88665 250.689 4.5704 250.952C3.8684 251.097 3.91228 251.185 4.78978 251.885C5.36015 252.293 5.84278 252.789 5.84278 252.964C5.88665 253.168 5.93053 253.46 5.9744 253.664C5.9744 253.839 6.5009 254.393 7.11515 254.86L8.21202 255.735L6.76415 256.114L5.36015 256.522L7.77327 256.668L10.1864 256.814L7.99265 257.485C5.36015 258.302 5.84278 258.681 9.52827 258.739C10.8445 258.739 11.6343 258.827 11.2833 258.914C8.2559 259.672 8.34365 259.643 9.3089 259.877C9.79152 260.022 11.0639 260.139 12.1608 260.168C13.828 260.168 14.0035 260.227 13.3015 260.518C12.5118 260.81 12.5118 260.839 13.5209 261.218C14.0913 261.422 15.583 261.627 16.7676 261.627C18.4349 261.627 18.7859 261.714 18.3033 261.947C17.8206 262.181 18.0839 262.21 19.3124 262.064C21.1113 261.889 21.199 262.006 20.2776 263.085C19.1808 264.398 19.4001 264.602 21.8133 264.485C23.0418 264.456 24.007 264.485 24.007 264.573C24.007 264.689 23.305 265.185 22.4714 265.681C21.6378 266.177 20.9358 266.789 20.9358 267.052C20.9358 267.489 21.2868 267.518 23.7876 267.343C26.815 267.139 31.8168 267.548 33.5279 268.131L34.5809 268.51L33.5718 269.123C33.0014 269.473 31.5974 270.114 30.4128 270.581C29.2281 271.048 28.1751 271.573 28.0435 271.777C27.9558 271.952 28.4823 272.535 29.272 273.031C30.5444 273.906 30.7638 273.935 33.4401 273.818C35.0196 273.76 36.292 273.731 36.292 273.731C36.292 273.76 35.3268 274.606 34.0983 275.656C32.2555 277.26 32.0361 277.523 32.7381 277.61C33.1769 277.668 34.888 277.289 36.5553 276.793C38.1786 276.327 39.5826 275.977 39.7143 276.035C39.802 276.123 39.6704 276.589 39.4071 277.114C38.398 279.098 38.749 279.185 42.7855 278.106C44.2772 277.698 45.5935 277.377 45.769 277.377C45.9006 277.377 45.9445 278.106 45.8567 278.981C45.7251 280.702 46.0322 280.906 47.4362 280.031C47.9627 279.71 48.7525 279.418 49.2351 279.36C49.981 279.273 50.0687 279.418 49.981 280.235C49.8494 281.139 49.8932 281.198 50.8585 281.023C53.0084 280.585 57.001 279.01 57.7469 278.281C58.1856 277.873 58.756 277.114 58.9754 276.648C59.4141 275.743 59.6335 275.714 62.0466 276.064C63.2751 276.268 63.67 276.152 64.8107 275.335C65.5127 274.81 66.127 274.518 66.127 274.664C66.127 274.81 66.3902 275.16 66.6974 275.452C67.2239 275.948 67.3994 275.948 68.584 275.539C69.286 275.306 70.1196 274.781 70.4267 274.402C71.1726 273.527 73.3664 273.381 74.0245 274.168C74.6826 275.014 75.6479 274.898 76.4376 273.877C77.2274 272.856 77.1835 272.856 78.8507 273.439C80.0353 273.848 80.2986 273.848 81.4832 273.439C82.273 273.177 83.2382 273.06 83.7647 273.148C84.9055 273.41 84.5106 273.585 80.9128 274.577C78.6752 275.218 78.0171 275.51 78.1487 275.889C78.2803 276.152 78.4997 276.735 78.6313 277.231C79.2017 278.893 79.3333 279.127 79.9915 279.127C80.3425 279.127 80.7373 278.923 80.869 278.689C81.0006 278.456 81.5271 278.193 82.0536 278.077C82.5801 277.96 83.7208 277.523 84.5545 277.085C86.0901 276.298 90.2582 275.598 90.2582 276.152C90.2582 276.56 86.9676 278.193 85.6952 278.427C83.677 278.748 84.4228 279.214 86.7482 279.068C88.8981 278.923 88.942 278.923 88.942 279.739C88.942 280.206 89.1175 280.585 89.3368 280.585C89.6001 280.585 89.8195 281.081 89.9072 281.664C90.0388 282.918 89.9511 282.948 92.8907 280.585C93.6805 279.973 94.207 279.739 94.207 280.002C94.207 280.673 88.7665 283.881 84.1596 285.952C73.2786 290.794 59.809 294.41 40.1969 297.735C36.4675 298.377 32.3433 298.989 31.027 299.106C29.7108 299.194 26.5518 299.719 24.007 300.244C21.4623 300.769 17.6451 301.498 15.4514 301.848C8.51915 302.985 8.16815 303.044 8.47527 303.394C8.69465 303.627 11.2833 303.656 17.2941 303.51C25.6304 303.306 25.8059 303.306 25.3671 303.86C25.0161 304.269 24.2264 304.502 22.4714 304.648C21.1551 304.735 19.8828 304.764 19.6195 304.648C18.9175 304.356 19.093 304.852 20.0583 305.902C20.5409 306.427 21.6378 307.127 22.4714 307.448C24.358 308.206 24.4019 308.469 22.6908 309.11C21.1551 309.694 21.0674 310.044 22.252 310.773C22.7346 311.064 23.1295 311.56 23.1295 311.881C23.1295 312.406 23.3489 312.435 25.762 312.289L28.3945 312.144L27.4731 313.135C26.4201 314.273 26.5518 314.623 27.868 314.156C29.623 313.544 30.2811 313.748 29.974 314.827L29.7108 315.79L31.7729 315.556C33.5718 315.323 46.8659 314.419 48.4454 314.419C48.9719 314.419 48.7086 315.498 48.0505 316.081C47.4801 316.548 49.1474 317.219 51.8676 317.627C56.3867 318.269 56.4306 318.356 53.7542 320.165C52.1747 321.244 51.9992 321.448 52.5257 321.885C53.0522 322.265 53.6226 322.323 55.597 322.177C57.703 322.002 58.2734 322.09 59.1947 322.556L60.3355 323.169L63.7577 322.235C67.3994 321.273 68.7595 320.66 68.935 319.844C68.9789 319.581 69.1544 319.377 69.3299 319.377C69.5054 319.377 69.8125 319.377 69.988 319.377C70.2074 319.377 70.6022 319.698 70.8655 320.106L71.3481 320.835L72.9276 320.106C74.7265 319.319 75.1652 319.202 78.1048 318.94C80.4741 318.735 80.6935 318.356 79.2456 317.044C78.3242 316.256 78.3242 316.169 79.0262 315.469C79.4211 315.06 80.0792 314.594 80.4741 314.448C80.9128 314.302 81.7465 313.573 82.3607 312.844C82.9311 312.114 83.5453 311.502 83.677 311.502C84.379 311.502 86.3972 313.135 86.6166 313.864C87.0992 315.498 88.591 314.506 88.4155 312.669L88.2838 311.414L90.9163 310.773C93.3295 310.16 93.6366 310.131 94.558 310.539C95.8303 311.064 96.0497 310.919 96.6201 309.373C96.9711 308.469 97.3221 308.148 97.9363 308.148C98.77 308.148 98.8138 308.352 98.8138 311.064C98.77 312.669 98.6822 315.352 98.5945 317.044C98.4628 318.969 98.6383 320.806 98.9893 322.002C99.472 323.548 99.5158 326.29 99.121 337.402C98.77 346.794 98.77 351.665 99.0771 353.444C99.472 355.661 99.4281 356.186 98.8138 357.177C97.4976 359.19 97.2782 359.948 97.2343 363.04C97.1466 365.752 97.0588 366.102 96.2252 366.481L95.3477 366.919H96.313C96.8395 366.919 98.068 367.24 99.0332 367.648C99.9985 368.056 101.227 368.377 101.753 368.377C102.324 368.377 104.167 368.552 105.878 368.786C109.563 369.252 122.243 368.902 125.139 368.261C126.104 368.027 128.342 367.765 130.141 367.648C131.939 367.531 134.396 367.211 135.581 366.948L137.775 366.452L135.932 366.073L134.089 365.723L135.011 364.965C136.546 363.652 136.108 362.981 133.738 363.069C133.212 363.069 133.168 361.931 133.387 355.602C133.563 350.527 133.431 346.502 133.036 343.148C132.554 338.948 132.554 338.102 133.08 337.606C133.431 337.285 133.694 336.731 133.694 336.352C133.694 335.973 134.002 334.952 134.353 334.106C134.967 332.765 135.011 331.627 134.616 325.735C134.002 316.927 133.343 308.906 132.992 306.602C132.817 305.61 132.861 304.794 132.992 304.794C133.563 304.794 135.406 307.827 135.581 309.023C135.669 309.664 135.888 310.394 136.02 310.627C136.195 310.86 136.371 311.648 136.415 312.377C136.502 313.427 136.722 313.689 137.424 313.777C139.574 313.981 140.188 314.506 141.855 317.306C142.733 318.852 143.61 320.223 143.786 320.34C144.268 320.69 146.594 319.844 147.866 318.823C148.875 318.006 149.007 317.977 149.621 318.444C149.972 318.706 150.674 319.465 151.157 320.106C152.21 321.477 153.614 322.44 154.272 322.148C154.535 322.06 154.754 321.215 154.754 320.31C154.754 318.269 155.149 317.831 156.773 317.977C157.913 318.065 158.045 318.21 158.528 319.756C158.791 320.69 159.712 322.498 160.502 323.781C162.169 326.348 163.003 326.669 164.846 325.356C165.986 324.54 166.601 324.423 166.601 325.006C166.601 325.24 167.303 325.881 168.136 326.465L169.716 327.544L170.111 326.785C170.374 326.377 170.725 326.115 170.944 326.202C171.164 326.319 172.261 327.34 173.401 328.506C175.727 330.869 178.535 332.94 180.246 333.523C181.694 334.048 181.957 333.873 181.957 332.473C181.957 331.365 182.001 331.365 183.142 331.656C183.756 331.802 185.072 332.415 186.037 332.969C186.959 333.552 187.88 333.931 188.012 333.815C188.187 333.698 188.407 332.706 188.538 331.598L188.758 329.585L190.907 330.752C192.487 331.627 193.408 331.919 194.549 331.919H196.129L195.821 330.315C195.69 329.44 195.69 328.71 195.821 328.71C195.997 328.71 196.743 329.031 197.489 329.41C199.2 330.285 202.359 331.335 203.192 331.335C204.158 331.335 203.368 330.052 201.262 328.185C200.297 327.34 199.507 326.581 199.507 326.494C199.507 326.173 204.991 326.698 205.298 327.048C205.562 327.31 205.649 327.281 205.649 327.019C205.649 326.815 206.132 326.202 206.702 325.706C207.273 325.181 207.887 324.481 208.063 324.102C208.457 323.227 209.73 322.819 211.924 322.906C213.766 322.994 213.766 322.994 213.679 322.031L213.635 321.04L216.881 321.215C218.636 321.331 221.006 321.331 222.102 321.215L224.077 321.04L221.05 320.369C219.382 319.99 216.662 319.465 215.039 319.202L212.055 318.706L213.547 318.356C214.337 318.181 215.126 317.86 215.214 317.685C215.302 317.481 214.381 316.927 213.152 316.431L210.914 315.498L212.143 315.002C212.801 314.71 213.898 314.069 214.6 313.514L215.828 312.552L214.863 312.319L213.854 312.085L214.819 311.531C216.267 310.685 215.214 310.539 212.362 311.181C207.887 312.173 199.726 313.252 196.655 313.252C192.838 313.252 187.529 312.231 180.685 310.131C179.632 309.81 179.105 309.781 178.754 310.014C178.096 310.452 176.999 310.423 177.262 309.956C177.613 309.373 177.306 309.169 173.182 307.273C163.793 302.985 156.904 299.194 153.614 296.598C151.815 295.139 150.367 293.914 150.367 293.827C150.367 293.769 151.332 294.031 152.517 294.41C153.658 294.819 155.018 295.081 155.456 294.994C156.071 294.906 157.65 295.694 161.116 297.852C169.189 302.869 171.295 303.773 173.621 303.335C174.893 303.102 175.156 303.16 176.604 304.181L178.228 305.289L184.809 305.435C190.425 305.581 191.785 305.523 194.023 305.056C196.918 304.444 199.726 304.327 200.165 304.794C200.735 305.435 201.262 305.027 201.262 303.948C201.262 302.781 201.964 302.314 203.236 302.635C204.114 302.869 204.07 302.198 203.192 301.352C202.271 300.448 202.666 300.244 204.596 300.652C205.957 300.914 206.264 300.885 207.01 300.389C207.448 300.098 207.843 299.66 207.843 299.427C207.843 299.223 208.282 298.698 208.765 298.26C209.686 297.502 209.686 297.444 208.896 297.064C208.414 296.831 207.799 296.627 207.536 296.627C206.439 296.627 207.01 296.16 209.642 295.023C211.046 294.381 213.152 293.244 214.249 292.514L216.267 291.173L206.22 291.319C194.944 291.464 187.222 291.027 178.447 289.714C168.751 288.285 156.158 285.077 157.299 284.318C157.65 284.085 158.089 284.056 158.879 284.318C160.283 284.727 160.546 284.493 159.8 283.502C159.274 282.831 159.274 282.627 159.756 282.364C160.327 282.043 160.59 282.131 164.626 283.589C166.469 284.26 168.663 284.231 169.321 283.502C170.067 282.714 170.418 282.773 170.769 283.706C171.734 286.389 172.436 287.585 173.006 287.585C173.401 287.585 173.621 287.264 173.621 286.71C173.621 285.602 174.059 285.602 178.052 286.827C182.352 288.139 183.712 288.343 183.712 287.673C183.712 287.41 183.361 286.943 182.966 286.623C182.308 286.127 182.264 286.01 182.791 285.893C183.142 285.806 183.887 285.456 184.414 285.077C185.248 284.552 185.511 284.493 185.906 284.814C186.169 285.048 187.046 285.31 187.792 285.427C188.582 285.543 189.767 286.068 190.556 286.652L191.873 287.673L192.838 286.593C193.803 285.514 193.891 285.485 195.778 285.689L197.752 285.864V284.814C197.752 283.502 198.454 283.298 201.043 283.881C202.798 284.289 203.763 284.143 202.578 283.648C202.359 283.56 202.139 283.298 202.139 283.093C202.139 282.773 202.534 282.773 204.377 283.123C205.606 283.356 207.097 283.473 207.755 283.356L208.94 283.152L207.624 282.685L206.308 282.218L209.159 281.868C213.854 281.256 214.424 281.139 215.302 280.293L216.136 279.506L215.039 279.127C213.635 278.602 214.424 278.252 216.969 278.252C218.944 278.252 220.742 277.814 220.391 277.406C220.128 277.143 223.331 275.335 224.033 275.335C225.042 275.335 224.472 274.781 223.155 274.489C222.278 274.285 221.532 274.285 221.006 274.46C220.172 274.752 217.627 274.548 217.276 274.168C217.013 273.877 220.742 272.302 222.761 271.864C223.594 271.66 225.569 271.077 227.148 270.523L230 269.531L226.051 269.735C223.901 269.852 216.794 269.939 210.256 269.91C200.604 269.881 197.269 269.764 192.18 269.268C181.387 268.189 171.339 266.498 161.336 264.077C154.974 262.502 142.82 258.389 137.204 255.852L132.159 253.577V247.597C132.159 240.539 132.51 238.206 133.607 238.41C139.003 239.343 139.486 239.547 137.204 239.897C136.502 240.014 135.888 240.218 135.888 240.393C135.888 241.152 141.767 248.268 142.952 248.939C145.365 250.281 147.471 250.252 149.928 248.881C151.288 248.152 151.332 248.122 152.824 248.589C154.579 249.143 157.387 249.26 157.387 248.764C157.387 248.56 155.72 247.247 153.658 245.847C149.665 243.106 148.787 241.968 151.288 242.843C152.605 243.281 152.692 243.281 152.385 242.785C151.815 241.822 151.552 240.335 151.946 240.335C152.648 240.335 154.623 241.327 155.851 242.318C156.509 242.843 157.65 243.485 158.352 243.718C159.449 244.097 159.756 244.097 160.897 243.718L162.169 243.31L163.573 245.906C164.89 248.385 165.021 248.502 165.767 248.035C166.952 247.335 168.268 247.685 171.822 249.668C174.937 251.389 176.122 251.827 175.683 251.01C174.454 248.939 174.367 248.181 175.112 247.16L175.814 246.11L177.218 246.664C177.964 246.956 179.895 248.414 181.43 249.931C183.8 252.177 184.37 252.556 184.721 252.147C184.94 251.885 185.028 251.272 184.94 250.777C184.721 249.872 184.897 249.843 186.915 250.397C187.529 250.572 187.661 250.456 187.661 249.843C187.661 249.114 187.748 249.085 190.337 249.085H193.057L191.96 248.152C191.39 247.656 189.372 246.635 187.529 245.906C184.633 244.739 184.238 244.506 184.853 244.214C185.73 243.777 189.109 243.427 190.293 243.631C191.434 243.835 191.434 243.252 190.293 242.289C189.811 241.881 189.416 241.502 189.416 241.443C189.416 241.414 191.522 241.356 194.154 241.356C198.629 241.356 202.403 240.86 201.92 240.364C201.832 240.247 198.893 239.577 195.47 238.877C192.004 238.177 188.889 237.476 188.538 237.272C188.187 237.068 186.739 236.485 185.379 235.96C183.975 235.464 182.834 234.91 182.834 234.764C182.834 234.356 183.405 234.443 186.476 235.376C188.582 236.018 190.074 236.251 191.829 236.251C194.417 236.251 194.637 236.135 193.496 235.318C192.487 234.56 193.233 234.151 195.953 233.976C198.41 233.831 198.673 233.51 197.489 232.314C196.523 231.351 197.006 231.001 199.288 231.001C200.341 231.001 201.701 230.885 202.315 230.71L203.456 230.418L201.832 229.397C200.428 228.551 200.297 228.347 200.823 228.085C201.174 227.939 202.271 227.793 203.236 227.793C205.562 227.793 207.053 227.501 206.834 227.093C206.746 226.918 205.474 226.481 203.982 226.101C202.49 225.722 201.262 225.314 201.262 225.168C201.262 225.051 201.964 224.847 202.841 224.76C204.816 224.497 206.088 223.651 206.088 222.543C206.088 222.047 206.395 221.172 206.746 220.618L207.404 219.568L205.167 219.772C202.271 220.035 202.622 219.626 205.957 218.81C207.361 218.46 208.896 217.993 209.379 217.76C210.169 217.351 209.993 217.322 206.878 217.293H203.543L204.86 216.389C205.869 215.718 206.088 215.426 205.693 215.164C205.298 214.901 204.991 214.901 204.333 215.193C202.973 215.747 190.337 218.372 187.222 218.751C185.642 218.926 182.308 219.393 179.763 219.772C162.257 222.485 159.581 222.689 153.658 221.668C151.771 221.347 149.621 221.085 148.831 221.085C147.91 221.085 147.076 220.822 146.243 220.239C145.409 219.656 144.4 219.335 143.04 219.189C141.943 219.072 140.714 218.868 140.32 218.722C139.925 218.576 137.95 218.197 135.888 217.906C133.08 217.468 132.422 217.293 133.168 217.147C134.484 216.856 134.396 216.418 133.036 216.418H131.939V213.21V210.001L133.607 209.972C134.484 209.972 135.625 209.855 136.108 209.739C137.117 209.476 138.257 210.293 138.74 211.547C139.135 212.539 139.574 212.539 141.46 211.576C142.469 211.08 143.128 210.935 143.566 211.11C144.181 211.314 144.181 211.401 143.479 211.81C143.04 212.043 141.899 212.422 140.978 212.626C139.749 212.889 139.442 213.064 139.881 213.21C140.671 213.501 147.076 214.668 148.963 214.872C149.928 214.989 150.542 215.251 150.806 215.66C150.981 216.01 151.464 216.476 151.903 216.71C152.517 217.06 152.736 217.001 153.614 216.272L154.667 215.426L156.334 216.389C157.957 217.351 158.001 217.381 161.248 217.176C163.486 217.06 164.714 217.118 165.153 217.351C165.635 217.614 166.118 217.468 167.434 216.593L169.145 215.485L171.208 216.535C173.401 217.672 174.41 217.643 175.376 216.418C175.683 216.039 176.297 215.835 177.131 215.835C178.447 215.835 179.763 215.193 179.763 214.522C179.763 214.289 181.123 213.939 183.405 213.589L187.003 213.035L184.809 212.276L182.659 211.518L184.589 211.314C188.626 210.876 188.363 210.643 183.361 210.147L181.43 209.943L182.396 209.272C182.878 208.922 183.405 208.135 183.58 207.551C183.712 206.968 184.019 206.501 184.282 206.501C185.072 206.501 183.536 205.539 182.089 205.13C181.299 204.926 179.237 204.751 177.482 204.751C167.303 204.751 156.729 202.418 147.866 198.218C143.171 196.001 136.81 191.918 133.519 188.943L131.018 186.697L130.579 182.672C130.36 180.455 129.965 177.539 129.746 176.168C129.219 173.134 129.219 172.989 129.746 173.543C130.097 173.922 130.228 173.864 130.448 173.339C130.886 172.289 131.369 172.814 131.676 174.68C131.852 175.759 132.334 176.693 132.905 177.189C134.133 178.239 134.616 177.655 134.089 175.73C133.694 174.418 133.782 174.214 134.616 173.776C135.098 173.484 135.713 173.339 135.932 173.397C136.151 173.484 136.853 174.33 137.468 175.264C138.608 176.926 138.696 176.984 139.881 176.693C141.504 176.314 142.733 176.78 143.566 178.064C144.137 179.055 145.19 179.405 145.76 178.793C145.892 178.647 146.594 178.589 147.252 178.676C148.349 178.822 148.568 178.734 149.007 177.889L149.533 176.926L150.323 177.801C151.288 178.88 153.438 180.105 155.676 180.834C157.782 181.564 158.264 181.564 158.264 180.893C158.264 180.572 158.791 179.872 159.493 179.289C160.414 178.414 160.941 178.209 161.994 178.268C163.749 178.326 166.03 177.976 168.005 177.305C169.804 176.693 171.646 176.576 172.085 177.043C172.612 177.626 175.814 178.501 177.306 178.501C178.403 178.501 178.973 178.326 179.324 177.947C180.158 176.868 181.123 176.459 182.878 176.459H184.589L184.414 175.059L184.238 173.63L186.608 173.776C188.889 173.893 188.977 173.893 188.977 173.164C188.977 172.755 188.801 172.318 188.538 172.23C188.319 172.143 188.099 171.793 188.099 171.472C188.099 170.918 188.319 170.918 191.39 171.093C194.198 171.268 194.681 171.239 194.681 170.83C194.681 170.189 192.662 169.226 190.907 168.993C188.933 168.759 189.021 168.468 191.215 168.001C193.891 167.418 195.119 166.659 195.119 165.639C195.119 164.909 194.856 164.676 193.584 164.326C192.75 164.122 191.697 163.918 191.215 163.918C190.732 163.918 190.205 163.655 190.074 163.305C189.723 162.605 190.864 161.672 193.672 160.389C194.725 159.893 195.778 159.251 196.041 158.901C196.48 158.347 196.436 158.318 195.076 158.493C194.242 158.58 192.487 158.726 191.171 158.814L188.758 158.989L189.986 158.376C192.399 157.093 191.434 156.947 186.476 157.851C183.931 158.318 181.562 158.639 181.255 158.551C180.992 158.493 180.334 158.609 179.851 158.814C178.491 159.455 168.707 160.651 162.213 161.001C155.72 161.322 149.446 161.059 145.76 160.272C144.575 160.039 142.382 159.689 140.846 159.543C139.31 159.368 136.941 158.901 135.537 158.493C132.203 157.53 127.552 155.43 127.552 154.876C127.552 154.643 127.42 154.118 127.245 153.709C126.982 153.097 127.069 153.038 127.64 153.33C128.166 153.651 128.429 153.447 129.263 152.076C129.833 151.201 130.404 150.53 130.579 150.588C130.711 150.647 131.676 150.938 132.685 151.259C133.914 151.609 134.572 151.988 134.572 152.368C134.572 152.805 134.835 152.863 135.976 152.776C136.766 152.688 138.608 152.863 140.1 153.126C141.548 153.418 144.224 153.797 146.023 153.972C147.822 154.176 149.84 154.409 150.542 154.497L151.815 154.643L151.508 153.418L151.244 152.222L152.78 153.009L154.316 153.797L156.115 152.426C159.01 150.238 160.414 150.034 161.292 151.697C161.599 152.251 162.038 152.543 162.608 152.543C163.837 152.543 163.749 152.134 162.213 150.647C161.511 149.947 160.897 149.247 160.897 149.072C160.897 148.488 161.862 148.751 163.003 149.626C164.275 150.588 165.504 150.793 165.109 149.976C164.89 149.597 165.241 149.393 166.469 149.13C168.487 148.722 168.794 148.809 170.111 150.209C170.681 150.851 171.471 151.434 171.778 151.522C172.568 151.697 173.489 151.23 173.84 150.472C174.016 150.093 174.542 149.918 175.376 149.918C176.341 149.918 176.824 149.684 177.526 148.868C178.271 148.051 178.666 147.847 179.412 147.963C180.685 148.197 181.694 147.788 182.834 146.563C183.624 145.718 183.975 145.572 184.853 145.718C185.642 145.863 186.125 145.718 186.783 145.163C187.354 144.697 188.45 144.318 189.854 144.084C191.653 143.793 192.048 143.618 192.048 143.093C192.048 142.13 193.189 141.226 194.725 141.022C196.26 140.788 196.787 140.205 195.997 139.563C195.69 139.33 195.602 138.922 195.734 138.659C195.953 138.28 195.778 138.251 194.593 138.397C193.408 138.572 193.277 138.543 193.54 138.105C193.715 137.726 193.628 137.638 193.145 137.784C192.794 137.872 192.487 137.843 192.487 137.697C192.487 137.551 193.013 137.347 193.672 137.23C195.821 136.88 200.823 135.509 200.823 135.276C200.823 134.897 198.673 135.013 197.62 135.451C197.094 135.655 195.821 135.918 194.812 136.034C193.277 136.18 192.926 136.122 192.926 135.772C192.926 135.422 192.75 135.363 192.092 135.626C191.083 135.976 188.977 136.005 188.187 135.655C187.792 135.509 188.275 135.276 189.723 134.897C196.129 133.293 202.578 130.522 198.542 131.105C197.752 131.222 192.487 132.359 186.783 133.584C174.981 136.209 169.935 136.997 162.74 137.376C159.888 137.522 155.895 137.784 153.789 137.959C149.709 138.309 147.34 138.163 138.521 137.084C131.808 136.268 129.702 135.801 127.903 134.634L126.367 133.643L126.104 129.909C125.578 123.142 125.709 117.863 126.499 115.647C127.201 113.605 127.289 113.576 129.439 112.788C131.852 111.942 132.51 112.059 132.992 113.313C133.212 113.926 133.563 114.042 134.835 114.042C136.02 114.042 136.678 113.809 137.643 113.138C138.608 112.409 139.135 112.263 139.969 112.409C141.285 112.613 141.855 112.234 142.25 110.747C142.557 109.697 142.601 109.667 144.488 109.667C146.023 109.667 146.55 109.522 147.12 108.938C147.471 108.559 147.691 108.092 147.515 107.917C147.252 107.626 147.515 107.509 149.621 107.217C150.499 107.072 150.806 107.13 150.806 107.48C150.806 108.034 151.42 108.034 152.122 107.48C152.429 107.247 153.438 106.897 154.36 106.722C156.071 106.372 157.606 105.613 157.913 104.971C158.045 104.738 158.308 104.709 158.923 104.913C160.063 105.321 166.162 105.584 166.162 105.234C166.162 105.088 165.855 104.913 165.504 104.826C164.188 104.476 164.89 103.688 167.171 102.93C168.443 102.521 170.681 101.734 172.217 101.209C174.805 100.276 174.937 100.159 174.718 99.4006C174.498 98.759 174.586 98.584 175.112 98.584C175.771 98.584 175.771 98.5256 175.112 97.8548C174.323 97.0673 174.586 96.5423 175.814 96.5423C176.253 96.5423 176.824 96.3673 176.999 96.1631C177.175 95.9589 178.271 95.3464 179.456 94.8214C182.44 93.4798 182.22 93.0131 178.666 93.2464C177.043 93.3339 175.814 93.3048 175.814 93.1589C175.814 92.5172 177.218 91.6714 178.842 91.2922C179.807 91.0881 181.518 90.4172 182.615 89.8047C183.756 89.1631 184.853 88.6672 185.072 88.6672C185.291 88.6672 185.467 88.5214 185.467 88.3756C185.467 88.1714 185.204 88.1714 184.721 88.3464C183.317 88.8131 176.999 90.1547 173.226 90.7381C167.39 91.6714 160.765 92.1672 153.833 92.1672C147.603 92.1672 147.252 92.1381 143.259 91.1756C140.978 90.6214 137.863 90.0381 136.283 89.8339C134.747 89.6589 133.036 89.4547 132.554 89.3672C130.974 89.1631 126.236 86.6255 126.236 86.013C126.236 84.963 124.525 83.1547 123.559 83.1255C123.428 83.1255 123.121 83.8255 122.857 84.6422C122.55 85.8964 122.419 84.7589 122.111 78.6922C121.892 73.5588 121.936 71.0504 122.243 70.6713C122.682 70.1754 122.682 70.1754 122.726 70.6713C122.726 70.9629 122.945 71.1088 123.164 71.0213C123.428 70.9338 123.603 70.3796 123.603 69.8254C123.603 69.1254 123.823 68.8338 124.261 68.8338C124.7 68.8338 124.919 69.1254 124.919 69.6504C124.919 70.1171 125.27 71.1379 125.665 71.9255C126.323 73.2088 126.411 73.2671 126.674 72.6255C127.113 71.4296 128.912 71.6338 129.877 72.9755C130.886 74.463 131.501 74.3755 131.501 72.7421C131.501 71.5463 131.588 71.4296 132.51 71.5171C133.212 71.5754 133.782 72.0713 134.616 73.2088L135.757 74.813L136.722 73.5588C137.248 72.888 137.819 72.3338 137.994 72.3338C138.17 72.3338 138.872 72.713 139.53 73.2088C140.232 73.6755 141.065 74.0838 141.416 74.0838C142.206 74.0838 142.162 73.2088 141.373 72.5088C141.022 72.188 140.714 71.5463 140.714 71.0796C140.714 70.2338 140.758 70.2338 141.504 70.6713C142.645 71.3713 143.347 71.2838 143.347 70.4671C143.347 68.4838 144.444 68.3671 146.33 70.1463C147.691 71.4296 149.621 72.3338 150.191 71.9546C150.367 71.838 150.148 70.9921 149.753 70.0588C148.875 67.9296 148.831 68.0754 150.279 68.1046C151.859 68.1046 152.078 67.1129 150.806 65.9171C150.279 65.4504 150.06 65.0421 150.323 65.0421C150.85 65.0421 152.122 65.8587 152.122 66.2087C152.122 66.5588 153.877 67.1713 154.184 66.9671C154.36 66.8796 154.579 66.2962 154.711 65.7129C154.93 64.8962 155.237 64.6046 155.764 64.6337C156.685 64.6921 156.773 63.7879 155.851 63.2921C155.5 63.0879 155.193 62.6504 155.193 62.3296C155.193 61.8629 155.325 61.8046 155.72 62.0671C156.641 62.6796 157.782 62.4462 158.484 61.5712C158.835 61.0754 159.493 60.5212 159.932 60.317C161.336 59.6462 161.467 59.2087 160.37 58.6254C159.8 58.3045 158.659 57.9545 157.826 57.8379L156.29 57.6337L158.045 57.4587C159.405 57.342 159.844 57.167 160.195 56.5545C160.765 55.4753 160.195 54.2503 159.142 54.2503C158.659 54.2503 158.264 54.3962 158.264 54.5712C158.264 54.8045 158.045 54.8045 157.606 54.542C157.255 54.3378 156.685 54.2503 156.334 54.3378C155.895 54.4545 155.939 54.2212 156.553 53.3753C157.036 52.7337 157.387 51.9753 157.387 51.6253C157.387 51.3045 157.606 51.042 157.826 51.042C158.089 51.042 158.264 50.8087 158.264 50.5462C158.264 50.167 158.001 50.2253 157.036 50.8378C156.334 51.2753 155.325 51.6253 154.667 51.6253C154.009 51.6253 151.859 51.8878 149.84 52.2087C144.751 53.0253 144.488 52.9962 144.839 51.8587C145.19 50.7212 145.848 50.167 146.901 50.167C147.954 50.167 147.954 50.0211 146.813 48.942L145.848 48.067L146.857 46.6378C147.427 45.8503 147.91 44.8586 147.954 44.4211C148.042 43.9544 148.217 43.3128 148.393 42.9628C148.919 41.8544 147.603 41.8836 143.698 43.0503C140.802 43.9253 139.31 44.1878 136.327 44.3336C134.265 44.4503 132.027 44.6836 131.325 44.8878C130.448 45.1211 129.658 45.1211 128.473 44.9169C127.596 44.7419 125.841 44.4794 124.525 44.3336C123.208 44.1878 122.024 43.9544 121.892 43.8378C121.76 43.6919 120.751 43.4003 119.698 43.1669C117.68 42.7294 116.539 41.9128 118.382 42.2044C119.172 42.3503 119.26 42.2919 119.04 41.7669C118.821 41.3294 119.084 40.8336 119.962 40.1336C121.058 39.2002 121.278 39.1419 122.068 39.4919C122.55 39.6961 123.823 40.1919 124.919 40.6294L126.894 41.3878L128.956 40.5419C130.053 40.0753 131.632 39.5794 132.466 39.4044C133.387 39.2294 133.607 39.1127 133.036 39.1127C131.72 39.0544 124.788 37.6544 124.349 37.3627C123.691 36.9252 125.051 36.2252 126.674 36.1086C127.903 36.0502 128.166 35.8752 128.298 35.2044C128.429 34.5044 128.298 34.3877 127.069 34.2127C125.841 34.0669 125.753 33.9794 126.411 33.6877C127.025 33.3669 126.806 33.3085 125.051 33.1335C123.603 33.0169 122.331 32.6377 121.015 31.9377C119.303 31.0335 116.89 30.3335 115.399 30.3335C115.091 30.3335 114.828 30.071 114.828 29.7794C114.828 29.3127 115.267 29.196 117.461 29.0502C118.909 28.9627 121.278 28.7877 122.726 28.7002C125.621 28.496 126.148 28.2335 126.543 26.746C126.718 25.9877 126.455 25.2877 125.578 24.0043C123.559 21.1168 120.532 16.5376 120.532 16.3626C120.532 16.2751 121.409 17.1793 122.462 18.3751C123.515 19.571 124.788 20.796 125.27 21.0876C126.148 21.6418 126.192 21.6126 126.455 20.5043C126.806 19.0168 126.938 18.6084 127.333 17.9959C127.596 17.5876 127.069 17.0918 125.095 15.8959L122.506 14.2918L124.612 14.7584C126.631 15.1959 128.868 15.1376 128.868 14.6126C128.868 14.0876 124.568 10.0042 123.515 9.56672C122.857 9.27506 121.453 8.92505 120.356 8.72089L118.382 8.40005L115.004 4.20002C113.161 1.89584 111.494 -2.96037e-06 111.318 -2.96037e-06C111.143 -2.96037e-06 110.748 0.349999 110.485 0.787502ZM107.72 41.9128C107.589 42.3211 107.062 42.4378 105 42.4961C103.421 42.5544 102.104 42.7586 101.666 43.0211C101.139 43.3419 100.832 43.3711 100.437 43.1086C98.8577 42.0586 100.481 41.4461 104.649 41.4169C107.501 41.4169 107.852 41.4753 107.72 41.9128ZM110.309 42.1461C110.134 42.3794 109.695 42.5836 109.3 42.5836C108.598 42.5836 108.598 42.5253 109.344 42.0003C110.221 41.3586 110.704 41.4169 110.309 42.1461ZM105.439 45.967L106.536 46.4628L104.737 46.9878C102.763 47.5711 102.412 48.1253 104.079 48.1253C104.737 48.1253 105.132 48.2711 105.088 48.4753C105 48.7378 105.483 48.8253 106.711 48.767L108.466 48.7086L106.492 49.4086C103.421 50.5462 98.7261 50.3128 101.051 49.1461C102.455 48.4753 101.534 48.417 99.472 49.0295C97.2782 49.7003 96.7517 49.6128 94.1192 48.1836L92.4958 47.3378L95.2161 46.8711C97.0588 46.5795 98.1996 46.5211 98.7261 46.7253C99.7791 47.1045 101.885 46.9003 101.885 46.4336C101.885 46.0253 102.894 45.5003 103.772 45.5003C104.079 45.5003 104.825 45.7045 105.439 45.967ZM110.441 46.2295C110.441 46.667 110.177 46.9586 109.826 46.9586C108.861 46.9586 108.51 46.4045 109.124 45.9378C109.914 45.2961 110.441 45.4128 110.441 46.2295ZM110.441 49.1461C110.441 49.6711 110.221 49.8753 109.563 49.8753C108.686 49.8753 108.686 49.8461 109.388 49.1461C109.783 48.7378 110.177 48.417 110.265 48.417C110.353 48.417 110.441 48.7378 110.441 49.1461ZM128.429 62.4171C128.429 62.5921 127.069 62.7087 125.139 62.7087H121.848V60.142L121.892 57.6045L125.139 59.8504C126.938 61.1046 128.429 62.2421 128.429 62.4171ZM110.441 61.5421C110.441 61.6879 110.353 61.8337 110.265 61.8337C110.134 61.8337 109.914 61.6879 109.783 61.5421C109.651 61.3671 109.739 61.2504 109.958 61.2504C110.221 61.2504 110.441 61.3671 110.441 61.5421ZM56.299 108.851C58.054 109.697 58.7121 110.251 57.9224 110.251C57.4397 110.222 53.5349 107.947 53.9736 107.917C54.193 107.917 55.246 108.326 56.299 108.851ZM64.1087 110.98C63.8016 111.447 61.9589 111.592 61.5201 111.155C61.3885 111.009 61.8272 110.805 62.4854 110.747C63.1874 110.688 63.8455 110.601 64.021 110.572C64.1965 110.572 64.2404 110.747 64.1087 110.98ZM56.0357 121.597C56.0357 121.947 55.1582 122.326 54.8511 122.122C54.544 121.917 55.1144 121.334 55.6409 121.334C55.8602 121.334 56.0357 121.451 56.0357 121.597ZM191.171 142.918C190.118 143.355 189.547 143.238 190.469 142.772C190.951 142.538 191.434 142.422 191.566 142.509C191.697 142.597 191.522 142.772 191.171 142.918ZM47.6995 147.643C47.6995 148.022 46.6904 147.788 46.471 147.351C46.3832 147.147 46.5587 147.059 46.9975 147.176C47.3924 147.263 47.6995 147.497 47.6995 147.643ZM88.6787 183.226C88.1083 183.897 87.0553 184.626 86.6605 184.626C85.8707 184.626 86.3533 183.43 87.3186 183.168C88.6787 182.818 89.0297 182.818 88.6787 183.226ZM134.265 207.085L135.669 207.114L134.221 207.96C132.29 209.155 131.501 209.097 131.501 207.785C131.501 206.939 131.632 206.764 132.203 206.91C132.598 206.997 133.519 207.085 134.265 207.085ZM85.2565 229.893C84.8177 230.068 84.379 230.097 84.2035 229.981C83.8086 229.747 85.081 229.251 85.5636 229.456C85.783 229.543 85.6513 229.747 85.2565 229.893ZM212.45 272.71C212.318 272.856 212.011 273.002 211.748 273.002C211.529 273.002 211.353 272.856 211.353 272.71C211.353 272.535 211.66 272.418 212.055 272.418C212.406 272.418 212.582 272.535 212.45 272.71ZM133.563 364.352C133.431 364.556 133.343 364.411 133.343 364.002C133.343 363.594 133.431 363.448 133.563 363.623C133.651 363.827 133.651 364.177 133.563 364.352Z" fill="url(#paint0_linear_10_92)"/>
<path d="M78.7191 95.0256C78.061 95.4631 77.5345 95.9589 77.5345 96.0756C77.5345 96.4256 80.2986 95.9298 81.1761 95.4339C81.922 94.9673 81.922 94.9381 81.22 94.5881C80.167 94.0631 80.0792 94.0923 78.7191 95.0256Z" fill="url(#paint1_linear_10_92)"/>
<defs>
<linearGradient id="paint0_linear_10_92" x1="115" y1="369" x2="115" y2="0" gradientUnits="userSpaceOnUse">
<stop stop-color="#28221E"/>
<stop offset="1" stop-color="#E48149"/>
</linearGradient>
<linearGradient id="paint1_linear_10_92" x1="79.6378" y1="96.1932" x2="79.6378" y2="94.2458" gradientUnits="userSpaceOnUse">
<stop stop-color="#28221E"/>
<stop offset="1" stop-color="#E48149"/>
</linearGradient>
</defs>
</svg>
