<svg width="229" height="375" viewBox="0 0 229 375" fill="none" xmlns="http://www.w3.org/2000/svg">
<path d="M86.4984 1.14555C86.377 2.12322 86.2555 2.30098 85.5754 2.50836L84.7738 2.71574L85.5025 3.10088L86.2069 3.48603L84.6523 4.46369L83.0735 5.47099L84.4823 5.55987C85.8912 5.64874 86.2069 5.97463 85.5754 6.74492C85.3568 7.01155 85.5997 7.10043 86.7413 7.10043H88.223L88.1016 7.95959C88.0044 8.7595 88.053 8.81876 88.5388 8.67062C89.0489 8.49287 89.0489 8.55212 88.7817 9.2039C88.6117 9.58904 87.9558 10.9222 87.3 12.1369C86.6685 13.3516 85.964 14.8625 85.7211 15.455C85.3082 16.5512 84.8224 16.8771 84.5309 16.2846C84.3123 15.8402 83.9236 15.9291 83.9236 16.4327C83.9236 17.0549 83.6079 16.9956 83.0735 16.2846C82.5877 15.6328 82.2233 15.7513 82.2233 16.6105C82.2233 17.203 81.8589 17.3807 81.616 16.8771C81.3488 16.3735 81.0331 16.5512 80.863 17.3215C80.693 18.2103 80.7416 18.1807 79.6971 17.5881C78.6769 16.966 77.7296 17.2326 77.2923 18.2103L76.9765 18.9806L76.4422 18.0622C75.6892 16.8178 75.422 16.9364 75.422 18.5658V19.9582L74.7661 19.188C73.9402 18.2695 73.1387 17.7363 72.0942 17.44C71.2683 17.2326 71.1711 17.4104 71.2197 19.1583C71.244 19.6323 71.074 19.6323 70.321 19.0991C69.4465 18.5065 69.3008 18.5658 69.3979 19.4546C69.4465 20.0767 69.3736 20.2545 69.1064 20.1656C68.9121 20.1064 68.4749 20.0175 68.1348 20.0175C67.5761 19.9879 67.5275 20.1064 67.4547 21.4099C67.4061 22.358 67.5033 23.0986 67.7705 23.5726L68.1591 24.2837L67.2361 23.6911C66.0944 22.9505 64.2483 22.8616 64.2483 23.5726C64.2483 23.9874 64.0054 24.017 62.548 23.8393C60.6776 23.6023 60.119 23.8689 60.119 24.9651C60.119 25.528 60.0947 25.528 59.6817 25.0836C59.4388 24.8169 58.8801 24.4911 58.4672 24.4022C57.6899 24.2244 57.6899 24.2244 57.6899 25.3798C57.6899 26.0316 57.8599 27.1278 58.0543 27.8092C58.2486 28.4906 58.2972 28.9646 58.1514 28.8757C57.8356 28.6091 56.7183 29.5275 56.7183 30.0608C56.7183 30.3571 56.4268 30.2682 55.6252 29.7053C54.3135 28.8165 53.9249 28.935 53.7063 30.2386C53.6334 30.7718 53.3419 31.3644 53.0747 31.6014C52.8075 31.8384 52.5889 32.342 52.5889 32.7272C52.5889 33.3197 52.3946 33.5271 51.593 33.7937L50.5971 34.1788L51.1801 34.7121L51.7387 35.2454H51.1315C50.7914 35.2454 50.087 35.3935 49.5526 35.5713L48.6053 35.8972L49.2854 36.2527L49.9898 36.6082L48.7024 36.9933L47.3907 37.4081L48.3138 37.971C49.0668 38.445 49.1639 38.6228 48.9453 38.9783C48.7753 39.1857 48.1923 39.5412 47.6336 39.719C46.1519 40.1634 44.573 40.9336 44.573 41.1706C44.573 41.4373 46.2491 42.0594 47.1478 42.1187C47.6336 42.1483 47.4879 42.2076 46.7592 42.3261C45.8847 42.4742 45.6418 42.6223 45.5932 43.126C45.5447 43.6 45.2775 43.837 44.6702 43.9555C43.6986 44.1925 43.65 44.4295 44.3544 45.1998L44.8645 45.7627L43.9415 45.9109L43.0184 46.059L44.6216 47.5995C46.8563 49.7326 47.0021 50.1178 45.7876 50.7992C45.2532 51.0954 44.8159 51.451 44.8159 51.5695C44.8159 51.9842 45.909 52.1916 47.245 52.0731C48.3138 51.9842 48.4352 52.0435 48.3138 52.4879C48.0952 53.3767 49.9412 53.1989 50.8643 52.2509C51.4472 51.6583 51.6173 51.5991 51.6173 51.9546C51.6173 52.7545 53.682 52.5768 54.9451 51.6583C55.771 51.0954 56.1596 50.9769 56.6211 51.1547C57.2284 51.3917 57.2284 51.4213 56.0381 52.3694C55.3337 52.9027 54.7022 53.7026 54.5321 54.2062C54.3378 54.7395 53.852 55.3616 53.3419 55.6579C52.8561 55.9838 52.2488 56.4874 52.0059 56.8429C51.5687 57.4355 51.5687 57.4651 51.9816 57.4651C52.346 57.4651 52.2974 57.5836 51.763 58.265C51.3744 58.739 51.1558 59.2723 51.2043 59.5686C51.2772 59.8648 51.0586 60.3685 50.7428 60.7536C49.9169 61.7017 50.0141 61.909 51.3258 61.909H52.4674L51.8602 62.5016C51.1801 63.1533 51.3501 63.2422 52.5403 62.8275C53.3662 62.5312 53.5605 62.7682 52.9533 63.3904C52.7589 63.5977 52.5889 63.9236 52.5889 64.131C52.5889 64.3088 52.3703 64.7235 52.1031 65.0198C51.3015 65.9086 51.5201 66.1456 52.9533 65.9975C53.682 65.9086 54.2892 65.879 54.2892 65.9086C54.2892 65.9678 54.1192 66.4715 53.9249 67.064C53.5848 68.0417 53.5848 68.1306 53.9735 68.1306C54.2407 68.1602 54.1192 68.3083 53.6577 68.5453C52.6132 69.1082 52.4674 69.523 53.2447 69.76C53.7063 69.8785 53.8034 70.0266 53.5848 70.1748C53.3662 70.3525 53.4148 70.471 53.7791 70.5895C54.0706 70.6784 54.2892 70.8562 54.2649 71.0043C54.1435 71.9227 54.3378 72.0709 54.7993 71.3894L55.2851 70.6488L55.1151 71.3894C55.0179 71.8042 54.8965 72.1597 54.7993 72.219C54.7265 72.2486 54.2649 72.5745 53.8034 72.9596L52.9533 73.6114L53.9977 73.7003C55.2123 73.8188 55.2851 74.2039 54.2892 75.389C53.9006 75.863 53.5605 76.337 53.5605 76.4852C53.5605 76.6037 54.2407 76.7222 55.0908 76.7222H56.5968L55.6252 77.4628L54.6536 78.1739H55.6252C56.5725 78.2035 57.617 77.9665 58.9044 77.4628C59.2445 77.3443 58.8558 77.7887 58.0543 78.4405C57.2527 79.0923 56.3296 79.9811 56.0139 80.3958L55.4309 81.1661H56.2325H57.0583L56.2082 82.2327L55.3823 83.2992L57.2041 83.1511C58.2 83.0622 59.2931 82.9141 59.6331 82.7659C60.1675 82.5586 60.119 82.7067 59.1959 83.9806C58.6372 84.7509 58.1757 85.5212 58.1757 85.6693C58.1757 85.8174 58.783 85.5508 59.5117 85.0768C60.2404 84.5731 60.8477 84.2176 60.8477 84.2769C60.8477 84.3065 60.6776 84.8398 60.4833 85.4027C60.289 85.9952 60.119 86.5581 60.119 86.647C60.119 87.121 61.0177 86.6174 62.4265 85.3138C63.301 84.4843 64.0783 83.8325 64.1512 83.8325C64.1998 83.8325 64.2483 84.188 64.2483 84.6028C64.2483 85.1953 64.3455 85.3434 64.637 85.1953C64.8556 85.1064 65.1228 85.0175 65.2442 85.0175C65.3657 85.0175 65.973 84.4546 66.5559 83.8029C67.3089 82.9437 67.649 82.7067 67.649 83.0622C67.649 83.3288 67.7462 83.5362 67.8676 83.5362C68.1105 83.5362 69.2522 81.9957 69.4222 81.4031C69.4708 81.1957 69.5922 81.1069 69.6894 81.1957C69.7623 81.2846 69.6165 81.966 69.3493 82.6771C68.402 85.2249 68.985 86.1433 70.5396 84.5435C71.1711 83.9214 71.3412 83.8621 71.6084 84.188C71.8027 84.3954 71.8998 84.7509 71.827 84.9583C71.7784 85.1953 71.9484 85.2545 72.5314 85.1064C73.1144 84.9583 73.2844 85.0175 73.1872 85.3434C73.1144 85.5804 73.2358 85.9359 73.4058 86.173C73.6973 86.4988 73.673 86.6766 73.2115 87.2691L72.6771 87.9802H73.7945C74.426 87.9802 74.9361 88.069 74.9361 88.1875C74.9361 88.3061 74.4989 89.0171 73.9645 89.7874C73.1872 90.9132 73.0901 91.2094 73.3816 91.3576C74.0374 91.6538 75.1548 91.5649 76.0292 91.1205C76.8794 90.6762 76.8794 90.6762 76.5393 91.3279C76.345 91.6834 76.1264 92.276 76.0292 92.6315C75.8835 93.2536 75.9563 93.3129 76.7579 93.3129C77.2437 93.3129 78.0453 93.0463 78.5554 92.7204L79.5028 92.1575L78.9927 93.2833C78.3125 94.7646 78.5554 95.5349 79.5999 95.2682C80.0371 95.1793 80.6201 94.7942 80.9116 94.4683L81.446 93.8758L81.5917 94.6164C81.8832 96.0089 83.4621 95.9793 84.0451 94.6164C84.3366 93.935 85.624 93.7277 85.624 94.3794C85.624 94.735 85.8183 94.7646 86.4741 94.6164C87.1057 94.4683 87.47 94.5868 88.0287 95.0608C88.4174 95.4164 88.8546 95.683 89.0003 95.683C89.1461 95.683 89.2675 96.0089 89.2675 96.394C89.2675 97.1643 89.6076 97.4013 90.9193 97.5198C91.7209 97.5791 91.8423 97.7272 91.5023 98.2012C91.3808 98.379 91.1865 98.853 91.0164 99.327L90.725 100.127L91.7209 99.9492C92.6439 99.7714 92.7168 99.801 92.4982 100.305C92.3524 100.601 92.1824 101.312 92.1095 101.816C91.9638 102.734 91.9881 102.793 92.6439 102.793C93.0326 102.793 93.6155 102.467 94.0042 102.023L94.6843 101.282L94.5143 102.023C94.3685 102.704 94.4414 102.793 94.9758 102.793C95.3402 102.793 95.8503 102.467 96.1903 102.023C96.6518 101.401 96.7976 101.342 96.7976 101.727C96.7976 102.053 96.9919 102.201 97.4291 102.201C97.8907 102.201 98.1093 101.964 98.3765 101.193C98.838 99.8899 99.4452 99.5937 100.004 100.453C100.32 100.897 100.611 101.045 101.073 100.927C101.656 100.808 101.68 100.838 101.534 101.786C101.413 102.616 101.461 102.764 101.777 102.616C102.069 102.467 102.141 102.734 102.141 104.097C102.141 105.726 102.141 105.756 102.846 105.756C103.332 105.756 103.745 105.489 104.158 104.867C104.911 103.801 105.008 103.771 105.105 104.63C105.154 104.986 105.469 105.489 105.809 105.726C106.392 106.111 106.538 106.111 107.364 105.578C107.874 105.252 108.481 104.541 108.724 104.008L109.137 103.06L109.283 103.889C110.012 108.274 110.06 110.526 109.526 115.384C109.064 119.266 108.797 120.243 108.797 117.843C108.797 115.71 108.214 111.089 107.947 111.089C107.825 111.089 107.242 111.622 106.684 112.244L105.664 113.4L105.736 112.244C105.785 111.622 105.736 111.089 105.615 111.089C105.494 111.089 104.571 111.948 103.575 113.014C101.729 114.999 101.413 115.207 101.413 114.555C101.413 114.377 101.194 113.874 100.927 113.459L100.465 112.718L99.2266 114.199C98.5708 114.999 98.0121 115.473 98.0121 115.266C98.0121 115.029 97.7692 114.288 97.4777 113.577C96.9676 112.303 96.9676 112.303 96.3118 112.777C95.5345 113.34 94.8543 114.614 94.8543 115.533C94.8543 116.095 94.8058 116.125 94.49 115.829C93.9799 115.325 92.984 115.71 92.7654 116.481L92.5953 117.132L92.1581 116.451L91.6966 115.77L91.2836 116.688C91.0407 117.192 90.7493 117.606 90.6278 117.606C90.5063 117.606 90.4578 117.518 90.5549 117.429C90.895 117.014 89.9477 115.503 89.2432 115.325C88.8546 115.236 88.5631 114.999 88.636 114.822C89.0246 113.725 89.3161 112.244 89.1947 112.096C89.0489 111.918 87.8587 112.57 85.9154 113.962L84.871 114.733L85.0167 113.577C85.1139 112.925 85.2353 112.155 85.3082 111.859C85.4296 111.326 85.3811 111.326 84.5795 111.918C84.118 112.274 83.6807 112.57 83.6079 112.57C83.535 112.57 83.6321 111.889 83.8022 111.089L84.118 109.607H83.3892C83.0006 109.607 82.4662 109.755 82.199 109.904C81.5917 110.318 81.616 109.963 82.2719 109.104C82.7334 108.482 82.7577 108.333 82.4662 108.096C82.0775 107.771 79.9643 107.889 79.2356 108.274C78.8955 108.452 78.9684 108.185 79.527 107.059C79.94 106.289 80.2801 105.519 80.2801 105.4C80.2801 105.282 79.6971 105.43 79.0169 105.756C78.3125 106.082 77.7053 106.348 77.681 106.348C77.6567 106.348 77.681 105.934 77.7781 105.46C77.8996 104.601 77.8753 104.571 77.098 104.571C76.345 104.571 74.3775 105.134 73.4787 105.578C73.1629 105.726 73.0901 105.549 73.0901 104.66C73.0901 104.067 72.9686 103.534 72.8229 103.475C72.6286 103.386 72.6771 103.09 72.9443 102.497C73.2601 101.845 73.2844 101.46 73.1144 100.838C72.8957 100.097 72.9686 99.8899 73.7216 99.0604C74.1831 98.5271 74.4746 97.9938 74.3775 97.8753C74.2803 97.7568 73.5516 97.5791 72.7743 97.5198C71.4869 97.4013 71.3169 97.3124 71.1954 96.6903C71.074 96.1274 70.8796 95.9793 70.2481 95.9793C69.8351 95.9793 69.155 96.1866 68.7664 96.4236C67.8676 97.0162 67.8433 96.9865 68.1834 96.1274C68.5235 95.209 68.3048 94.9127 67.5518 95.3275C67.0174 95.6237 66.9689 95.5645 66.7017 94.5276C66.5559 93.9054 66.4345 93.1055 66.4345 92.75C66.4345 91.8612 65.9244 91.9797 65.0256 93.0463L64.2483 93.9647V93.1648V92.3648L63.131 93.1351C62.4023 93.6388 61.625 93.9054 60.9691 93.9054H59.9489L60.119 92.7796C60.2161 92.1871 60.3619 91.4761 60.4104 91.2391C60.4833 91.002 60.4833 90.8835 60.4347 91.002C60.3619 91.1502 60.0947 91.0317 59.8032 90.7947C59.0016 90.1133 57.8356 90.2318 56.9855 91.1205L56.2325 91.8908V91.1205C56.2325 89.9059 55.8195 89.9651 54.605 91.3279L53.4391 92.6611L53.3662 91.1502C53.2933 89.343 53.1962 89.1652 52.7104 89.9355C52.3946 90.4095 52.3217 90.4391 52.1031 90.054C51.9816 89.817 51.8602 89.3726 51.8602 89.0763C51.8602 88.3949 51.5687 88.4246 51.1558 89.1948C50.9129 89.7281 50.7914 89.7577 50.6214 89.4318C50.427 89.106 50.1841 89.2837 49.4311 90.291L48.4838 91.5649L48.1195 90.6762C47.6579 89.6096 46.5649 88.6319 45.5932 88.3949C44.8888 88.2172 44.8645 88.2468 44.5973 89.7281C44.4516 90.5873 44.3301 91.5353 44.3301 91.8316C44.3301 92.3648 44.0386 92.5426 43.1885 92.513C42.7755 92.4834 42.7998 92.7796 43.2371 93.4906C43.4314 93.7869 43.6014 94.1424 43.6014 94.2609C43.6014 94.4091 42.8727 94.4979 41.974 94.5276C41.0509 94.5276 40.4679 94.6164 40.638 94.7053C41.1238 94.9423 40.7109 95.3867 40.0064 95.3867C39.6421 95.3867 39.2048 95.5052 39.0105 95.6534C38.6705 95.92 38.9134 96.0385 41.2938 96.7495C41.9497 96.9569 41.8768 97.0162 40.4437 97.3421C39.5692 97.5198 38.4518 97.905 37.9417 98.142C36.9944 98.6456 36.7515 99.2381 37.4802 99.2381C37.9174 99.2678 37.8203 99.3863 36.46 100.601C35.8528 101.105 35.9256 101.193 37.6988 102.082C38.4761 102.467 38.9376 102.793 38.719 102.793C38.5247 102.793 37.7474 103.001 37.0187 103.267C35.9742 103.652 35.8042 103.801 36.1928 103.978C36.6301 104.186 36.6058 104.245 35.9499 104.423C34.784 104.749 30.9218 106.378 30.1445 106.882L29.4158 107.296L30.3388 107.682C31.5048 108.185 31.6019 108.333 30.9461 108.57C30.2659 108.837 30.776 109.281 31.8205 109.341C32.4764 109.37 32.4521 109.4 31.4562 109.785C29.6587 110.467 29.5615 110.555 30.2417 110.792C30.8003 111 30.776 111.029 29.9987 111.059C29.0514 111.089 27.1325 111.681 25.9908 112.303L25.2621 112.688L26.2337 112.837L27.2053 113.014L25.5779 114.199C24.6791 114.851 23.9261 115.473 23.9261 115.592C23.9261 115.918 25.8208 116.184 26.6224 115.977L27.3997 115.77L26.9139 116.599C26.6224 117.073 26.1851 117.695 25.8937 118.021C25.2378 118.732 25.4321 119.088 26.5009 119.088C27.0596 119.088 27.3268 119.236 27.3268 119.503C27.3268 119.828 27.0596 119.917 26.3066 119.888C25.2864 119.828 25.2621 119.858 24.922 121.073C24.7034 121.784 24.4605 122.347 24.3876 122.347C24.2905 122.347 24.0719 121.961 23.9018 121.487C23.5375 120.51 23.1974 120.539 23.1974 121.547C23.1974 121.902 23.076 122.702 22.9302 123.354L22.663 124.48L22.0072 123.709C21.6428 123.295 21.2785 122.939 21.2056 122.939C21.1327 122.939 20.987 123.591 20.8898 124.42L20.7198 125.872L20.1125 124.983C19.6024 124.243 18.3879 123.235 18.0235 123.235C17.9507 123.235 17.8292 123.976 17.7321 124.865C17.5863 126.287 17.5134 126.494 17.1248 126.346C16.7604 126.198 16.6147 126.405 16.4204 127.294C16.2746 127.916 16.1532 128.716 16.1532 129.072C16.1532 129.694 16.056 129.635 15.1573 128.568C13.6027 126.731 13.3598 126.939 12.9711 130.494C12.874 131.472 12.5582 133.101 12.2424 134.108L11.708 135.945L11.0522 134.819C10.2506 133.486 8.98748 132.301 8.62312 132.568C8.50167 132.657 8.38022 133.101 8.38022 133.516C8.38022 134.316 8.4288 134.286 6.84992 133.693C6.43698 133.545 6.43698 133.605 6.92279 134.79L7.45718 136.064L6.09691 135.886L4.76094 135.738L5.41678 136.449L6.07262 137.16L5.00384 136.715C4.42087 136.478 3.91077 136.271 3.8379 136.271C3.78932 136.271 3.91077 136.656 4.12938 137.16C4.46945 137.96 4.46945 138.049 4.12938 138.049C3.47354 138.049 3.74073 138.641 4.44516 138.671L5.101 138.7L4.37229 138.937L3.64357 139.145L4.37229 139.352C4.78523 139.471 5.22245 139.619 5.34391 139.678C5.48965 139.708 5.19816 139.885 4.73664 140.034C3.88648 140.33 3.91077 140.33 5.46536 140.596L7.04424 140.863L5.46536 141.604C4.10509 142.226 3.98364 142.344 4.49374 142.492C5.00384 142.641 4.90668 142.73 3.78932 143.055C2.93915 143.322 2.59908 143.529 2.8177 143.707C3.0606 143.885 3.03631 144.063 2.67195 144.566C2.28331 145.1 2.25902 145.277 2.50192 145.781C2.76912 146.285 2.72053 146.403 2.25902 146.611C1.94324 146.759 1.31169 147.085 0.850167 147.351L0 147.825L0.971619 147.647C1.50601 147.559 2.23472 147.41 2.62337 147.322C3.23063 147.173 3.15776 147.322 1.82179 149.04C1.0202 150.047 0.364357 150.995 0.364357 151.114C0.364357 151.232 1.23881 151.41 2.28331 151.529C3.78932 151.677 4.17796 151.825 4.0808 152.151C3.91077 152.684 4.88239 152.684 6.80134 152.151C7.60292 151.914 8.28306 151.766 8.30735 151.795C8.35593 151.825 7.4086 152.802 6.24265 153.958C5.07671 155.113 3.52212 156.832 2.79341 157.75L1.45743 159.439L2.38047 159.32C3.25493 159.202 3.54641 159.439 3.01202 159.853C2.67195 160.12 1.26311 163.823 1.43314 164.031C1.50601 164.12 2.0404 163.853 2.64766 163.409C3.95935 162.461 4.05651 162.461 3.91077 163.29C3.8379 163.675 3.71644 164.712 3.64357 165.601L3.49783 167.201L4.42087 165.838C4.90668 165.068 5.3682 164.475 5.39249 164.534C5.44107 164.594 5.31962 165.808 5.101 167.23C4.90668 168.682 4.78523 169.897 4.8581 169.986C5.02813 170.193 5.8783 168.89 6.43698 167.586C6.70417 166.993 6.97137 166.49 7.01995 166.49C7.06853 166.49 7.11711 167.408 7.1414 168.564C7.16569 169.689 7.26286 170.904 7.36002 171.23C7.53005 171.763 7.6515 171.615 8.50167 170.045L9.47329 168.238L9.76478 169.601C9.91052 170.371 10.0806 171.052 10.1534 171.111C10.2992 171.289 11.7809 168.475 11.8052 167.941C11.8052 167.704 12.0238 168.327 12.2424 169.334C12.4853 170.312 12.8254 171.437 12.9954 171.823L13.3112 172.534L13.7241 171.526L14.1371 170.549L14.3557 172.593L14.5986 174.637L15.0844 173.482L15.5945 172.356L16.1289 174.222C16.4447 175.259 16.7847 176.237 16.8819 176.355C16.979 176.503 17.1977 175.97 17.3677 175.17L17.6835 173.748L17.8778 175.111C18.0721 176.622 18.5822 178.044 19.1652 178.607C19.5781 179.051 19.5296 179.17 20.0397 176.889C20.2097 176.118 20.404 175.733 20.5012 175.911C20.6712 176.266 22.1772 174.578 22.6387 173.482C22.8573 172.978 22.9302 173.067 23.1974 174.074C23.3674 174.696 23.5861 175.348 23.6832 175.467C23.8533 175.704 24.4605 173.807 24.7277 172.267L24.8249 171.674L24.9949 172.267C25.1164 172.593 25.2378 173.067 25.335 173.304C25.4321 173.63 25.4807 173.6 25.5536 173.156C25.8694 171.082 25.8451 171.082 26.8167 173.482L27.764 175.822L28.3227 174.341C28.6142 173.511 28.93 172.119 29.0271 171.23L29.1729 169.601L29.5129 170.845C29.853 172.208 30.1202 172.445 30.3145 171.556C30.3874 171.2 30.7518 170.934 31.3347 170.815C32.1606 170.608 32.3306 170.697 32.8164 171.437L33.3751 172.267L33.3994 171.141C33.3994 169.956 33.9338 169.689 34.0796 170.815C34.1281 171.111 34.4196 171.615 34.7354 171.911C35.3184 172.415 35.3184 172.415 35.707 171.526C36.4357 169.838 36.5086 170.637 35.8285 172.622L35.124 174.637L35.8528 174.726C36.29 174.785 36.8487 174.578 37.2859 174.193L38.0146 173.57L37.7717 174.311C37.6017 174.904 37.626 175.081 37.8932 175.081C38.5976 175.081 39.5935 174.43 40.3708 173.422C41.1967 172.326 41.3424 172.415 40.9295 173.719C40.6623 174.637 40.808 174.667 41.7796 173.896C42.7513 173.126 43.1156 173.156 43.1156 174.044C43.1156 174.459 43.1885 174.785 43.2614 174.785C43.6743 174.785 44.4273 174.015 45.0589 172.948L45.7876 171.734V172.8C45.7876 174.726 46.0062 174.904 46.8078 173.689L47.5608 172.563L47.415 173.837C47.2936 175.141 47.5851 177.007 47.9737 177.303C48.0709 177.392 48.4109 177.007 48.7024 176.444C49.1639 175.526 49.2854 175.437 50.0384 175.585C50.6942 175.704 50.9614 175.585 51.4958 174.963C52.2974 173.985 52.3946 173.985 52.0788 174.963C51.9573 175.407 51.8845 175.792 51.9331 175.852C51.9816 175.941 52.4917 175.792 53.0261 175.555L54.0463 175.111V175.852C54.0463 176.415 54.1435 176.563 54.4836 176.444C54.7022 176.385 55.2366 176.237 55.6738 176.118L56.4268 175.941L56.1353 177.57L55.8195 179.229L56.4511 179.022C56.7912 178.933 57.277 178.725 57.4956 178.607C58.1271 178.192 58.1757 178.251 58.1757 179.377C58.1757 180.177 58.2729 180.414 58.6129 180.414C59.1473 180.414 60.1675 179.585 60.7748 178.696L61.212 178.014L61.2363 179.229C61.2606 180.207 61.4306 180.681 62.0136 181.362C62.9609 182.547 63.8354 182.34 64.2726 180.859L64.5884 179.851L65.1228 180.74L65.6815 181.658L66.3616 180.177L67.066 178.696L67.6247 179.91L68.1834 181.096L68.5235 180.118C68.7178 179.585 68.8635 178.874 68.8635 178.518C68.8878 177.985 68.9121 177.955 69.1793 178.34C69.3493 178.607 69.8351 179.14 70.2967 179.525C71.1225 180.207 71.1468 180.207 71.3897 179.644C71.8998 178.548 73.3816 177.007 74.8876 176.029L76.3936 175.052L77.7296 175.555C78.5068 175.852 79.357 176.444 79.7942 177.007L80.523 177.926L79.5513 178.903C78.4826 179.97 78.4097 180.177 78.9684 180.829C79.3084 181.273 79.2113 181.51 77.7538 183.495C76.8794 184.68 76.2235 185.747 76.3207 185.836C76.3936 185.954 76.7336 186.043 77.0494 186.043C77.7296 186.043 77.7781 186.517 77.1223 186.991C76.5393 187.436 76.4907 187.821 77.0008 187.821C77.3652 187.821 77.5109 188.295 77.1952 188.472C77.0737 188.532 76.6122 189.095 76.1507 189.717C75.3491 190.783 75.3248 190.843 75.9078 190.665C76.3207 190.546 76.1993 190.665 75.592 191.08C74.4989 191.82 72.2642 194.368 72.2642 194.872C72.2642 195.079 72.6043 195.227 72.9929 195.227C73.4058 195.227 73.7216 195.287 73.7216 195.375C73.7216 195.464 73.4058 196.235 72.9929 197.094C72.0699 199.079 72.0699 199.434 72.92 199.197C73.4787 199.019 73.5273 199.049 73.3573 199.553C73.2601 199.849 73.1144 200.886 73.0415 201.804C72.9686 203.167 73.0172 203.523 73.2844 203.523C73.4787 203.523 73.7459 203.374 73.9159 203.167C74.1346 202.9 74.2074 202.96 74.2074 203.552C74.2317 203.937 74.3775 204.589 74.5475 204.974L74.8876 205.685L75.5191 204.915L76.1507 204.145V205.004C76.1507 205.508 76.2478 205.893 76.345 205.893C76.7579 205.893 77.4624 204.678 77.8753 203.167C78.2882 201.745 78.3125 201.686 78.3368 202.545C78.3368 203.137 78.4583 203.523 78.6526 203.523C79.1384 203.493 79.9643 202.545 80.4015 201.449C80.8144 200.471 80.8387 200.441 81.0331 201.093C81.3974 202.249 82.6848 201.745 83.0735 200.264C83.2192 199.73 83.2678 199.73 83.5836 200.116C83.8022 200.353 84.2394 200.56 84.6038 200.56C85.4539 200.56 87.47 199.405 88.4902 198.338L89.2918 197.508L89.1461 198.279C89.0003 198.931 89.0489 199.019 89.4619 198.901C89.8748 198.753 89.9477 198.931 90.0691 200.827C90.2149 202.9 90.5306 204.115 90.9679 204.115C91.1136 204.115 91.4294 203.849 91.6966 203.523L92.1824 202.93V203.908C92.1824 205.182 92.5467 205.596 93.6884 205.596C94.3685 205.596 94.8301 205.359 95.4616 204.678C96.1417 203.937 96.3118 203.849 96.3118 204.263C96.3118 204.708 96.4575 204.767 97.2591 204.589C98.1336 204.411 98.2307 204.471 98.4493 205.271C98.5951 205.745 98.9351 206.307 99.2266 206.485C99.7124 206.811 99.6882 206.87 98.4979 208.5C97.1619 210.307 97.0648 210.633 97.7206 210.633C98.085 210.633 98.1821 210.87 98.1821 212.025C98.1821 213.566 98.8137 214.484 99.8582 214.484H100.441L99.8339 215.966C99.4938 216.766 99.2266 217.773 99.2266 218.217C99.2266 218.958 99.2752 218.988 100.295 218.899C101.316 218.78 101.34 218.81 101.146 219.462C100.733 220.735 100.854 221.002 101.85 221.002C102.36 221.002 102.992 220.795 103.259 220.558C103.963 219.906 104.085 220.024 103.696 220.913C103.016 222.543 103.38 223.668 104.619 223.668C105.372 223.668 107 222.098 107 221.328C107 221.032 107.17 221.21 107.461 221.772C107.728 222.306 108.02 222.78 108.141 222.869C108.238 222.957 108.238 225.328 108.141 228.172C108.044 230.986 107.995 236.823 108.044 241.148L108.117 248.999L109.113 254.48C109.672 257.502 110.255 261.56 110.4 263.516C110.546 265.471 111.032 270.567 111.493 274.833C113.024 289.024 113.024 288.935 112.271 303.304C111.906 310.266 111.615 317.762 111.615 319.954C111.615 323.687 111.25 330.471 110.643 338.618C110.497 340.485 110.279 343.951 110.133 346.321C109.647 354.765 109.259 356.69 107.51 359.149C105.931 361.342 100.757 364.69 98.0121 365.282C95.5102 365.845 95.2916 366.052 97.0648 366.26C97.9149 366.349 99.6639 366.793 100.927 367.178C102.749 367.771 104.109 367.978 107.437 368.126C109.744 368.245 111.663 368.422 111.712 368.511C111.761 368.6 111.202 368.659 110.449 368.659C109.672 368.63 109.429 368.659 109.866 368.748C110.425 368.837 110.643 369.015 110.643 369.459C110.643 369.874 110.813 370.022 111.25 370.022C111.785 370.022 111.858 370.141 111.858 371C111.858 371.533 111.688 372.629 111.469 373.4C111.25 374.17 111.129 374.851 111.178 374.94C111.445 375.237 114.287 374.377 115.696 373.548C117.372 372.6 120.408 371.474 121.21 371.533C121.477 371.563 121.21 371.711 120.627 371.859C119.825 372.066 119.631 372.215 119.898 372.422C120.116 372.629 119.995 372.659 119.509 372.511C118.999 372.392 118.878 372.422 119.121 372.629C119.412 372.896 119.412 372.955 119.121 373.074C118.78 373.222 119.121 373.163 121.817 372.689C123.299 372.422 124.197 372.155 130.197 369.963C132.48 369.133 132.796 369.104 135.541 369.252C137.144 369.341 139.063 369.489 139.792 369.578L141.128 369.726L140.035 369.252C139.427 369.015 138.286 368.689 137.484 368.571C136.075 368.334 136.075 368.334 137.12 368.274C137.751 368.274 139.184 368.63 140.52 369.163C142.342 369.874 143.508 370.111 146.107 370.319C151.913 370.793 154.366 370.852 154.366 370.615C154.366 370.141 152.787 368.867 150.747 367.652C148.949 366.586 145.403 363.89 144.771 363.119C144.65 362.971 145.038 363.208 145.67 363.653C146.302 364.097 146.957 364.393 147.103 364.334C147.249 364.275 146.544 363.771 145.573 363.238C142.585 361.549 142.318 361.371 140.593 359.92C139.403 358.942 138.674 358.053 137.97 356.72C137.436 355.713 136.148 353.757 135.128 352.395C133.501 350.232 133.185 349.639 132.772 347.891C132.505 346.766 132.165 344.603 132.019 343.062C131.849 341.522 131.46 338.5 131.144 336.396C130.173 330.027 130.076 328.783 129.711 318.917C129.395 310.385 129.274 308.696 128.424 302.474C127.889 298.653 127.379 294.386 127.306 292.994C127.112 290.061 126.699 287.661 125.728 283.958C124.926 280.906 124.683 277.47 124.61 266.775C124.562 262.153 124.416 259.457 124.027 256.346C123.566 252.524 123.396 251.813 122.303 249.088C121.452 246.984 121.088 245.74 121.088 244.881C121.088 244.199 120.967 242.333 120.821 240.704C120.554 237.919 120.554 237.622 121.039 236.112L121.55 234.482L121.598 235.726C121.622 236.437 121.647 237.119 121.671 237.267C121.817 238.6 122.764 236.497 123.031 234.215C123.201 232.912 123.25 232.793 123.42 233.445C123.59 234.156 123.614 234.156 123.881 233.149L124.149 232.171L124.926 233.83C125.339 234.719 125.776 235.549 125.922 235.637C126.213 235.875 126.675 234.215 126.675 232.971C126.675 232.408 126.723 231.964 126.796 231.964C126.869 231.964 127.234 232.379 127.622 232.912L128.327 233.86L128.497 232.586C128.594 231.816 128.74 231.431 128.861 231.638C128.958 231.875 129.104 231.638 129.201 231.045L129.347 230.097L129.906 230.72C130.221 231.075 130.537 231.371 130.61 231.371C130.683 231.371 130.877 230.749 131.023 229.979C131.509 227.698 132.019 226.424 132.262 226.898C132.407 227.224 132.577 227.164 133.039 226.513L133.598 225.683L133.525 227.016C133.355 229.357 134.885 230.364 136.318 228.883L137.023 228.172L136.925 229.238L136.853 230.334L137.727 229.179L138.577 228.024V229.238C138.577 230.808 138.869 230.986 139.622 229.89L140.253 229.001L140.423 230.394C140.642 232.29 140.788 232.497 141.152 231.49C141.443 230.631 141.443 230.631 141.468 231.371C141.516 232.349 142.415 234.778 142.658 234.512C142.755 234.393 142.95 233.741 143.095 233.06L143.338 231.816L143.897 233.297C144.383 234.601 144.48 234.719 144.65 234.156C144.771 233.801 144.917 232.912 145.014 232.142L145.184 230.779L146.18 231.816C147.37 233.06 147.516 233.09 147.71 232.082C147.832 231.549 147.953 231.431 148.123 231.638C148.633 232.26 149.022 231.993 149.022 231.045C149.022 230.127 149.046 230.127 149.872 230.275C150.698 230.453 150.722 230.423 150.722 229.505C150.722 228.972 150.552 228.261 150.358 227.905C149.994 227.283 150.018 227.283 151.135 227.313C152.083 227.372 152.326 227.253 152.544 226.75C152.69 226.394 152.957 225.89 153.127 225.624C153.419 225.209 153.394 225.031 152.957 224.468L152.447 223.787L153.03 223.017C153.419 222.483 153.516 222.187 153.322 222.098C153.152 222.009 153.492 221.861 154.075 221.743L155.119 221.506L154.366 220.558C153.88 219.936 153.686 219.521 153.856 219.402C154.269 219.076 154.196 215.314 153.783 214.603C153.589 214.307 153.492 213.744 153.564 213.388C153.662 212.885 153.564 212.648 153.127 212.47C152.617 212.233 152.617 212.203 153.37 212.025C153.807 211.907 154.487 211.403 154.925 210.9C155.508 210.159 155.896 209.952 156.771 209.892C157.378 209.863 158.082 209.744 158.325 209.626C158.69 209.418 158.738 209.566 158.738 210.633C158.738 211.848 158.738 211.848 159.54 211.759C160.269 211.67 160.317 211.729 160.39 212.618C160.487 213.714 160.56 213.744 161.41 213.151C162.188 212.618 162.479 212.588 162.309 213.122C162.139 213.625 162.576 215.669 162.843 215.669C162.941 215.669 163.183 215.344 163.354 214.929C163.766 213.981 163.888 214.01 164.422 215.077C164.932 216.173 165.127 216.055 165.685 214.336C166.074 213.092 166.123 213.033 166.511 213.447C166.9 213.862 166.973 213.862 167.289 213.24C167.92 212.025 168.26 210.692 168.09 210.1C167.969 209.596 168.042 209.537 168.455 209.655C168.965 209.833 168.965 209.803 168.6 208.707C168.382 208.085 168.212 207.344 168.212 207.048C168.212 206.278 169.11 206.307 169.305 207.078L169.475 207.7L170.276 207.078L171.078 206.485L171.199 207.137C171.297 207.522 171.515 208.085 171.685 208.411C172.001 208.915 172.098 208.944 172.462 208.559C172.851 208.144 172.875 208.174 172.73 208.766C172.584 209.359 172.657 209.418 173.531 209.507L174.479 209.596L173.531 212.41C173.021 213.951 172.584 215.729 172.584 216.321C172.584 217.358 172.632 217.447 173.264 217.447C173.847 217.417 174.721 217.091 176.057 216.41C176.398 216.232 176.47 216.351 176.47 216.943C176.47 218.188 176.932 218.188 177.976 216.973L178.948 215.818L178.802 217.743C178.584 220.232 178.899 220.913 179.725 219.758L180.284 218.988L180.575 220.113C180.721 220.735 181.061 221.535 181.304 221.921L181.741 222.602L182.081 221.506C182.422 220.321 182.786 220.054 182.786 220.972C182.786 221.861 184.049 223.313 185.045 223.52C186.065 223.757 187.158 223.106 187.158 222.246C187.182 221.772 187.207 221.772 187.523 222.276C187.838 222.809 187.863 222.78 188.251 222.069C188.567 221.476 188.64 220.854 188.567 219.55C188.47 218.01 188.518 217.832 188.907 217.98C189.66 218.217 190.146 217.447 190 216.232C189.879 215.136 189.903 215.136 190.486 215.403C190.802 215.551 191.336 215.669 191.628 215.669C192.089 215.669 192.162 215.551 192.065 214.929C191.968 214.307 192.065 214.188 192.526 214.158C192.842 214.158 193.328 214.04 193.595 213.921C194.032 213.714 194.008 213.625 193.255 213.151C192.794 212.885 191.968 212.47 191.433 212.262C190.607 211.936 190.559 211.877 191.069 211.848C191.409 211.818 192.065 211.67 192.478 211.492L193.279 211.137L192.551 210.722C192.065 210.426 191.603 209.685 191.069 208.411C190.365 206.722 190.146 206.456 189.32 206.159C188.81 205.952 188.203 205.478 188.008 205.122C187.668 204.471 187.668 204.411 188.227 204.234C189.514 203.849 190.122 202.071 189.101 201.745C188.616 201.597 188.737 201.508 189.757 201.33C190.437 201.212 191.19 200.945 191.433 200.708C191.822 200.353 191.822 200.323 191.312 199.997C190.85 199.671 190.802 199.493 190.948 198.338C191.069 197.212 191.02 196.946 190.486 196.294C190.122 195.879 189.66 195.524 189.441 195.524C189.174 195.524 189.101 195.375 189.199 195.02C189.296 194.753 189.247 194.457 189.101 194.338C188.956 194.22 189.223 194.013 189.684 193.835C190.51 193.509 190.535 193.539 190.802 194.516C191.239 196.057 192.866 196.264 193.96 194.931C194.542 194.22 194.713 194.19 194.542 194.783C194.348 195.346 194.421 195.346 195.49 194.783L196.34 194.368L196.219 195.524C196.097 196.59 196.146 196.709 196.607 196.709C197.336 196.709 198.818 195.909 199.473 195.168L200.032 194.546V195.612C200.032 196.205 200.129 196.738 200.251 196.827C200.567 197.094 201.951 195.316 202.121 194.427C202.267 193.746 202.291 193.746 202.728 194.901C203.943 198.22 207.562 195.553 207.562 191.287C207.562 190.872 207.222 189.776 206.833 188.828C205.983 186.902 206.008 185.895 206.955 184.917L207.538 184.295L207.708 185.391C207.805 185.984 207.927 186.31 207.975 186.102C208.242 185.184 208.51 185.954 208.68 188.117C208.752 189.421 208.947 190.398 209.068 190.309C209.19 190.22 209.457 189.628 209.651 188.976C209.87 188.354 210.137 187.88 210.234 187.969C210.526 188.176 211.449 186.665 211.449 185.984C211.449 185.154 211.862 185.599 212.056 186.636C212.347 188.295 212.785 187.673 213.052 185.125C213.149 184.177 213.295 183.762 213.416 183.999C213.538 184.266 213.756 183.999 214.048 183.14L214.485 181.866L215.214 183.377C215.991 185.006 216.307 185.243 216.307 184.117C216.307 183.11 216.671 183.169 217.035 184.266C217.206 184.74 217.473 185.302 217.667 185.48C217.934 185.747 218.007 185.658 218.007 184.977C218.007 184.503 218.104 183.91 218.25 183.673C218.444 183.317 218.493 183.317 218.639 183.792C218.809 184.295 218.833 184.295 219.222 183.673L219.635 182.992L220.412 183.643C221.043 184.206 221.165 184.236 221.165 183.821C221.165 183.466 221.311 183.525 221.724 184.117C222.282 184.917 223.594 185.51 224.031 185.184C224.493 184.858 223.885 182.814 223.108 181.925C222.598 181.392 222.452 181.036 222.622 180.74C222.792 180.384 222.987 180.355 223.788 180.651C226.314 181.599 227.918 180.829 227.65 178.785C227.529 177.896 227.578 177.748 227.99 177.748C228.355 177.748 228.452 177.54 228.452 176.77C228.452 176.237 228.282 175.496 228.063 175.141C227.723 174.548 227.723 174.489 228.136 174.489C228.379 174.489 228.719 174.37 228.914 174.222C229.424 173.837 227.553 171.585 226.533 171.348C226.12 171.23 225.78 171.023 225.78 170.874C225.78 170.726 225.877 170.667 225.999 170.786C226.12 170.874 226.29 170.845 226.363 170.697C226.436 170.549 226.072 170.282 225.586 170.045L224.687 169.66L225.78 169.097C227.067 168.415 226.776 167.971 225.076 167.971H224.007L224.541 167.26L225.076 166.549L224.468 166.371L223.861 166.194L224.468 165.097C225.221 163.735 225.1 163.349 223.983 163.468C223.497 163.527 223.108 163.438 223.108 163.261C223.108 163.112 223.497 162.431 223.958 161.75C224.881 160.387 224.978 160.12 224.468 160.357C224.201 160.476 224.104 160.002 224.031 158.165C223.958 156.891 223.861 155.735 223.788 155.647C223.691 155.558 223.302 155.706 222.889 155.943C222.209 156.387 222.161 156.387 222.307 155.913C222.428 155.558 222.185 155.676 221.529 156.298L220.606 157.157L220.752 155.884C220.971 154.254 220.63 154.254 219.149 155.854L218.007 157.039L217.861 155.854C217.764 155.173 217.57 154.639 217.424 154.639C217.254 154.639 216.695 155.084 216.161 155.617C215.651 156.18 215.068 156.565 214.898 156.476C214.704 156.417 214.145 156.861 213.611 157.483C212.93 158.313 212.663 158.461 212.663 158.106C212.663 157.424 212.372 157.454 212.007 158.194C211.837 158.52 211.303 158.846 210.793 158.935C209.36 159.231 207.732 160.002 207.101 160.683C206.688 161.127 206.493 161.216 206.421 160.92C206.323 160.653 206.202 160.624 205.983 160.861C205.74 161.098 205.692 160.92 205.789 159.913C205.91 158.698 205.619 156.002 205.255 154.847C205.133 154.462 205.206 154.343 205.57 154.343C205.862 154.343 206.153 154.195 206.226 154.047C206.323 153.869 206.663 153.78 207.028 153.81C207.562 153.899 207.684 153.75 207.927 152.773C208.072 152.151 208.315 151.529 208.485 151.41C208.655 151.291 208.995 150.521 209.263 149.721L209.724 148.27L209.748 149.899C209.748 152.003 210.137 152.802 210.356 151.291C210.599 149.692 210.963 149.662 210.963 151.203C210.963 152.891 211.279 152.951 211.862 151.38C212.105 150.729 212.347 150.195 212.42 150.195C212.493 150.195 212.712 150.64 212.882 151.143L213.198 152.121L213.44 150.936C213.781 149.395 213.781 149.395 214.485 150.195L215.092 150.877V149.81C215.092 148.892 215.165 148.714 215.651 148.684C215.942 148.684 216.404 148.566 216.671 148.447C217.108 148.24 217.035 148.092 216.015 147.322L214.874 146.433L215.651 145.959C216.307 145.574 216.355 145.485 215.894 145.485C214.874 145.425 214.631 145.159 214.776 144.24C214.874 143.589 214.825 143.381 214.509 143.381C214.242 143.381 214.121 143.115 214.121 142.552C214.121 141.248 213.368 140.596 212.056 140.774C211.06 140.922 210.939 140.863 210.817 140.241C210.744 139.885 210.744 139.411 210.841 139.263C211.06 138.789 210.428 138.878 209.384 139.411C208.51 139.856 208.485 139.826 208.655 139.322C208.752 139.026 208.874 138.463 208.922 138.049C208.995 137.426 208.971 137.456 208.655 138.256C208.388 138.997 208.121 139.234 207.684 139.234C207.052 139.234 205.862 140.389 205.862 140.982C205.862 141.456 203.87 142.937 203.36 142.818C203.093 142.789 202.85 143.026 202.704 143.5C202.437 144.389 202.291 144.448 201.684 143.766C201.271 143.322 201.222 143.381 200.712 144.803C200.275 145.988 200.056 146.285 199.716 146.166C199.158 145.959 198.332 146.818 198.308 147.647C198.283 148.092 198.21 148.003 198.04 147.292C197.895 146.788 197.7 146.344 197.603 146.344C197.506 146.344 197.239 146.788 197.02 147.292C196.656 148.21 196.631 148.24 196.486 147.588C196.316 146.818 196.024 146.729 195.806 147.41C195.66 147.855 195.587 147.855 195.101 147.262C194.348 146.403 193.352 146.462 192.575 147.41C192.235 147.825 191.943 148.121 191.895 148.062C191.871 148.003 191.725 147.736 191.603 147.41C191.36 146.907 191.312 146.936 190.923 147.766C190.51 148.625 190.413 148.655 189.223 148.507C187.863 148.329 186.697 148.892 185.215 150.373C183.952 151.677 183.587 151.558 183.442 149.781C183.369 148.744 183.417 148.21 183.636 148.062C184.195 147.647 184.559 146.107 184.389 144.803C184.243 143.737 184.268 143.648 184.583 143.944C185.118 144.477 185.385 144.152 185.725 142.463L186.041 140.952L186.6 141.752L187.158 142.552L187.523 141.485C187.717 140.922 187.887 140.271 187.887 140.093C187.887 139.856 188.057 139.915 188.324 140.211C188.567 140.508 188.834 140.715 188.907 140.715C188.98 140.715 189.174 139.974 189.344 139.056L189.684 137.397L190.049 138.256L190.413 139.085L190.705 137.812C190.923 136.952 190.948 136.093 190.826 135.204L190.632 133.901L192.065 135.827C192.866 136.893 193.619 137.752 193.741 137.752C193.862 137.752 193.96 137.456 193.96 137.071C193.96 136.478 194.057 136.419 195.053 136.508C195.854 136.597 196.146 136.508 196.146 136.212C196.146 135.738 195.466 134.493 194.98 134.019C194.713 133.782 194.858 133.634 195.636 133.338C196.802 132.923 196.753 132.538 195.538 132.242C194.227 131.946 194.324 131.649 195.854 131.323C198.283 130.761 202.218 128.539 202.218 127.739C202.218 127.59 201.514 127.205 200.664 126.82C199.425 126.287 199.133 126.05 199.231 125.635C199.401 124.865 198.793 124.687 197.336 125.013C196.631 125.191 196.049 125.309 196 125.309C195.951 125.309 195.903 125.013 195.903 124.628C195.903 123.176 195.587 122.643 194.47 122.021C193.522 121.517 193.231 121.458 192.575 121.754C191.943 122.021 191.652 121.991 191.118 121.665C190.535 121.28 190.413 121.28 190.194 121.665C189.976 122.021 189.782 121.991 188.859 121.339C187.595 120.451 187.401 120.421 187.401 120.984C187.401 121.28 187.182 121.339 186.381 121.132C185.531 120.954 185.264 120.984 184.972 121.399C184.705 121.784 184.292 121.873 183.369 121.813C182.324 121.754 181.984 121.843 181.426 122.436C180.77 123.117 180.697 123.147 179.968 122.702C178.948 122.11 177.976 122.436 177.782 123.384C177.612 124.272 177.636 124.272 176.033 123.532C174.479 122.791 173.41 122.791 172.973 123.443C171.369 125.843 170.422 127.324 170.203 127.887C169.79 128.835 168.697 133.901 168.697 134.879C168.697 135.708 168.673 135.738 167.702 135.53L166.681 135.323L166.827 136.152C166.9 136.626 167.046 137.249 167.119 137.515C167.264 137.93 167.167 138.049 166.754 138.049C166.244 138.049 166.22 138.137 166.317 139.767C166.414 141.485 166.414 141.515 165.685 141.781C165.03 142.018 164.908 142.226 164.738 143.529C164.617 144.329 164.544 145.663 164.544 146.433C164.568 147.262 164.422 148.151 164.204 148.507C164.009 148.862 163.839 149.455 163.839 149.869C163.839 150.255 163.669 150.817 163.451 151.114C163.256 151.38 162.941 152.506 162.795 153.573C162.649 154.639 162.455 155.528 162.358 155.528C162.26 155.528 162.042 156.002 161.896 156.565C161.556 157.839 161.362 157.869 160.949 156.624L160.609 155.676L160.39 157.513C160.22 158.846 160.074 159.291 159.831 159.202C159.613 159.083 159.467 159.32 159.418 159.883C159.346 160.594 159.248 160.713 158.665 160.624C157.694 160.476 156.844 161.246 156.674 162.461C156.504 163.438 156.455 163.468 155.678 163.32C154.9 163.172 154.803 163.231 154.536 164.09C154.293 164.92 154.172 165.008 153.637 164.86C151.305 164.09 150.237 164.505 150.237 166.164C150.237 166.905 150.164 166.964 149.386 166.845C148.245 166.668 147.443 166.964 146.86 167.704C146.593 168.06 146.277 168.238 146.156 168.149C145.767 167.853 144.723 169.097 144.14 170.549L143.581 171.941L143.362 171.141L143.144 170.341L142.391 171.052L141.638 171.763L141.079 170.282L140.496 168.771L139.767 169.63C139.16 170.341 139.014 170.4 138.82 170.045C138.699 169.808 138.577 169.541 138.577 169.452C138.577 169.364 138.407 169.038 138.213 168.741C137.873 168.208 137.849 168.208 137.411 168.86C136.998 169.512 136.95 169.512 135.857 169.067C133.841 168.208 131.752 169.571 130.901 172.297L130.513 173.57L129.784 173.126C128.885 172.563 128.254 172.8 127.914 173.837C127.647 174.578 127.549 174.637 126.383 174.518C125.217 174.43 125.047 174.489 124.489 175.289C124.076 175.881 123.566 176.237 122.934 176.355L121.987 176.533L122.764 175.733C123.299 175.17 123.639 174.459 123.881 173.333C124.052 172.474 124.392 171.497 124.634 171.2C124.999 170.726 129.225 167.379 129.493 167.379C129.541 167.379 129.59 167.645 129.59 167.941C129.59 168.475 129.663 168.504 130.318 168.208C130.731 168.06 131.606 167.319 132.286 166.579C133.403 165.305 133.501 165.275 133.33 166.016C133.16 166.934 133.355 166.964 134.618 166.342C135.687 165.779 135.614 165.779 135.711 166.519C135.784 167.112 135.881 167.053 136.78 165.927C137.873 164.594 138.091 164.475 138.091 165.157C138.091 165.957 138.504 165.601 138.942 164.416C139.355 163.32 139.792 162.846 139.792 163.498C139.792 163.883 140.618 164.179 141.103 163.942C141.322 163.823 141.686 163.349 141.881 162.875C142.561 161.246 144.285 158.876 145.209 158.313C146.034 157.78 146.35 158.076 146.35 159.439C146.35 160.12 146.447 160.268 146.933 160.268C147.273 160.268 147.613 160.416 147.686 160.594C147.808 160.802 148.051 160.683 148.415 160.268L148.949 159.646L149.095 160.565C149.289 161.69 149.848 161.987 150.48 161.305C150.868 160.89 151.063 160.861 151.767 161.127C153.152 161.69 154.293 160.861 154.512 159.054C154.633 158.283 154.755 157.987 154.998 158.106C155.556 158.372 155.872 156.832 155.483 155.706C155.168 154.758 155.168 154.699 155.726 154.373C156.285 154.076 156.455 153.573 156.601 151.973C156.649 151.38 156.819 151.203 157.475 151.143C158.155 151.054 158.253 150.936 158.253 150.166C158.253 149.336 158.277 149.307 159.467 149.307C160.876 149.307 160.997 148.981 160.22 147.144C159.88 146.314 159.831 146.048 160.099 146.048C160.269 146.048 160.56 145.781 160.754 145.455C160.949 145.129 161.435 144.774 161.848 144.685C162.771 144.448 162.795 144.389 162.09 143.678C161.58 143.174 161.58 143.115 161.969 142.937C162.188 142.818 162.382 142.433 162.382 142.078C162.382 141.337 160.196 139.737 159.588 140.004C159.273 140.152 159.224 139.767 159.224 137.189C159.224 135.53 159.127 134.197 159.006 134.197C158.884 134.197 157.961 134.849 156.941 135.678C155.921 136.478 155.046 137.16 154.998 137.16C154.949 137.16 154.779 136.745 154.609 136.271C154.415 135.708 154.123 135.382 153.832 135.382C153.346 135.382 151.573 136.419 150.382 137.426C149.605 138.078 149.265 137.989 149.265 137.219C149.241 136.952 149.119 136.33 148.949 135.886L148.658 135.027L147.346 136.093C146.617 136.686 146.01 137.13 145.986 137.101C145.962 137.041 145.816 136.241 145.621 135.323L145.306 133.634L144.431 134.079C143.945 134.316 143.192 134.938 142.779 135.441L141.978 136.389V135.441C141.978 134.523 141.954 134.493 141.443 134.819C141.128 134.997 140.423 135.678 139.865 136.33L138.869 137.545L138.699 136.152L138.529 134.76L137.873 135.856L137.241 136.952L137.095 136.093C136.974 135.382 136.925 135.323 136.78 135.738C136.464 136.597 136.148 136.33 136.148 135.234C136.148 134.671 136.075 134.197 135.978 134.197C135.881 134.197 135.444 134.612 135.007 135.145L134.205 136.093V134.967V133.842L133.306 134.671C132.796 135.116 132.359 135.619 132.31 135.738C132.092 136.33 131.8 135.886 131.727 134.849C131.654 133.605 131.363 133.545 129.784 134.464C128.91 134.967 128.885 134.967 129.104 134.464C129.25 134.168 129.347 133.605 129.347 133.19C129.347 132.775 129.468 132.42 129.59 132.42C129.735 132.42 129.833 132.597 129.833 132.775C129.833 132.982 130.124 132.568 130.488 131.857L131.12 130.523L131.46 131.679C131.946 133.397 132.14 133.456 132.626 132.153L133.063 130.968L133.792 131.857C134.618 132.894 134.764 132.775 135.419 130.761C135.76 129.664 135.905 129.427 136.027 129.812C136.245 130.523 136.537 130.494 136.707 129.753C136.877 128.953 137.266 129.013 137.751 129.931L138.164 130.672L138.504 129.753C138.674 129.22 138.82 128.509 138.82 128.153C138.82 127.561 138.844 127.561 139.282 128.272L139.743 128.983L139.913 127.857C140.01 127.265 140.035 126.139 139.937 125.428C139.84 124.361 139.913 123.828 140.326 122.85C140.861 121.606 140.885 121.606 140.958 122.436C141.055 123.472 141.565 123.739 142.318 123.117C142.901 122.673 142.925 122.673 142.998 123.621C143.047 124.243 143.241 124.657 143.581 124.835C143.97 125.043 144.14 125.487 144.237 126.317C144.407 127.709 144.917 128.272 146.01 128.272C146.423 128.272 146.909 128.479 147.079 128.716C147.322 129.072 147.443 129.101 147.565 128.835C147.71 128.598 147.978 128.687 148.512 129.19C149.144 129.753 149.338 129.812 149.872 129.516C150.212 129.309 150.65 128.746 150.82 128.242C151.014 127.679 151.208 127.442 151.305 127.65C151.621 128.242 151.961 128.005 152.35 126.879C152.981 124.983 152.374 121.339 151.184 119.799C150.698 119.147 150.698 119.147 151.16 118.969C151.403 118.851 152.399 117.814 153.346 116.599C154.415 115.266 155.119 114.585 155.192 114.822C155.265 115.029 155.386 116.007 155.483 117.014C155.581 117.992 155.726 118.851 155.823 118.94C156.042 119.088 158.253 117.044 158.253 116.688C158.253 116.54 158.423 116.421 158.617 116.421C158.811 116.421 158.981 116.244 158.981 116.007C158.981 115.77 159.103 115.473 159.273 115.355C159.418 115.236 159.467 115.266 159.37 115.473C159.176 115.888 159.467 118.199 159.71 118.199C159.831 118.199 160.05 117.784 160.244 117.31C160.584 116.362 160.924 116.125 160.924 116.836C160.924 117.073 161.046 117.636 161.167 118.051C161.532 119.236 162.066 118.525 162.43 116.421L162.722 114.673L163.451 115.444L164.204 116.214L164.422 115.444L164.665 114.673L165.807 115.681L166.949 116.718L167.119 115.651L167.264 114.555L168.6 114.762L169.936 114.94L169.863 113.696C169.79 112.451 169.79 112.451 170.738 112.244C172.195 111.948 173.07 110.615 173.07 108.689C173.07 107.415 172.948 107.059 172.365 106.319C171.734 105.578 171.709 105.46 172.122 105.46C172.56 105.46 172.56 105.371 171.977 103.978L171.369 102.497H172.487C173.458 102.497 173.604 102.438 173.483 101.934C173.41 101.49 173.628 101.312 174.794 100.868C175.572 100.601 176.179 100.275 176.106 100.127C176.057 100.008 175.402 99.6825 174.649 99.3863L173.288 98.8826L174.284 97.8457C174.819 97.2828 175.426 96.4533 175.62 96.0089C175.96 95.209 175.936 95.1793 174.94 94.4979C174.381 94.1128 173.871 93.7869 173.823 93.7277C173.774 93.6684 173.968 93.2833 174.236 92.8092C174.794 91.8612 175.499 89.8762 175.499 89.2837C175.499 89.0171 175.11 89.1652 174.284 89.7577L173.07 90.6169V89.3133C173.07 87.6839 172.803 86.7951 171.758 85.136C171.297 84.3954 170.884 83.6547 170.835 83.477C170.665 82.8548 169.693 83.5658 168.236 85.373C167.046 86.8544 166.754 87.0914 166.754 86.5877C166.754 86.2322 166.681 85.7286 166.608 85.4619C166.463 85.0472 166.317 85.136 165.661 85.9063L164.86 86.8544L164.471 85.9359C164.131 85.1657 163.985 85.0472 163.596 85.3138C162.819 85.8174 162.625 85.6693 162.625 84.5435C162.625 83.0622 163.281 81.4624 163.888 81.4624C164.277 81.4624 164.349 81.3142 164.252 80.8699C164.155 80.4255 164.325 80.0699 164.835 79.6256L165.54 78.9738L164.835 78.6183C164.374 78.3812 164.034 77.9072 163.839 77.1666C163.548 76.1 163.548 76.1 162.941 76.6037C162.358 77.0481 162.309 77.0481 162.09 76.574C161.872 76.1297 161.799 76.1297 161.313 76.6926L160.779 77.3147L160.074 76.4259C159.2 75.3001 158.714 75.3001 157.67 76.4555L156.819 77.3443L155.848 76.7518C154.609 75.9519 154.415 75.9815 154.22 76.8407C154.099 77.4925 154.002 77.5221 153.322 77.2851C151.864 76.7814 150.431 77.7295 150.82 78.9738C150.965 79.4774 150.917 79.4774 150.139 79.0627C149.338 78.6183 148.318 78.9441 148.051 79.7737C147.929 80.1292 147.832 80.2477 147.832 80.0403C147.783 79.2997 147.37 79.7144 147.2 80.6328L147.03 81.6105L146.812 80.7514C146.447 79.1515 145.84 79.033 144.868 80.307C144.285 81.0772 144.164 81.1365 144.164 80.6921C144.14 80.3662 143.994 79.8033 143.824 79.3885L143.484 78.6479L143.168 79.4774C142.804 80.4847 142.682 80.4847 142.172 79.3885C141.856 78.7071 141.589 78.4998 141.006 78.4998C140.253 78.4998 139.063 79.5959 139.063 80.307C139.063 80.544 138.893 80.4847 138.626 80.1885C138.019 79.507 137.776 79.5663 136.877 80.4551C136.027 81.3439 135.419 82.6178 135.419 83.5362C135.419 84.0102 135.007 83.5362 134.011 81.8475C133.209 80.5736 132.359 79.2997 132.067 78.9738C131.557 78.4405 131.533 78.4405 131.29 79.2108C131.169 79.6552 131.047 80.1885 131.023 80.3662C131.023 80.5736 130.901 80.4255 130.756 80.0403C130.61 79.6848 130.391 79.3885 130.294 79.3885C129.906 79.3885 129.274 81.3142 129.104 82.9437C128.958 84.4843 128.934 84.5139 128.642 83.8325L128.375 83.0918L128.448 83.8917C128.545 84.7213 128.302 84.9879 128.011 84.425C127.817 84.0399 127.404 84.0399 127.404 84.4546C127.404 84.6324 127.136 85.1953 126.796 85.6693C126.383 86.2618 126.238 86.7655 126.311 87.121C126.456 87.6839 126.432 87.6839 125.193 87.0914C123.566 86.2915 122.448 86.3803 122.351 87.2988C122.303 87.7432 122.108 87.9802 121.792 87.9802C121.501 87.9802 121.331 88.1875 121.331 88.5727C121.331 88.9578 121.161 89.1652 120.869 89.1652C120.116 89.1652 120.092 88.7504 120.724 87.6543C121.574 86.1137 121.695 85.4027 121.088 85.1657C120.432 84.899 118.586 84.899 117.93 85.1657C117.469 85.3434 117.493 85.2842 118.027 84.6324C118.78 83.714 119.048 82.5289 118.708 81.6105C118.562 81.2254 118.513 80.4551 118.586 79.8922L118.708 78.8553L119.874 79.8626C120.505 80.4255 121.137 80.8699 121.282 80.8699C121.574 80.8699 121.963 79.5367 122.181 77.6702C122.351 76.4259 122.351 76.3963 122.91 76.8407C123.42 77.2554 123.469 77.2554 123.614 76.6333C123.687 76.2778 123.76 75.5668 123.784 75.0927C123.809 74.5595 123.857 74.4113 123.93 74.7372C124.076 75.4779 124.537 75.2409 124.975 74.1743L125.339 73.3152L125.873 73.9669C126.602 74.8557 127.428 74.8261 128.4 73.8484C129.201 73.0189 130.051 71.0636 130.076 70.0266C130.076 69.4934 130.707 68.6046 131.824 67.5973C132.189 67.2418 132.213 67.3306 132.092 68.3972C131.946 69.7304 132.14 71.0932 132.505 71.0932C132.626 71.0932 133.112 70.471 133.598 69.7304C134.448 68.3676 134.448 68.3379 134.448 69.1971V70.0563L134.909 69.3452L135.371 68.6046L135.468 69.3156L135.541 70.0266L136.44 69.0786L137.314 68.1009L137.484 69.0193C137.678 70.1155 137.849 70.1155 138.577 69.1379L139.16 68.3972L139.719 70.1155C140.18 71.5672 140.278 71.745 140.423 71.1524C140.642 70.2636 141.006 70.3229 141.006 71.2709C141.006 73.0189 142.318 70.9747 142.682 68.6638L142.877 67.3899L143.168 68.2787C143.338 68.7527 143.581 69.3452 143.751 69.5526C144.115 70.1155 144.358 69.3452 144.407 67.538V66.2048L144.868 66.9159L145.33 67.6269L145.719 66.7085C145.937 66.2048 146.107 65.5531 146.107 65.2568C146.132 64.9013 146.229 65.0494 146.447 65.6123C146.617 66.116 147.055 66.6789 147.419 66.8863C148.026 67.2121 148.051 67.1825 148.051 66.4122V65.6123L148.536 66.5604C149.046 67.6269 150.139 68.4268 151.063 68.4268C151.621 68.4268 151.645 68.3676 151.451 67.5084C151.33 67.0048 151.063 66.2641 150.844 65.879C150.382 65.0198 150.382 64.8717 150.844 64.8717C151.281 64.8717 151.305 64.5162 150.941 64.0718C150.722 63.8051 150.844 63.5385 151.427 62.946C151.84 62.5016 152.18 61.8794 152.18 61.4943C152.18 60.961 152.326 60.8721 153.127 60.8721C154.172 60.8721 155.095 60.1018 155.095 59.213C155.095 58.8575 155.338 58.5909 155.751 58.4724C156.309 58.2946 156.334 58.2354 155.969 57.9095C155.605 57.5836 155.653 57.4651 156.479 56.8429L157.402 56.1912L156.552 55.8949C155.435 55.4801 155.459 55.5098 155.921 54.6802C156.455 53.6729 156.455 53.6433 155.338 53.4359C154.463 53.2582 154.366 53.1693 154.366 52.3694C154.366 51.4806 154.269 51.3917 152.909 51.1251C151.403 50.7992 151.233 50.4733 152.131 49.5845C152.86 48.8735 152.909 48.755 152.569 48.3106C152.253 47.8662 152.253 47.6588 152.593 46.2071C152.884 44.9924 152.909 44.4888 152.69 44.074C152.544 43.7778 152.423 43.0075 152.423 42.3557C152.423 41.4669 152.326 41.1706 152.083 41.2299C151.913 41.2892 151.524 40.9929 151.257 40.5781L150.771 39.8375L150.188 40.4892C149.872 40.8744 149.386 41.1706 149.119 41.1706C148.488 41.1706 148.196 41.4669 147.735 42.5038L147.346 43.3926L147.322 42.5631V41.7039L146.253 42.4742L145.209 43.2149L144.917 42.415C144.626 41.6447 144.601 41.6447 144.261 42.2076C144.018 42.5927 143.921 42.652 143.921 42.3261C143.921 41.7928 142.755 39.6893 142.464 39.6893C142.342 39.6893 142.172 39.9856 142.075 40.3411L141.905 40.9929L141.395 40.2522C140.982 39.6893 140.642 39.5412 139.622 39.5116C138.261 39.4523 138.091 39.6597 138.091 41.5854C138.091 42.3853 138.067 42.415 137.654 41.9706C137.411 41.7039 136.804 41.2892 136.318 41.0225C135.419 40.5781 135.419 40.5781 135.177 41.3188C135.031 41.7632 134.934 42.5927 134.934 43.1852C134.934 44.0148 134.861 44.1629 134.642 43.8963C134.278 43.4519 133.112 43.4519 132.432 43.8963C132.14 44.074 131.509 44.2222 131.023 44.1629C130.051 44.074 129.735 44.5777 129.978 45.7627C130.1 46.3849 130.051 46.4441 129.298 46.4145C128.57 46.3552 128.497 46.4441 128.424 47.3329C128.351 48.1032 128.278 48.2513 127.938 48.0143C127.719 47.8958 127.234 47.6884 126.869 47.5699C126.238 47.3922 126.189 47.4514 126.189 48.281C126.189 48.8735 126.408 49.466 126.821 49.9697C127.209 50.4437 127.379 50.8881 127.282 51.214C127.136 51.6287 127.088 51.5991 126.918 51.0954C126.602 50.0585 126.019 49.6734 125.12 49.8808C124.464 50.0289 124.27 49.9697 124.197 49.6141C124.124 49.1994 123.954 49.229 122.983 49.8511L121.817 50.5622V49.7326C121.817 49.2586 121.792 48.8735 121.744 48.8735C121.72 48.8735 121.331 48.992 120.869 49.1697C120.068 49.4364 120.068 49.4364 120.165 48.5772C120.286 47.5699 120.068 47.481 119.096 48.1032C118.489 48.4883 118.465 48.4883 118.343 47.5699C118.27 46.9478 118.343 46.5626 118.61 46.3849C118.829 46.2367 119.485 45.585 120.068 44.9036L121.137 43.7185L121.574 44.4295C122.011 45.1406 122.06 45.1406 122.351 44.6369C122.643 44.1333 122.716 44.1333 123.469 44.5777C123.881 44.8443 124.464 44.9924 124.707 44.8739C124.975 44.7851 125.752 43.837 126.432 42.7705C127.112 41.7335 127.817 40.8744 128.011 40.8744C128.205 40.8744 128.302 40.6966 128.229 40.4892C128.157 40.2522 128.521 39.9856 129.225 39.719C130.246 39.3634 130.707 38.8302 130.027 38.8005C129.857 38.7709 130.197 38.4747 130.78 38.1191C131.387 37.7636 132.019 37.1711 132.213 36.8156C132.529 36.1934 132.505 36.1342 131.922 35.8675C131.314 35.5713 131.314 35.5417 131.679 34.4751C132.092 33.2308 132.019 33.0827 130.707 32.579L129.76 32.1939L130.901 31.6606C131.557 31.3644 132.14 31.0681 132.189 30.9792C132.262 30.8903 131.97 30.4756 131.533 30.0312L130.756 29.2016L131.387 28.6387C132.189 27.9573 132.189 27.6611 131.412 27.4241L130.804 27.2463L131.776 26.0316C132.31 25.3502 132.748 24.6984 132.748 24.5799C132.748 24.1948 131.776 23.9874 129.833 23.9578C128.837 23.9282 127.695 23.8393 127.282 23.7208L126.553 23.543L127.476 22.8616C127.987 22.4468 128.375 21.9136 128.375 21.6173C128.375 21.321 128.472 20.9952 128.594 20.9063C128.715 20.8174 128.861 20.1952 128.91 19.5138C129.007 18.3288 128.982 18.2992 128.327 18.4769C127.817 18.5954 127.647 18.5065 127.525 18.0622C127.331 17.3215 127.015 17.3215 126.699 17.9733C126.481 18.4177 126.456 18.3584 126.432 17.5585C126.432 17.0549 126.335 16.2846 126.189 15.8402L125.946 15.0699L125.193 15.7513C124.78 16.1364 124.197 17.0252 123.906 17.7363L123.347 19.0398L122.813 18.0918C122.133 16.9364 121.963 16.9364 121.574 18.0918L121.258 19.0102L120.529 17.5881L119.801 16.1661L119.291 16.9067L118.78 17.6474L118.003 16.492L117.226 15.3662L116.546 16.6105L115.89 17.8251L115.671 17.0549C115.404 16.0772 115.064 16.0772 114.87 17.0252C114.797 17.44 114.651 17.7659 114.554 17.7363C114.481 17.7363 114.092 17.1734 113.679 16.5216C112.902 15.1884 112.052 14.3589 111.202 14.0626C110.74 13.9145 110.619 14.0626 110.376 15.0995C110.133 16.0476 109.963 16.2846 109.574 16.2253C109.161 16.1661 108.991 16.4031 108.7 17.4104C108.408 18.4769 108.263 18.6547 107.85 18.5065C106.587 18.0029 106.271 18.0325 105.615 18.5954C105.154 18.9806 104.692 19.1287 104.255 19.0398C103.502 18.8621 102.87 19.3657 102.87 20.1656C102.87 20.8174 102.87 20.8174 102.044 20.4323C101.461 20.1656 101.413 20.1952 101.559 20.847C101.656 21.3803 101.583 21.5877 101.194 21.7062C100.903 21.7951 100.684 22.0617 100.684 22.3283C100.684 23.069 100.053 22.8912 99.6153 22.0617C99.3724 21.6469 98.9594 21.1433 98.6437 20.9952C98.1336 20.6989 98.1093 20.61 98.3522 19.2176C98.6922 17.203 98.2307 16.1068 97.0648 16.1957C96.1903 16.2253 96.2389 16.4327 96.7247 14.0034L96.8705 13.2034L96.1175 13.8552C95.1944 14.6848 95.1701 14.6848 94.9758 13.6182C94.7815 12.5813 94.4414 12.2258 94.0528 12.6998C93.907 12.8776 93.737 13.0257 93.6398 13.0257C93.5669 13.0257 93.5184 11.6036 93.4941 9.82605C93.4941 7.30782 93.3726 6.33015 92.9354 4.96734C92.2553 2.80462 90.7493 1.0863 89.0003 0.464146C86.9842 -0.276511 86.6927 -0.187632 86.4984 1.14555ZM100.635 24.2244C101.048 24.5503 100.733 25.4687 100.295 25.2613C100.101 25.1725 99.9553 24.8466 99.9553 24.5503C99.9553 23.9578 100.15 23.8689 100.635 24.2244ZM102.506 30.7126C102.409 31.0088 102.263 31.4829 102.214 31.7495C102.044 32.4309 101.85 32.4309 101.461 31.6902C101.291 31.3644 101 31.0977 100.806 31.0977C100.417 31.0977 100.32 30.7422 100.611 30.4163C100.684 30.2978 101.194 30.2089 101.729 30.2089C102.53 30.2089 102.652 30.2978 102.506 30.7126ZM105.542 32.9938C105.542 33.0234 105.324 33.5567 105.056 34.2085C104.789 34.8603 104.571 35.6305 104.571 35.9268C104.571 36.4897 104.813 36.4897 106.319 35.9564C106.587 35.8675 106.732 36.0157 106.805 36.4897C106.878 37.1415 106.951 37.1711 108.797 37.0526L110.716 36.9637L110.57 38.0303C110.473 38.7413 110.522 39.0968 110.716 39.0968C110.886 39.0968 110.546 39.6005 109.963 40.1634C109.04 41.1114 107.485 43.5111 107.485 43.9851C107.485 44.074 107.728 44.074 108.044 43.9851C108.384 43.8666 108.214 44.1036 107.607 44.6369L106.635 45.4665L107.437 45.5553L108.263 45.6442L106.562 47.6292C104.935 49.5549 103.818 51.8361 104.716 51.4213C106.247 50.7103 107.194 50.5918 107.825 51.0954C108.166 51.3917 108.457 51.7472 108.457 51.925C108.457 52.0731 108.627 52.3694 108.846 52.5768C109.21 52.873 109.186 52.9915 108.651 53.7618C108.166 54.4432 107.801 54.621 106.66 54.7395C105.591 54.8284 105.178 54.7691 104.838 54.384C104.328 53.8211 103.745 53.7026 102.943 54.0285C102.409 54.2358 102.384 54.1766 102.384 52.7545C102.384 51.3917 102.336 51.2436 101.826 51.2436C101.534 51.2436 100.927 51.3621 100.49 51.5102C99.7853 51.7769 99.7124 51.7472 99.7124 51.1251C99.7124 50.5326 99.5667 50.414 98.7165 50.2659C97.4048 50.0585 97.3077 49.8511 98.085 49.0809C98.425 48.7253 98.8866 48.0439 99.0809 47.5403C99.4452 46.7108 99.421 46.6515 98.8866 46.3552L98.3036 46.059L98.7408 44.7258C99.008 43.9851 99.2023 43.6 99.2023 43.8666C99.2266 44.1333 99.3967 44.5184 99.591 44.7258C99.9068 45.0517 100.077 44.9924 100.563 44.4295C100.903 44.0444 101.17 43.5407 101.17 43.2741C101.17 42.9482 101.243 42.9186 101.461 43.1852C102.093 43.9555 103.356 41.7335 102.967 40.4892C102.87 40.1337 103.016 39.8967 103.453 39.6597C103.818 39.4523 104.158 38.9487 104.255 38.5339C104.473 37.4377 103.453 35.2454 102.336 34.5047C101.631 34.0307 101.51 33.7937 101.68 33.4086C101.85 33.0234 102.263 32.9345 103.72 32.9345C104.716 32.9642 105.542 32.9938 105.542 32.9938ZM106.222 56.043C106.101 56.4874 105.664 56.3689 105.591 55.8653C105.542 55.5394 105.639 55.4505 105.907 55.569C106.125 55.6875 106.247 55.8949 106.222 56.043ZM112.829 103.06C112.829 103.178 112.611 103.652 112.319 104.097L111.833 104.867H112.489H113.145L112.562 105.637L111.979 106.378L111.688 104.956C111.25 102.941 111.275 102.793 112.101 102.793C112.514 102.793 112.829 102.912 112.829 103.06ZM116.206 110.496L117.177 109.904L117.032 110.941C116.862 112.185 116.983 112.214 118.076 111.207L118.902 110.437V111.652C118.902 112.629 118.999 112.866 119.339 112.866C119.971 112.866 120.797 112.066 121.234 111.029C121.501 110.407 121.695 110.229 121.865 110.437C122.181 110.822 121.015 113.192 119.946 114.377C118.319 116.184 116.91 116.955 114.773 117.251C113.631 117.399 112.659 117.488 112.611 117.429C112.562 117.369 112.465 115.977 112.392 114.348L112.271 111.385H112.902C113.242 111.385 113.85 111.059 114.214 110.674C114.87 109.992 114.894 109.963 115.064 110.526C115.234 111.089 115.258 111.089 116.206 110.496ZM34.2496 118.495C34.1767 118.643 33.9824 118.791 33.8609 118.791C33.7152 118.791 33.6909 118.643 33.7638 118.495C33.8366 118.317 34.031 118.199 34.1524 118.199C34.2982 118.199 34.3225 118.317 34.2496 118.495ZM126.383 131.56C125.8 132.034 125.679 131.827 125.825 130.701C126.092 128.805 126.238 128.657 126.481 130.02C126.675 131.027 126.651 131.383 126.383 131.56ZM123.274 371.207C123.08 371.355 122.643 371.474 122.303 371.474C121.744 371.444 121.744 371.415 122.424 371.207C123.469 370.881 123.687 370.881 123.274 371.207Z" fill="url(#paint0_linear_10_88)"/>
<path d="M147.759 364.601C147.929 364.69 148.148 364.66 148.22 364.571C148.318 364.482 148.172 364.393 147.905 364.423C147.638 364.423 147.565 364.512 147.759 364.601Z" fill="url(#paint1_linear_10_88)"/>
<defs>
<linearGradient id="paint0_linear_10_88" x1="114.5" y1="375" x2="114.5" y2="0" gradientUnits="userSpaceOnUse">
<stop stop-color="#E48149"/>
<stop offset="0.0001" stop-color="#1C1C1C"/>
<stop offset="1" stop-color="#E48149"/>
</linearGradient>
<linearGradient id="paint1_linear_10_88" x1="147.95" y1="364.654" x2="147.95" y2="364.417" gradientUnits="userSpaceOnUse">
<stop stop-color="#E48149"/>
<stop offset="0.0001" stop-color="#1C1C1C"/>
<stop offset="1" stop-color="#E48149"/>
</linearGradient>
</defs>
</svg>
