<svg width="257" height="257" viewBox="0 0 257 257" fill="none" xmlns="http://www.w3.org/2000/svg">
<path d="M255.653 37.9378L135.397 252.976C132.914 257.416 126.535 257.442 124.015 253.024L1.37443 37.9585C-1.37112 33.1438 2.74595 27.3119 8.20191 28.2871L128.587 49.8052C129.355 49.9425 130.141 49.9411 130.909 49.8012L248.776 28.318C254.214 27.3269 258.35 33.1136 255.653 37.9378Z" fill="url(#paint0_linear_17_109)"/>
<path d="M185.932 0.0631039L96.9393 17.5009C95.4766 17.7875 94.3936 19.0271 94.3054 20.5147L88.8311 112.971C88.7023 115.149 90.7023 116.839 92.8277 116.349L117.605 110.631C119.923 110.096 122.018 112.138 121.541 114.469L114.18 150.516C113.684 152.942 115.962 155.016 118.331 154.297L133.635 149.647C136.007 148.927 138.287 151.007 137.785 153.435L126.087 210.056C125.355 213.598 130.066 215.529 132.03 212.493L133.343 210.465L205.859 65.7456C207.073 63.3225 204.979 60.5595 202.318 61.0731L176.814 65.9952C174.418 66.4573 172.379 64.2254 173.055 61.8805L189.701 4.1757C190.378 1.82693 188.332 -0.406958 185.932 0.0631039Z" fill="url(#paint1_linear_17_109)"/>
<defs>
<linearGradient id="paint0_linear_17_109" x1="-1.61993" y1="45.6364" x2="128.076" y2="221.774" gradientUnits="userSpaceOnUse">
<stop stop-color="#E48149"/>
<stop offset="1" stop-color="#E48149"/>
</linearGradient>
<linearGradient id="paint1_linear_17_109" x1="139.743" y1="4.79744" x2="166.424" y2="187.822" gradientUnits="userSpaceOnUse">
<stop stop-color="#E48149"/>
<stop offset="0.0833333" stop-color="#FFDD35"/>
<stop offset="1" stop-color="#E48149"/>
</linearGradient>
</defs>
</svg>
