<svg width="290" height="290" viewBox="0 0 290 290" fill="none" xmlns="http://www.w3.org/2000/svg">
<path d="M145 0.0483093L273 72.4528V217.31L145 289.715L17 217.31V72.4528L145 0.0483093Z" fill="white"/>
<path d="M250.153 212.287L149.251 269.428V224.99L212.14 190.358L250.153 212.287ZM257.06 206.056V86.6536L220.158 107.955V184.755L257.06 206.056ZM39.4604 212.287L140.363 269.38V224.942L77.474 190.358L39.4604 212.287ZM32.5532 206.056V86.6536L69.4559 107.955V184.755L32.5532 206.056ZM36.8521 78.9253L140.363 20.3834V63.3721L74.0445 99.84L73.5132 100.13L36.8521 78.9253ZM252.713 78.9253L149.251 20.3834V63.3721L215.521 99.8883L216.052 100.178L252.713 78.9253Z" fill="#E48149"/>
<path d="M140.363 214.847L78.3434 180.697V113.123L140.363 148.915V214.847ZM149.251 214.847L211.27 180.746V113.123L149.251 148.915V214.847ZM82.4973 105.298L144.807 71.0521L207.068 105.298L144.807 141.235L82.4973 105.298Z" fill="#E48149"/>
</svg>
